{
.appVersion = "1057";
copyright = "Copyright 2017 Google Inc. All Rights Reserved.";
customParameters = (
{
name = glyphOrder;
value = (
.notdef,
NULL,
CR,
space,
uni00A0,
uniA880,
uniA881,
uniA882,
uniA883,
uniA884,
uniA885,
uniA886,
uniA887,
uniA888,
uniA889,
uniA88A,
uniA88B,
uniA88C,
uniA88D,
uniA88E,
uniA88F,
uniA890,
uniA891,
uniA892,
uniA893,
uniA894,
uniA895,
uniA896,
uniA897,
uniA898,
uniA899,
uniA89A,
uniA89B,
uniA89C,
uniA89D,
uniA89E,
uniA89F,
uniA8A0,
uniA8A1,
uniA8A2,
uniA8A3,
uniA8A4,
uniA8A5,
uniA8A6,
uniA8A7,
uniA8A8,
uniA8A9,
uniA8AA,
uniA8AB,
uniA8AC,
uniA8AD,
uniA8AE,
uniA8AF,
uniA8B0,
uniA8B1,
uniA8B2,
uniA8B3,
uniA8B4,
uniA8B5,
uniA8B6,
uniA8B7,
uniA8B8,
uniA8B9,
uniA8BA,
uniA8BB,
uniA8BC,
uniA8BD,
uniA8BE,
uniA8BF,
uniA8C0,
uniA8C1,
uniA8C2,
uniA8C3,
uniA8C4,
uniA8C5,
uniA8CE,
uniA8CF,
uniA8D0,
uniA8D1,
uniA8D2,
uniA8D3,
uniA8D4,
uniA8D5,
uniA8D6,
uniA8D7,
uniA8D8,
uniA8D9,
uniA892A8B0,
uniA8AFA8AC,
uniA8B0A89D,
uniA8B0A89CA8AC,
uniA8A1A8AB,
uni200B,
uni200C,
uni200D,
uni25CC
);
},
{
name = description;
value = "Designed by Monotype design team.";
},
{
name = license;
value = "This Font Software is licensed under the SIL Open Font License, Version 1.1. This Font Software is distributed on an \"AS IS\" BASIS, WITHOUT WARRANTIES OR CONDITIONS OF ANY KIND, either express or implied. See the SIL Open Font License for the specific language, permissions and limitations governing your use of this Font Software.";
},
{
name = licenseURL;
value = "http://scripts.sil.org/OFL";
},
{
name = vendorID;
value = GOOG;
},
{
name = unicodeRanges;
value = (
0,
1,
31,
45,
115
);
},
{
name = trademark;
value = "Noto is a trademark of Google Inc.";
},
{
name = "Has WWS Names";
value = 1;
},
{
name = versionString;
value = "Version 2.000";
},
{
name = fsType;
value = (
);
},
{
name = codePageRanges;
value = (
"1252"
);
}
);
date = "2017-06-22 21:36:52 +0000";
designer = "Monotype Design Team";
designerURL = "http://www.monotype.com/studio";

glyphs = (
{
glyphname = .notdef;
lastChange = "2017-09-13 15:47:30 +0000";
layers = (
{
layerId = UUID0;
paths = (
{
closed = 1;
nodes = (
"505 0 LINE",
"505 714 LINE",
"94 714 LINE",
"94 0 LINE"
);
},
{
closed = 1;
nodes = (
"145 663 LINE",
"454 663 LINE",
"454 51 LINE",
"145 51 LINE"
);
}
);
width = 600;
}
);
},
{
glyphname = uniA880;
lastChange = "2017-09-13 15:47:30 +0000";
layers = (
{
layerId = UUID0;
paths = (
{
closed = 1;
nodes = (
"265 364 OFFCURVE",
"314 413 OFFCURVE",
"314 492 CURVE SMOOTH",
"314 572 OFFCURVE",
"266 619 OFFCURVE",
"189 619 CURVE SMOOTH",
"110 619 OFFCURVE",
"64 571 OFFCURVE",
"64 492 CURVE SMOOTH",
"64 413 OFFCURVE",
"112 364 OFFCURVE",
"189 364 CURVE SMOOTH"
);
},
{
closed = 1;
nodes = (
"151 428 OFFCURVE",
"132 449 OFFCURVE",
"132 491 CURVE SMOOTH",
"132 534 OFFCURVE",
"149 552 OFFCURVE",
"188 552 CURVE SMOOTH",
"228 552 OFFCURVE",
"245 534 OFFCURVE",
"245 491 CURVE SMOOTH",
"245 449 OFFCURVE",
"226 428 OFFCURVE",
"188 428 CURVE SMOOTH"
);
}
);
width = 377;
}
);
unicode = A880;
},
{
glyphname = uniA881;
lastChange = "2017-09-13 15:47:30 +0000";
layers = (
{
layerId = UUID0;
paths = (
{
closed = 1;
nodes = (
"265 364 OFFCURVE",
"314 413 OFFCURVE",
"314 492 CURVE SMOOTH",
"314 572 OFFCURVE",
"266 619 OFFCURVE",
"189 619 CURVE SMOOTH",
"110 619 OFFCURVE",
"64 571 OFFCURVE",
"64 492 CURVE SMOOTH",
"64 413 OFFCURVE",
"112 364 OFFCURVE",
"189 364 CURVE SMOOTH"
);
},
{
closed = 1;
nodes = (
"265 45 OFFCURVE",
"314 93 OFFCURVE",
"314 173 CURVE SMOOTH",
"314 252 OFFCURVE",
"266 300 OFFCURVE",
"189 300 CURVE SMOOTH",
"110 300 OFFCURVE",
"64 250 OFFCURVE",
"64 173 CURVE SMOOTH",
"64 93 OFFCURVE",
"113 45 OFFCURVE",
"189 45 CURVE SMOOTH"
);
},
{
closed = 1;
nodes = (
"151 109 OFFCURVE",
"132 130 OFFCURVE",
"132 172 CURVE SMOOTH",
"132 215 OFFCURVE",
"149 233 OFFCURVE",
"188 233 CURVE SMOOTH",
"228 233 OFFCURVE",
"245 215 OFFCURVE",
"245 172 CURVE SMOOTH",
"245 130 OFFCURVE",
"226 109 OFFCURVE",
"188 109 CURVE SMOOTH"
);
},
{
closed = 1;
nodes = (
"151 428 OFFCURVE",
"132 449 OFFCURVE",
"132 491 CURVE SMOOTH",
"132 534 OFFCURVE",
"149 552 OFFCURVE",
"188 552 CURVE SMOOTH",
"228 552 OFFCURVE",
"245 534 OFFCURVE",
"245 491 CURVE SMOOTH",
"245 449 OFFCURVE",
"226 428 OFFCURVE",
"188 428 CURVE SMOOTH"
);
}
);
width = 386;
}
);
unicode = A881;
},
{
glyphname = uniA882;
lastChange = "2017-09-13 15:47:30 +0000";
layers = (
{
layerId = UUID0;
paths = (
{
closed = 1;
nodes = (
"520 -9 OFFCURVE",
"606 49 OFFCURVE",
"606 165 CURVE SMOOTH",
"606 192 OFFCURVE",
"601 219 OFFCURVE",
"591 246 CURVE",
"516 222 LINE",
"523 209 OFFCURVE",
"527 195 OFFCURVE",
"527 174 CURVE SMOOTH",
"527 108 OFFCURVE",
"477 71 OFFCURVE",
"352 71 CURVE SMOOTH",
"242 71 OFFCURVE",
"154 87 OFFCURVE",
"154 179 CURVE SMOOTH",
"154 274 OFFCURVE",
"216 283 OFFCURVE",
"346 283 CURVE SMOOTH",
"408 283 LINE SMOOTH",
"561 283 OFFCURVE",
"632 350 OFFCURVE",
"632 486 CURVE SMOOTH",
"632 609 OFFCURVE",
"581 674 OFFCURVE",
"486 674 CURVE SMOOTH",
"425 674 OFFCURVE",
"374 642 OFFCURVE",
"357 594 CURVE",
"336 647 OFFCURVE",
"294 674 OFFCURVE",
"229 674 CURVE SMOOTH",
"138 674 OFFCURVE",
"79 613 OFFCURVE",
"79 520 CURVE SMOOTH",
"79 469 OFFCURVE",
"101 407 OFFCURVE",
"136 360 CURVE",
"199 399 LINE",
"174 432 OFFCURVE",
"155 483 OFFCURVE",
"155 516 CURVE SMOOTH",
"155 567 OFFCURVE",
"188 598 OFFCURVE",
"240 598 CURVE SMOOTH",
"299 598 OFFCURVE",
"324 566 OFFCURVE",
"324 502 CURVE SMOOTH",
"324 421 LINE",
"393 421 LINE",
"393 502 LINE SMOOTH",
"393 565 OFFCURVE",
"423 597 OFFCURVE",
"484 597 CURVE SMOOTH",
"538 597 OFFCURVE",
"565 561 OFFCURVE",
"565 488 CURVE SMOOTH",
"565 389 OFFCURVE",
"509 346 OFFCURVE",
"392 346 CURVE SMOOTH",
"346 346 LINE SMOOTH",
"176 346 OFFCURVE",
"77 330 OFFCURVE",
"77 184 CURVE SMOOTH",
"77 55 OFFCURVE",
"156 -9 OFFCURVE",
"349 -9 CURVE SMOOTH"
);
}
);
width = 682;
}
);
unicode = A882;
},
{
glyphname = uniA883;
lastChange = "2017-09-13 15:47:30 +0000";
layers = (
{
layerId = UUID0;
paths = (
{
closed = 1;
nodes = (
"429 -9 OFFCURVE",
"495 22 OFFCURVE",
"534 81 CURVE",
"561 28 OFFCURVE",
"603 1 OFFCURVE",
"661 1 CURVE SMOOTH",
"668 1 OFFCURVE",
"675 1 OFFCURVE",
"682 2 CURVE",
"673 81 LINE",
"665 81 LINE SMOOTH",
"606 81 OFFCURVE",
"577 108 OFFCURVE",
"576 163 CURVE SMOOTH",
"576 173 OFFCURVE",
"577 183 OFFCURVE",
"578 193 CURVE",
"507 202 LINE",
"492 118 OFFCURVE",
"428 71 OFFCURVE",
"315 71 CURVE SMOOTH",
"201 71 OFFCURVE",
"119 89 OFFCURVE",
"119 179 CURVE SMOOTH",
"119 273 OFFCURVE",
"199 283 OFFCURVE",
"329 283 CURVE SMOOTH",
"389 283 LINE SMOOTH",
"533 283 OFFCURVE",
"602 350 OFFCURVE",
"602 486 CURVE SMOOTH",
"602 614 OFFCURVE",
"551 674 OFFCURVE",
"455 674 CURVE SMOOTH",
"395 674 OFFCURVE",
"344 643 OFFCURVE",
"327 595 CURVE",
"306 648 OFFCURVE",
"264 675 OFFCURVE",
"199 675 CURVE SMOOTH",
"110 675 OFFCURVE",
"49 616 OFFCURVE",
"49 521 CURVE SMOOTH",
"49 469 OFFCURVE",
"74 404 OFFCURVE",
"106 360 CURVE",
"169 399 LINE",
"145 430 OFFCURVE",
"125 482 OFFCURVE",
"125 517 CURVE SMOOTH",
"125 568 OFFCURVE",
"158 599 OFFCURVE",
"210 599 CURVE SMOOTH",
"269 599 OFFCURVE",
"294 567 OFFCURVE",
"294 503 CURVE SMOOTH",
"294 421 LINE",
"363 421 LINE",
"363 503 LINE SMOOTH",
"363 566 OFFCURVE",
"393 598 OFFCURVE",
"454 598 CURVE SMOOTH",
"508 598 OFFCURVE",
"535 561 OFFCURVE",
"535 488 CURVE SMOOTH",
"535 389 OFFCURVE",
"484 346 OFFCURVE",
"373 346 CURVE SMOOTH",
"330 346 LINE SMOOTH",
"157 346 OFFCURVE",
"47 326 OFFCURVE",
"47 184 CURVE SMOOTH",
"47 52 OFFCURVE",
"123 -9 OFFCURVE",
"314 -9 CURVE SMOOTH"
);
}
);
width = 686;
}
);
unicode = A883;
},
{
glyphname = uniA884;
lastChange = "2017-09-13 15:47:30 +0000";
layers = (
{
layerId = UUID0;
paths = (
{
closed = 1;
nodes = (
"509 -10 OFFCURVE",
"646 71 OFFCURVE",
"646 213 CURVE SMOOTH",
"646 272 OFFCURVE",
"628 318 OFFCURVE",
"577 380 CURVE SMOOTH",
"552 411 OFFCURVE",
"532 435 OFFCURVE",
"515 453 CURVE SMOOTH",
"485 484 OFFCURVE",
"470 513 OFFCURVE",
"470 540 CURVE SMOOTH",
"470 573 OFFCURVE",
"491 594 OFFCURVE",
"528 594 CURVE SMOOTH",
"563 594 OFFCURVE",
"580 574 OFFCURVE",
"580 533 CURVE",
"656 545 LINE",
"652 626 OFFCURVE",
"607 673 OFFCURVE",
"528 673 CURVE SMOOTH",
"443 673 OFFCURVE",
"396 628 OFFCURVE",
"396 548 CURVE SMOOTH",
"396 485 OFFCURVE",
"438 437 OFFCURVE",
"482 385 CURVE SMOOTH",
"517 344 LINE SMOOTH",
"557 297 OFFCURVE",
"573 264 OFFCURVE",
"573 227 CURVE SMOOTH",
"573 127 OFFCURVE",
"481 71 OFFCURVE",
"336 71 CURVE SMOOTH",
"185 71 OFFCURVE",
"117 117 OFFCURVE",
"117 209 CURVE SMOOTH",
"117 293 OFFCURVE",
"178 332 OFFCURVE",
"330 332 CURVE",
"330 403 LINE",
"206 403 OFFCURVE",
"144 448 OFFCURVE",
"144 528 CURVE SMOOTH",
"144 571 OFFCURVE",
"171 595 OFFCURVE",
"214 595 CURVE SMOOTH",
"254 595 OFFCURVE",
"274 576 OFFCURVE",
"274 537 CURVE SMOOTH",
"274 533 LINE",
"348 533 LINE",
"349 538 OFFCURVE",
"349 542 OFFCURVE",
"349 547 CURVE SMOOTH",
"349 622 OFFCURVE",
"305 673 OFFCURVE",
"210 673 CURVE SMOOTH",
"125 673 OFFCURVE",
"68 617 OFFCURVE",
"68 529 CURVE SMOOTH",
"68 445 OFFCURVE",
"118 388 OFFCURVE",
"205 371 CURVE",
"98 363 OFFCURVE",
"42 306 OFFCURVE",
"42 205 CURVE SMOOTH",
"42 68 OFFCURVE",
"153 -10 OFFCURVE",
"337 -10 CURVE SMOOTH"
);
}
);
width = 705;
}
);
unicode = A884;
},
{
glyphname = uniA885;
lastChange = "2017-09-13 15:47:30 +0000";
layers = (
{
layerId = UUID0;
paths = (
{
closed = 1;
nodes = (
"518 -10 OFFCURVE",
"650 75 OFFCURVE",
"650 214 CURVE SMOOTH",
"650 288 OFFCURVE",
"620 331 OFFCURVE",
"562 397 CURVE",
"628 446 OFFCURVE",
"661 496 OFFCURVE",
"661 545 CURVE SMOOTH",
"661 622 OFFCURVE",
"605 675 OFFCURVE",
"526 675 CURVE SMOOTH",
"447 675 OFFCURVE",
"394 632 OFFCURVE",
"394 561 CURVE SMOOTH",
"394 504 OFFCURVE",
"421 454 OFFCURVE",
"486 383 CURVE SMOOTH",
"539 325 OFFCURVE",
"573 287 OFFCURVE",
"573 224 CURVE SMOOTH",
"573 130 OFFCURVE",
"470 71 OFFCURVE",
"339 71 CURVE SMOOTH",
"199 71 OFFCURVE",
"119 121 OFFCURVE",
"119 209 CURVE SMOOTH",
"119 292 OFFCURVE",
"178 331 OFFCURVE",
"331 331 CURVE",
"331 405 LINE",
"208 405 OFFCURVE",
"146 446 OFFCURVE",
"146 528 CURVE SMOOTH",
"146 571 OFFCURVE",
"175 596 OFFCURVE",
"218 596 CURVE SMOOTH",
"257 596 OFFCURVE",
"277 576 OFFCURVE",
"277 537 CURVE SMOOTH",
"277 533 LINE",
"352 533 LINE",
"352 540 LINE SMOOTH",
"352 625 OFFCURVE",
"301 675 OFFCURVE",
"214 675 CURVE SMOOTH",
"129 675 OFFCURVE",
"68 615 OFFCURVE",
"68 528 CURVE SMOOTH",
"68 448 OFFCURVE",
"120 388 OFFCURVE",
"209 371 CURVE",
"102 364 OFFCURVE",
"44 304 OFFCURVE",
"44 205 CURVE SMOOTH",
"44 68 OFFCURVE",
"155 -10 OFFCURVE",
"339 -10 CURVE SMOOTH"
);
},
{
closed = 1;
nodes = (
"488 485 OFFCURVE",
"472 517 OFFCURVE",
"472 544 CURVE SMOOTH",
"472 577 OFFCURVE",
"493 598 OFFCURVE",
"529 598 CURVE SMOOTH",
"561 598 OFFCURVE",
"585 577 OFFCURVE",
"585 546 CURVE SMOOTH",
"585 514 OFFCURVE",
"574 493 OFFCURVE",
"521 450 CURVE"
);
}
);
width = 707;
}
);
unicode = A885;
},
{
glyphname = uniA886;
lastChange = "2017-09-13 15:47:30 +0000";
layers = (
{
layerId = UUID0;
paths = (
{
closed = 1;
nodes = (
"514 -9 OFFCURVE",
"635 74 OFFCURVE",
"635 211 CURVE SMOOTH",
"635 320 OFFCURVE",
"571 389 OFFCURVE",
"457 389 CURVE SMOOTH",
"449 389 OFFCURVE",
"442 388 OFFCURVE",
"434 388 CURVE",
"473 409 OFFCURVE",
"495 448 OFFCURVE",
"495 503 CURVE SMOOTH",
"495 518 OFFCURVE",
"493 532 OFFCURVE",
"490 546 CURVE",
"504 548 OFFCURVE",
"518 549 OFFCURVE",
"533 549 CURVE SMOOTH",
"592 549 OFFCURVE",
"615 534 OFFCURVE",
"615 505 CURVE SMOOTH",
"615 487 OFFCURVE",
"601 474 OFFCURVE",
"572 465 CURVE",
"599 389 LINE",
"658 408 OFFCURVE",
"687 442 OFFCURVE",
"687 493 CURVE SMOOTH",
"687 572 OFFCURVE",
"630 612 OFFCURVE",
"529 612 CURVE SMOOTH",
"507 612 OFFCURVE",
"485 611 OFFCURVE",
"463 609 CURVE",
"414 654 OFFCURVE",
"352 677 OFFCURVE",
"277 677 CURVE SMOOTH",
"229 677 OFFCURVE",
"170 666 OFFCURVE",
"127 651 CURVE",
"151 579 LINE",
"200 599 OFFCURVE",
"247 609 OFFCURVE",
"294 609 CURVE SMOOTH",
"323 609 OFFCURVE",
"351 604 OFFCURVE",
"378 594 CURVE",
"271 575 OFFCURVE",
"187 537 OFFCURVE",
"124 480 CURVE SMOOTH",
"62 424 OFFCURVE",
"31 355 OFFCURVE",
"31 272 CURVE SMOOTH",
"31 95 OFFCURVE",
"164 -9 OFFCURVE",
"343 -9 CURVE SMOOTH"
);
},
{
closed = 1;
nodes = (
"196 71 OFFCURVE",
"105 148 OFFCURVE",
"105 272 CURVE SMOOTH",
"105 411 OFFCURVE",
"221 508 OFFCURVE",
"421 539 CURVE",
"424 530 OFFCURVE",
"425 519 OFFCURVE",
"425 504 CURVE SMOOTH",
"425 445 OFFCURVE",
"391 406 OFFCURVE",
"303 382 CURVE",
"324 309 LINE",
"355 320 OFFCURVE",
"398 328 OFFCURVE",
"425 328 CURVE SMOOTH",
"474 328 OFFCURVE",
"507 321 OFFCURVE",
"529 304 CURVE SMOOTH",
"552 286 OFFCURVE",
"563 251 OFFCURVE",
"563 211 CURVE SMOOTH",
"563 120 OFFCURVE",
"446 71 OFFCURVE",
"338 71 CURVE SMOOTH"
);
}
);
width = 716;
}
);
unicode = A886;
},
{
glyphname = uniA887;
lastChange = "2017-09-13 15:47:30 +0000";
layers = (
{
layerId = UUID0;
paths = (
{
closed = 1;
nodes = (
"507 -10 OFFCURVE",
"647 64 OFFCURVE",
"647 209 CURVE SMOOTH",
"647 324 OFFCURVE",
"582 393 OFFCURVE",
"469 393 CURVE SMOOTH",
"460 393 OFFCURVE",
"451 392 OFFCURVE",
"442 391 CURVE",
"479 414 OFFCURVE",
"501 455 OFFCURVE",
"501 506 CURVE SMOOTH",
"501 521 OFFCURVE",
"499 536 OFFCURVE",
"496 550 CURVE",
"510 551 OFFCURVE",
"524 552 OFFCURVE",
"538 552 CURVE SMOOTH",
"678 551 OFFCURVE",
"731 486 OFFCURVE",
"731 323 CURVE SMOOTH",
"731 0 LINE",
"812 0 LINE",
"812 323 LINE SMOOTH",
"812 528 OFFCURVE",
"723 624 OFFCURVE",
"532 624 CURVE SMOOTH",
"516 624 OFFCURVE",
"493 623 OFFCURVE",
"464 621 CURVE",
"416 660 OFFCURVE",
"361 677 OFFCURVE",
"285 677 CURVE SMOOTH",
"238 677 OFFCURVE",
"179 666 OFFCURVE",
"138 650 CURVE",
"161 580 LINE",
"212 600 OFFCURVE",
"260 610 OFFCURVE",
"305 610 CURVE SMOOTH",
"332 610 OFFCURVE",
"357 606 OFFCURVE",
"380 599 CURVE",
"190 556 OFFCURVE",
"51 436 OFFCURVE",
"51 254 CURVE SMOOTH",
"51 84 OFFCURVE",
"183 -10 OFFCURVE",
"357 -10 CURVE SMOOTH"
);
},
{
closed = 1;
nodes = (
"210 71 OFFCURVE",
"128 139 OFFCURVE",
"128 255 CURVE SMOOTH",
"128 408 OFFCURVE",
"264 517 OFFCURVE",
"423 540 CURVE",
"427 528 OFFCURVE",
"429 517 OFFCURVE",
"429 507 CURVE SMOOTH",
"429 443 OFFCURVE",
"391 407 OFFCURVE",
"310 386 CURVE",
"335 312 LINE",
"362 321 OFFCURVE",
"412 333 OFFCURVE",
"441 333 CURVE SMOOTH",
"534 333 OFFCURVE",
"574 293 OFFCURVE",
"574 217 CURVE SMOOTH",
"574 132 OFFCURVE",
"477 71 OFFCURVE",
"357 71 CURVE SMOOTH"
);
}
);
width = 864;
}
);
unicode = A887;
},
{
glyphname = uniA888;
lastChange = "2017-09-13 15:47:30 +0000";
layers = (
{
layerId = UUID0;
paths = (
{
closed = 1;
nodes = (
"631 -9 OFFCURVE",
"767 127 OFFCURVE",
"767 479 CURVE SMOOTH",
"767 529 OFFCURVE",
"763 591 OFFCURVE",
"756 665 CURVE",
"682 665 LINE",
"687 602 OFFCURVE",
"693 499 OFFCURVE",
"693 480 CURVE SMOOTH",
"693 183 OFFCURVE",
"569 70 OFFCURVE",
"324 70 CURVE SMOOTH",
"183 70 OFFCURVE",
"122 105 OFFCURVE",
"122 181 CURVE SMOOTH",
"122 242 OFFCURVE",
"161 266 OFFCURVE",
"270 266 CURVE SMOOTH",
"383 266 LINE SMOOTH",
"568 266 OFFCURVE",
"634 332 OFFCURVE",
"634 514 CURVE SMOOTH",
"634 609 OFFCURVE",
"594 673 OFFCURVE",
"519 673 CURVE SMOOTH",
"475 673 OFFCURVE",
"435 645 OFFCURVE",
"386 584 CURVE SMOOTH",
"333 519 OFFCURVE",
"293 476 OFFCURVE",
"269 457 CURVE SMOOTH",
"245 438 OFFCURVE",
"220 428 OFFCURVE",
"195 428 CURVE SMOOTH",
"138 428 OFFCURVE",
"109 461 OFFCURVE",
"109 528 CURVE SMOOTH",
"109 573 OFFCURVE",
"130 596 OFFCURVE",
"169 596 CURVE SMOOTH",
"209 596 OFFCURVE",
"218 574 OFFCURVE",
"218 541 CURVE SMOOTH",
"218 531 LINE",
"290 531 LINE",
"290 555 LINE SMOOTH",
"290 628 OFFCURVE",
"242 669 OFFCURVE",
"169 669 CURVE SMOOTH",
"90 669 OFFCURVE",
"35 614 OFFCURVE",
"35 529 CURVE SMOOTH",
"35 425 OFFCURVE",
"91 365 OFFCURVE",
"194 365 CURVE SMOOTH",
"247 365 OFFCURVE",
"285 383 OFFCURVE",
"325 415 CURVE SMOOTH",
"344 430 OFFCURVE",
"375 466 OFFCURVE",
"416 519 CURVE SMOOTH",
"455 570 OFFCURVE",
"480 594 OFFCURVE",
"507 594 CURVE SMOOTH",
"543 594 OFFCURVE",
"560 572 OFFCURVE",
"560 505 CURVE SMOOTH",
"560 376 OFFCURVE",
"505 330 OFFCURVE",
"369 330 CURVE SMOOTH",
"250 330 LINE SMOOTH",
"164 330 OFFCURVE",
"123 317 OFFCURVE",
"93 297 CURVE SMOOTH",
"57 273 OFFCURVE",
"48 215 OFFCURVE",
"48 182 CURVE SMOOTH",
"48 58 OFFCURVE",
"142 -9 OFFCURVE",
"326 -9 CURVE SMOOTH"
);
}
);
width = 830;
}
);
unicode = A888;
},
{
glyphname = uniA889;
lastChange = "2017-09-13 15:47:30 +0000";
layers = (
{
layerId = UUID0;
paths = (
{
closed = 1;
nodes = (
"390 -11 OFFCURVE",
"470 21 OFFCURVE",
"529 93 CURVE",
"548 25 OFFCURVE",
"591 -3 OFFCURVE",
"667 -3 CURVE SMOOTH",
"689 -3 LINE",
"679 76 LINE",
"666 76 LINE SMOOTH",
"607 76 OFFCURVE",
"577 108 OFFCURVE",
"577 172 CURVE SMOOTH",
"577 181 LINE",
"514 196 LINE",
"475 115 OFFCURVE",
"403 70 OFFCURVE",
"283 70 CURVE SMOOTH",
"164 70 OFFCURVE",
"117 102 OFFCURVE",
"117 181 CURVE SMOOTH",
"117 242 OFFCURVE",
"156 266 OFFCURVE",
"265 266 CURVE SMOOTH",
"378 266 LINE SMOOTH",
"569 266 OFFCURVE",
"629 340 OFFCURVE",
"629 509 CURVE SMOOTH",
"629 610 OFFCURVE",
"589 673 OFFCURVE",
"514 673 CURVE SMOOTH",
"470 673 OFFCURVE",
"432 647 OFFCURVE",
"381 584 CURVE SMOOTH",
"328 518 OFFCURVE",
"288 476 OFFCURVE",
"264 457 CURVE SMOOTH",
"241 438 OFFCURVE",
"216 428 OFFCURVE",
"190 428 CURVE SMOOTH",
"133 428 OFFCURVE",
"104 461 OFFCURVE",
"104 528 CURVE SMOOTH",
"104 573 OFFCURVE",
"125 596 OFFCURVE",
"164 596 CURVE SMOOTH",
"204 596 OFFCURVE",
"213 574 OFFCURVE",
"213 539 CURVE SMOOTH",
"213 531 LINE",
"285 531 LINE",
"285 552 LINE SMOOTH",
"285 625 OFFCURVE",
"239 669 OFFCURVE",
"164 669 CURVE SMOOTH",
"84 669 OFFCURVE",
"30 614 OFFCURVE",
"30 529 CURVE SMOOTH",
"30 425 OFFCURVE",
"85 365 OFFCURVE",
"189 365 CURVE SMOOTH",
"242 365 OFFCURVE",
"283 383 OFFCURVE",
"320 415 CURVE SMOOTH",
"339 432 OFFCURVE",
"370 466 OFFCURVE",
"411 519 CURVE SMOOTH",
"450 570 OFFCURVE",
"475 594 OFFCURVE",
"502 594 CURVE SMOOTH",
"538 594 OFFCURVE",
"555 572 OFFCURVE",
"555 505 CURVE SMOOTH",
"555 378 OFFCURVE",
"501 330 OFFCURVE",
"364 330 CURVE SMOOTH",
"251 330 LINE SMOOTH",
"157 330 OFFCURVE",
"105 317 OFFCURVE",
"76 286 CURVE SMOOTH",
"54 263 OFFCURVE",
"43 215 OFFCURVE",
"43 180 CURVE SMOOTH",
"43 52 OFFCURVE",
"123 -11 OFFCURVE",
"283 -11 CURVE SMOOTH"
);
}
);
width = 677;
}
);
unicode = A889;
},
{
glyphname = uniA88A;
lastChange = "2017-09-13 15:47:30 +0000";
layers = (
{
layerId = UUID0;
paths = (
{
closed = 1;
nodes = (
"704 -9 OFFCURVE",
"782 118 OFFCURVE",
"782 373 CURVE SMOOTH",
"782 568 OFFCURVE",
"711 673 OFFCURVE",
"590 673 CURVE SMOOTH",
"499 673 OFFCURVE",
"440 628 OFFCURVE",
"412 538 CURVE",
"409 537 LINE",
"388 628 OFFCURVE",
"332 673 OFFCURVE",
"240 673 CURVE SMOOTH",
"109 673 OFFCURVE",
"41 565 OFFCURVE",
"41 372 CURVE SMOOTH",
"41 132 OFFCURVE",
"130 -2 OFFCURVE",
"297 -5 CURVE",
"297 78 LINE",
"176 81 OFFCURVE",
"117 172 OFFCURVE",
"117 373 CURVE SMOOTH",
"117 520 OFFCURVE",
"161 593 OFFCURVE",
"248 593 CURVE SMOOTH",
"333 593 OFFCURVE",
"372 516 OFFCURVE",
"373 349 CURVE",
"450 349 LINE",
"452 509 OFFCURVE",
"489 593 OFFCURVE",
"585 593 CURVE SMOOTH",
"670 593 OFFCURVE",
"709 516 OFFCURVE",
"709 373 CURVE SMOOTH",
"709 177 OFFCURVE",
"650 71 OFFCURVE",
"539 71 CURVE SMOOTH",
"486 71 OFFCURVE",
"457 92 OFFCURVE",
"457 128 CURVE SMOOTH",
"457 164 OFFCURVE",
"477 182 OFFCURVE",
"537 182 CURVE SMOOTH",
"580 182 LINE",
"590 251 LINE",
"318 251 LINE",
"308 182 LINE",
"415 182 LINE",
"398 165 OFFCURVE",
"389 145 OFFCURVE",
"389 117 CURVE SMOOTH",
"389 34 OFFCURVE",
"466 -9 OFFCURVE",
"548 -9 CURVE SMOOTH"
);
}
);
width = 827;
}
);
unicode = A88A;
},
{
glyphname = uniA88B;
lastChange = "2017-09-13 15:47:30 +0000";
layers = (
{
layerId = UUID0;
paths = (
{
closed = 1;
nodes = (
"629 -251 OFFCURVE",
"690 -204 OFFCURVE",
"690 -120 CURVE SMOOTH",
"690 -60 OFFCURVE",
"657 -15 OFFCURVE",
"597 -3 CURVE",
"717 22 OFFCURVE",
"782 156 OFFCURVE",
"782 373 CURVE SMOOTH",
"782 568 OFFCURVE",
"711 673 OFFCURVE",
"590 673 CURVE SMOOTH",
"499 673 OFFCURVE",
"440 628 OFFCURVE",
"412 538 CURVE",
"409 537 LINE",
"388 628 OFFCURVE",
"332 673 OFFCURVE",
"240 673 CURVE SMOOTH",
"109 673 OFFCURVE",
"41 565 OFFCURVE",
"41 372 CURVE SMOOTH",
"41 132 OFFCURVE",
"130 -2 OFFCURVE",
"297 -5 CURVE",
"297 78 LINE",
"176 81 OFFCURVE",
"117 172 OFFCURVE",
"117 373 CURVE SMOOTH",
"117 520 OFFCURVE",
"161 593 OFFCURVE",
"248 593 CURVE SMOOTH",
"333 593 OFFCURVE",
"372 516 OFFCURVE",
"373 349 CURVE",
"450 349 LINE",
"452 509 OFFCURVE",
"489 593 OFFCURVE",
"585 593 CURVE SMOOTH",
"670 593 OFFCURVE",
"709 516 OFFCURVE",
"709 373 CURVE SMOOTH",
"709 176 OFFCURVE",
"650 64 OFFCURVE",
"539 64 CURVE SMOOTH",
"490 64 OFFCURVE",
"457 91 OFFCURVE",
"457 128 CURVE SMOOTH",
"457 164 OFFCURVE",
"477 182 OFFCURVE",
"537 182 CURVE SMOOTH",
"580 182 LINE",
"590 251 LINE",
"318 251 LINE",
"308 182 LINE",
"415 182 LINE",
"398 165 OFFCURVE",
"389 145 OFFCURVE",
"389 122 CURVE SMOOTH",
"389 51 OFFCURVE",
"437 4 OFFCURVE",
"518 -7 CURVE",
"466 -22 OFFCURVE",
"450 -59 OFFCURVE",
"450 -94 CURVE SMOOTH",
"450 -100 OFFCURVE",
"450 -106 OFFCURVE",
"451 -112 CURVE",
"522 -112 LINE",
"521 -109 OFFCURVE",
"521 -107 OFFCURVE",
"521 -104 CURVE SMOOTH",
"521 -77 OFFCURVE",
"539 -59 OFFCURVE",
"566 -59 CURVE SMOOTH",
"594 -59 OFFCURVE",
"612 -78 OFFCURVE",
"612 -111 CURVE SMOOTH",
"612 -158 OFFCURVE",
"576 -184 OFFCURVE",
"519 -184 CURVE SMOOTH",
"454 -184 OFFCURVE",
"380 -144 OFFCURVE",
"313 -68 CURVE",
"262 -117 LINE",
"342 -206 OFFCURVE",
"429 -251 OFFCURVE",
"522 -251 CURVE SMOOTH"
);
}
);
width = 830;
}
);
unicode = A88B;
},
{
glyphname = uniA88C;
lastChange = "2017-09-13 15:47:30 +0000";
layers = (
{
layerId = UUID0;
paths = (
{
closed = 1;
nodes = (
"440 -10 OFFCURVE",
"515 45 OFFCURVE",
"515 134 CURVE SMOOTH",
"515 143 OFFCURVE",
"513 161 OFFCURVE",
"508 186 CURVE",
"597 215 OFFCURVE",
"640 275 OFFCURVE",
"640 348 CURVE SMOOTH",
"640 422 OFFCURVE",
"584 472 OFFCURVE",
"515 472 CURVE SMOOTH",
"438 472 OFFCURVE",
"388 433 OFFCURVE",
"388 364 CURVE SMOOTH",
"388 324 OFFCURVE",
"401 283 OFFCURVE",
"416 243 CURVE",
"376 244 OFFCURVE",
"360 250 OFFCURVE",
"345 261 CURVE SMOOTH",
"325 275 OFFCURVE",
"319 326 OFFCURVE",
"319 374 CURVE SMOOTH",
"319 466 LINE",
"238 460 LINE",
"238 363 LINE SMOOTH",
"238 300 OFFCURVE",
"249 232 OFFCURVE",
"301 202 CURVE SMOOTH",
"331 185 OFFCURVE",
"372 177 OFFCURVE",
"433 177 CURVE",
"436 163 OFFCURVE",
"438 150 OFFCURVE",
"438 138 CURVE SMOOTH",
"438 94 OFFCURVE",
"393 68 OFFCURVE",
"316 68 CURVE SMOOTH",
"190 68 OFFCURVE",
"113 175 OFFCURVE",
"113 332 CURVE SMOOTH",
"113 501 OFFCURVE",
"203 603 OFFCURVE",
"362 603 CURVE SMOOTH",
"437 603 OFFCURVE",
"512 571 OFFCURVE",
"572 506 CURVE",
"624 554 LINE",
"552 634 OFFCURVE",
"456 677 OFFCURVE",
"355 677 CURVE SMOOTH",
"161 677 OFFCURVE",
"40 550 OFFCURVE",
"40 331 CURVE SMOOTH",
"40 129 OFFCURVE",
"146 -10 OFFCURVE",
"320 -10 CURVE SMOOTH"
);
},
{
closed = 1;
nodes = (
"473 299 OFFCURVE",
"464 327 OFFCURVE",
"464 354 CURVE SMOOTH",
"464 385 OFFCURVE",
"484 402 OFFCURVE",
"517 402 CURVE SMOOTH",
"549 402 OFFCURVE",
"565 384 OFFCURVE",
"565 348 CURVE SMOOTH",
"565 308 OFFCURVE",
"535 271 OFFCURVE",
"488 252 CURVE"
);
}
);
width = 684;
}
);
unicode = A88C;
},
{
glyphname = uniA88D;
lastChange = "2017-09-13 15:47:30 +0000";
layers = (
{
layerId = UUID0;
paths = (
{
closed = 1;
nodes = (
"416 -11 OFFCURVE",
"496 51 OFFCURVE",
"496 152 CURVE SMOOTH",
"496 162 OFFCURVE",
"495 173 OFFCURVE",
"493 186 CURVE",
"577 211 OFFCURVE",
"630 273 OFFCURVE",
"630 348 CURVE SMOOTH",
"630 424 OFFCURVE",
"574 471 OFFCURVE",
"506 471 CURVE SMOOTH",
"427 471 OFFCURVE",
"379 432 OFFCURVE",
"379 364 CURVE SMOOTH",
"379 324 OFFCURVE",
"393 283 OFFCURVE",
"408 243 CURVE",
"361 245 OFFCURVE",
"340 250 OFFCURVE",
"325 273 CURVE SMOOTH",
"313 291 OFFCURVE",
"309 331 OFFCURVE",
"309 374 CURVE SMOOTH",
"309 466 LINE",
"230 460 LINE",
"230 355 LINE SMOOTH",
"230 292 OFFCURVE",
"244 246 OFFCURVE",
"272 218 CURVE SMOOTH",
"300 190 OFFCURVE",
"342 177 OFFCURVE",
"425 177 CURVE",
"426 170 OFFCURVE",
"426 164 OFFCURVE",
"426 157 CURVE SMOOTH",
"426 102 OFFCURVE",
"374 67 OFFCURVE",
"305 67 CURVE SMOOTH",
"196 67 OFFCURVE",
"128 151 OFFCURVE",
"128 276 CURVE SMOOTH",
"128 480 OFFCURVE",
"256 605 OFFCURVE",
"456 605 CURVE SMOOTH",
"607 605 OFFCURVE",
"687 519 OFFCURVE",
"687 359 CURVE SMOOTH",
"687 0 LINE",
"768 0 LINE",
"768 359 LINE SMOOTH",
"768 563 OFFCURVE",
"653 681 OFFCURVE",
"458 681 CURVE SMOOTH",
"227 681 OFFCURVE",
"55 520 OFFCURVE",
"55 282 CURVE SMOOTH",
"55 110 OFFCURVE",
"149 -11 OFFCURVE",
"305 -11 CURVE SMOOTH"
);
},
{
closed = 1;
nodes = (
"463 299 OFFCURVE",
"454 327 OFFCURVE",
"454 354 CURVE SMOOTH",
"454 383 OFFCURVE",
"474 402 OFFCURVE",
"507 402 CURVE SMOOTH",
"539 402 OFFCURVE",
"555 384 OFFCURVE",
"555 348 CURVE SMOOTH",
"555 308 OFFCURVE",
"525 271 OFFCURVE",
"478 252 CURVE"
);
}
);
width = 841;
}
);
unicode = A88D;
},
{
glyphname = uniA88E;
lastChange = "2017-09-13 15:47:30 +0000";
layers = (
{
layerId = UUID0;
paths = (
{
closed = 1;
nodes = (
"452 -11 OFFCURVE",
"583 34 OFFCURVE",
"583 138 CURVE SMOOTH",
"583 153 OFFCURVE",
"581 169 OFFCURVE",
"577 186 CURVE",
"657 211 OFFCURVE",
"700 268 OFFCURVE",
"700 348 CURVE SMOOTH",
"700 422 OFFCURVE",
"648 472 OFFCURVE",
"581 472 CURVE SMOOTH",
"514 472 OFFCURVE",
"463 433 OFFCURVE",
"463 364 CURVE SMOOTH",
"463 326 OFFCURVE",
"470 285 OFFCURVE",
"485 242 CURVE",
"476 241 OFFCURVE",
"466 240 OFFCURVE",
"457 240 CURVE SMOOTH",
"414 241 OFFCURVE",
"404 267 OFFCURVE",
"404 344 CURVE SMOOTH",
"404 466 LINE",
"326 460 LINE",
"326 335 LINE SMOOTH",
"326 296 OFFCURVE",
"331 265 OFFCURVE",
"340 243 CURVE",
"328 241 OFFCURVE",
"317 240 OFFCURVE",
"308 240 CURVE SMOOTH",
"263 240 OFFCURVE",
"251 267 OFFCURVE",
"251 354 CURVE SMOOTH",
"251 456 LINE",
"173 450 LINE",
"173 325 LINE SMOOTH",
"173 224 OFFCURVE",
"210 175 OFFCURVE",
"297 175 CURVE SMOOTH",
"323 175 OFFCURVE",
"352 180 OFFCURVE",
"385 190 CURVE",
"404 180 OFFCURVE",
"436 175 OFFCURVE",
"461 175 CURVE SMOOTH",
"476 175 OFFCURVE",
"492 176 OFFCURVE",
"507 177 CURVE",
"510 165 OFFCURVE",
"512 154 OFFCURVE",
"512 146 CURVE SMOOTH",
"512 97 OFFCURVE",
"434 63 OFFCURVE",
"339 63 CURVE SMOOTH",
"183 63 OFFCURVE",
"93 161 OFFCURVE",
"93 337 CURVE SMOOTH",
"93 508 OFFCURVE",
"193 606 OFFCURVE",
"362 606 CURVE SMOOTH",
"450 606 OFFCURVE",
"540 571 OFFCURVE",
"592 515 CURVE",
"641 567 LINE",
"569 640 OFFCURVE",
"467 680 OFFCURVE",
"355 680 CURVE SMOOTH",
"158 680 OFFCURVE",
"19 548 OFFCURVE",
"19 335 CURVE SMOOTH",
"19 133 OFFCURVE",
"151 -11 OFFCURVE",
"340 -11 CURVE SMOOTH"
);
},
{
closed = 1;
nodes = (
"544 291 OFFCURVE",
"538 325 OFFCURVE",
"538 354 CURVE SMOOTH",
"538 387 OFFCURVE",
"553 403 OFFCURVE",
"583 403 CURVE SMOOTH",
"611 403 OFFCURVE",
"625 385 OFFCURVE",
"625 348 CURVE SMOOTH",
"625 308 OFFCURVE",
"604 271 OFFCURVE",
"557 252 CURVE"
);
}
);
width = 735;
}
);
unicode = A88E;
},
{
glyphname = uniA88F;
lastChange = "2017-09-13 15:47:30 +0000";
layers = (
{
layerId = UUID0;
paths = (
{
closed = 1;
nodes = (
"491 -12 OFFCURVE",
"576 49 OFFCURVE",
"576 154 CURVE SMOOTH",
"576 229 OFFCURVE",
"530 269 OFFCURVE",
"438 269 CURVE",
"438 273 LINE",
"514 282 OFFCURVE",
"547 318 OFFCURVE",
"547 398 CURVE SMOOTH",
"547 478 OFFCURVE",
"486 528 OFFCURVE",
"390 528 CURVE SMOOTH",
"298 528 OFFCURVE",
"234 479 OFFCURVE",
"229 399 CURVE",
"308 391 LINE",
"313 435 OFFCURVE",
"340 457 OFFCURVE",
"390 457 CURVE SMOOTH",
"445 457 OFFCURVE",
"473 435 OFFCURVE",
"473 392 CURVE SMOOTH",
"473 363 OFFCURVE",
"461 341 OFFCURVE",
"438 328 CURVE SMOOTH",
"415 315 OFFCURVE",
"373 309 OFFCURVE",
"309 308 CURVE",
"309 237 LINE",
"370 237 OFFCURVE",
"412 235 OFFCURVE",
"435 231 CURVE SMOOTH",
"479 223 OFFCURVE",
"497 206 OFFCURVE",
"497 162 CURVE SMOOTH",
"497 102 OFFCURVE",
"445 68 OFFCURVE",
"345 68 CURVE SMOOTH",
"197 68 OFFCURVE",
"115 163 OFFCURVE",
"115 336 CURVE SMOOTH",
"115 508 OFFCURVE",
"210 609 OFFCURVE",
"358 609 CURVE SMOOTH",
"431 609 OFFCURVE",
"486 590 OFFCURVE",
"539 549 CURVE",
"582 612 LINE",
"519 661 OFFCURVE",
"443 685 OFFCURVE",
"354 685 CURVE SMOOTH",
"165 685 OFFCURVE",
"41 555 OFFCURVE",
"41 334 CURVE SMOOTH",
"41 115 OFFCURVE",
"160 -12 OFFCURVE",
"348 -12 CURVE SMOOTH"
);
}
);
width = 636;
}
);
unicode = A88F;
},
{
glyphname = uniA890;
lastChange = "2017-09-13 15:47:30 +0000";
layers = (
{
layerId = UUID0;
paths = (
{
closed = 1;
nodes = (
"498 -9 OFFCURVE",
"587 51 OFFCURVE",
"587 151 CURVE SMOOTH",
"587 231 OFFCURVE",
"548 269 OFFCURVE",
"453 269 CURVE",
"453 273 LINE",
"522 281 OFFCURVE",
"557 319 OFFCURVE",
"557 398 CURVE SMOOTH",
"557 478 OFFCURVE",
"495 528 OFFCURVE",
"400 528 CURVE SMOOTH",
"309 528 OFFCURVE",
"246 479 OFFCURVE",
"239 399 CURVE",
"318 391 LINE",
"324 435 OFFCURVE",
"351 457 OFFCURVE",
"400 457 CURVE SMOOTH",
"455 457 OFFCURVE",
"483 436 OFFCURVE",
"483 393 CURVE SMOOTH",
"483 319 OFFCURVE",
"426 312 OFFCURVE",
"326 309 CURVE",
"326 236 LINE",
"385 235 OFFCURVE",
"426 232 OFFCURVE",
"447 228 CURVE SMOOTH",
"490 220 OFFCURVE",
"507 198 OFFCURVE",
"507 155 CURVE SMOOTH",
"507 102 OFFCURVE",
"449 71 OFFCURVE",
"353 71 CURVE SMOOTH",
"214 71 OFFCURVE",
"128 165 OFFCURVE",
"128 303 CURVE SMOOTH",
"128 382 OFFCURVE",
"147 445 OFFCURVE",
"200 505 CURVE SMOOTH",
"254 567 OFFCURVE",
"338 605 OFFCURVE",
"432 605 CURVE SMOOTH",
"581 605 OFFCURVE",
"659 526 OFFCURVE",
"659 373 CURVE SMOOTH",
"659 0 LINE",
"740 0 LINE",
"740 373 LINE SMOOTH",
"740 572 OFFCURVE",
"636 680 OFFCURVE",
"437 680 CURVE SMOOTH",
"221 680 OFFCURVE",
"54 534 OFFCURVE",
"54 303 CURVE SMOOTH",
"54 115 OFFCURVE",
"179 -9 OFFCURVE",
"354 -9 CURVE SMOOTH"
);
}
);
width = 807;
}
);
unicode = A890;
},
{
glyphname = uniA891;
lastChange = "2017-09-13 15:47:30 +0000";
layers = (
{
layerId = UUID0;
paths = (
{
closed = 1;
nodes = (
"491 -12 OFFCURVE",
"576 49 OFFCURVE",
"576 154 CURVE SMOOTH",
"576 164 OFFCURVE",
"575 175 OFFCURVE",
"572 187 CURVE",
"603 192 OFFCURVE",
"638 202 OFFCURVE",
"678 217 CURVE",
"702 185 OFFCURVE",
"714 160 OFFCURVE",
"714 141 CURVE SMOOTH",
"714 114 OFFCURVE",
"701 94 OFFCURVE",
"645 63 CURVE",
"687 -2 LINE",
"750 29 OFFCURVE",
"785 79 OFFCURVE",
"785 132 CURVE SMOOTH",
"785 166 OFFCURVE",
"767 207 OFFCURVE",
"732 255 CURVE",
"767 286 OFFCURVE",
"791 323 OFFCURVE",
"791 376 CURVE SMOOTH",
"791 431 OFFCURVE",
"750 466 OFFCURVE",
"695 466 CURVE SMOOTH",
"636 466 OFFCURVE",
"597 432 OFFCURVE",
"597 376 CURVE SMOOTH",
"597 347 OFFCURVE",
"609 317 OFFCURVE",
"644 270 CURVE",
"617 257 OFFCURVE",
"579 249 OFFCURVE",
"530 248 CURVE",
"509 262 OFFCURVE",
"478 269 OFFCURVE",
"438 269 CURVE",
"439 272 LINE",
"514 281 OFFCURVE",
"547 317 OFFCURVE",
"547 398 CURVE SMOOTH",
"547 478 OFFCURVE",
"486 528 OFFCURVE",
"390 528 CURVE SMOOTH",
"298 528 OFFCURVE",
"234 479 OFFCURVE",
"229 399 CURVE",
"308 391 LINE",
"313 435 OFFCURVE",
"340 457 OFFCURVE",
"390 457 CURVE SMOOTH",
"445 457 OFFCURVE",
"473 435 OFFCURVE",
"473 392 CURVE SMOOTH",
"473 318 OFFCURVE",
"405 310 OFFCURVE",
"309 308 CURVE",
"309 237 LINE",
"370 237 OFFCURVE",
"412 235 OFFCURVE",
"435 231 CURVE SMOOTH",
"479 223 OFFCURVE",
"497 206 OFFCURVE",
"497 162 CURVE SMOOTH",
"497 102 OFFCURVE",
"445 68 OFFCURVE",
"345 68 CURVE SMOOTH",
"197 68 OFFCURVE",
"115 163 OFFCURVE",
"115 336 CURVE SMOOTH",
"115 508 OFFCURVE",
"210 609 OFFCURVE",
"358 609 CURVE SMOOTH",
"431 609 OFFCURVE",
"486 590 OFFCURVE",
"539 549 CURVE",
"582 612 LINE",
"519 661 OFFCURVE",
"443 685 OFFCURVE",
"354 685 CURVE SMOOTH",
"165 685 OFFCURVE",
"41 555 OFFCURVE",
"41 334 CURVE SMOOTH",
"41 115 OFFCURVE",
"160 -12 OFFCURVE",
"348 -12 CURVE SMOOTH"
);
},
{
closed = 1;
nodes = (
"675 328 OFFCURVE",
"663 348 OFFCURVE",
"663 373 CURVE SMOOTH",
"663 390 OFFCURVE",
"676 403 OFFCURVE",
"695 403 CURVE SMOOTH",
"714 403 OFFCURVE",
"727 393 OFFCURVE",
"727 373 CURVE SMOOTH",
"727 351 OFFCURVE",
"716 328 OFFCURVE",
"694 303 CURVE"
);
}
);
width = 827;
}
);
unicode = A891;
},
{
glyphname = uniA892;
lastChange = "2017-09-13 15:47:50 +0000";
layers = (
{
layerId = UUID0;
paths = (
{
closed = 1;
nodes = (
"554 60 OFFCURVE",
"570 282 OFFCURVE",
"570 369 CURVE SMOOTH",
"570 483 OFFCURVE",
"567 579 OFFCURVE",
"535 626 CURVE SMOOTH",
"517 652 OFFCURVE",
"490 667 OFFCURVE",
"450 667 CURVE SMOOTH",
"415 667 OFFCURVE",
"373 641 OFFCURVE",
"312 593 CURVE SMOOTH",
"260 552 LINE",
"260 625 OFFCURVE",
"215 672 OFFCURVE",
"147 672 CURVE SMOOTH",
"66 672 OFFCURVE",
"21 625 OFFCURVE",
"21 548 CURVE SMOOTH",
"21 463 OFFCURVE",
"68 416 OFFCURVE",
"149 416 CURVE SMOOTH",
"163 416 OFFCURVE",
"177 418 OFFCURVE",
"190 423 CURVE",
"190 0 LINE",
"265 0 LINE",
"265 467 LINE",
"321 514 OFFCURVE",
"357 543 OFFCURVE",
"372 554 CURVE SMOOTH",
"393 570 OFFCURVE",
"421 586 OFFCURVE",
"446 586 CURVE SMOOTH",
"464 586 OFFCURVE",
"477 571 OFFCURVE",
"485 542 CURVE SMOOTH",
"493 513 OFFCURVE",
"498 456 OFFCURVE",
"498 369 CURVE SMOOTH",
"498 276 OFFCURVE",
"485 78 OFFCURVE",
"469 6 CURVE",
"539 -8 LINE"
);
},
{
closed = 1;
nodes = (
"110 488 OFFCURVE",
"93 509 OFFCURVE",
"93 552 CURVE SMOOTH",
"93 577 OFFCURVE",
"108 600 OFFCURVE",
"143 600 CURVE SMOOTH",
"179 600 OFFCURVE",
"190 576 OFFCURVE",
"190 525 CURVE SMOOTH",
"190 499 LINE",
"175 492 OFFCURVE",
"161 488 OFFCURVE",
"149 488 CURVE SMOOTH"
);
}
);
width = 620;
}
);
unicode = A892;
},
{
glyphname = uniA893;
lastChange = "2017-09-13 15:47:50 +0000";
layers = (
{
layerId = UUID0;
paths = (
{
closed = 1;
nodes = (
"211 -10 OFFCURVE",
"313 55 OFFCURVE",
"384 154 CURVE SMOOTH",
"432 221 OFFCURVE",
"467 296 OFFCURVE",
"491 415 CURVE",
"505 415 OFFCURVE",
"519 414 OFFCURVE",
"533 414 CURVE SMOOTH",
"564 414 OFFCURVE",
"587 415 OFFCURVE",
"604 418 CURVE",
"633 349 OFFCURVE",
"651 304 OFFCURVE",
"658 283 CURVE SMOOTH",
"668 255 OFFCURVE",
"678 214 OFFCURVE",
"678 184 CURVE SMOOTH",
"678 133 OFFCURVE",
"650 93 OFFCURVE",
"589 76 CURVE",
"605 -6 LINE",
"694 13 OFFCURVE",
"754 86 OFFCURVE",
"754 174 CURVE SMOOTH",
"754 225 OFFCURVE",
"735 291 OFFCURVE",
"700 372 CURVE SMOOTH",
"673 434 LINE",
"738 458 OFFCURVE",
"781 501 OFFCURVE",
"781 565 CURVE SMOOTH",
"781 629 OFFCURVE",
"737 670 OFFCURVE",
"676 670 CURVE SMOOTH",
"601 670 OFFCURVE",
"560 628 OFFCURVE",
"560 553 CURVE SMOOTH",
"560 530 OFFCURVE",
"565 505 OFFCURVE",
"574 480 CURVE",
"565 479 OFFCURVE",
"552 478 OFFCURVE",
"534 478 CURVE SMOOTH",
"523 478 OFFCURVE",
"511 478 OFFCURVE",
"500 479 CURVE",
"501 494 OFFCURVE",
"502 509 OFFCURVE",
"502 524 CURVE SMOOTH",
"501 616 OFFCURVE",
"464 672 OFFCURVE",
"384 672 CURVE SMOOTH",
"321 672 OFFCURVE",
"274 629 OFFCURVE",
"274 565 CURVE SMOOTH",
"274 490 OFFCURVE",
"328 443 OFFCURVE",
"423 424 CURVE",
"403 329 OFFCURVE",
"362 241 OFFCURVE",
"310 176 CURVE SMOOTH",
"258 112 OFFCURVE",
"195 71 OFFCURVE",
"148 71 CURVE SMOOTH",
"131 71 OFFCURVE",
"122 78 OFFCURVE",
"122 92 CURVE SMOOTH",
"122 103 OFFCURVE",
"138 154 OFFCURVE",
"153 190 CURVE SMOOTH",
"218 346 OFFCURVE",
"240 434 OFFCURVE",
"240 499 CURVE SMOOTH",
"240 535 OFFCURVE",
"226 563 OFFCURVE",
"189 592 CURVE SMOOTH",
"82 678 LINE",
"35 619 LINE",
"149 530 LINE SMOOTH",
"162 520 OFFCURVE",
"168 508 OFFCURVE",
"168 489 CURVE SMOOTH",
"168 427 OFFCURVE",
"125 316 OFFCURVE",
"85 215 CURVE SMOOTH",
"72 182 OFFCURVE",
"39 95 OFFCURVE",
"39 69 CURVE SMOOTH",
"39 18 OFFCURVE",
"75 -10 OFFCURVE",
"132 -10 CURVE SMOOTH"
);
},
{
closed = 1;
nodes = (
"376 504 OFFCURVE",
"347 533 OFFCURVE",
"347 566 CURVE SMOOTH",
"347 587 OFFCURVE",
"367 603 OFFCURVE",
"386 603 CURVE SMOOTH",
"418 603 OFFCURVE",
"434 576 OFFCURVE",
"434 522 CURVE SMOOTH",
"434 510 OFFCURVE",
"433 499 OFFCURVE",
"432 489 CURVE"
);
},
{
closed = 1;
nodes = (
"632 514 OFFCURVE",
"628 533 OFFCURVE",
"628 550 CURVE SMOOTH",
"628 582 OFFCURVE",
"643 601 OFFCURVE",
"674 601 CURVE SMOOTH",
"695 601 OFFCURVE",
"708 586 OFFCURVE",
"708 565 CURVE SMOOTH",
"708 534 OFFCURVE",
"684 510 OFFCURVE",
"639 495 CURVE"
);
}
);
width = 829;
}
);
unicode = A893;
},
{
glyphname = uniA894;
lastChange = "2017-09-13 15:47:50 +0000";
layers = (
{
layerId = UUID0;
paths = (
{
closed = 1;
nodes = (
"644 78 OFFCURVE",
"681 205 OFFCURVE",
"681 342 CURVE SMOOTH",
"681 550 OFFCURVE",
"617 672 OFFCURVE",
"508 672 CURVE SMOOTH",
"378 672 OFFCURVE",
"340 606 OFFCURVE",
"336 428 CURVE",
"336 246 LINE SMOOTH",
"336 120 OFFCURVE",
"310 70 OFFCURVE",
"244 70 CURVE SMOOTH",
"173 70 OFFCURVE",
"135 160 OFFCURVE",
"135 324 CURVE SMOOTH",
"135 439 OFFCURVE",
"164 533 OFFCURVE",
"247 629 CURVE",
"190 678 LINE",
"103 585 OFFCURVE",
"60 463 OFFCURVE",
"60 324 CURVE SMOOTH",
"60 108 OFFCURVE",
"125 -9 OFFCURVE",
"244 -9 CURVE SMOOTH",
"375 -9 OFFCURVE",
"410 70 OFFCURVE",
"410 250 CURVE SMOOTH",
"410 428 LINE SMOOTH",
"410 539 OFFCURVE",
"428 594 OFFCURVE",
"502 594 CURVE SMOOTH",
"570 594 OFFCURVE",
"607 502 OFFCURVE",
"607 342 CURVE SMOOTH",
"607 244 OFFCURVE",
"564 112 OFFCURVE",
"505 32 CURVE",
"577 -15 LINE"
);
}
);
width = 734;
}
);
unicode = A894;
},
{
glyphname = uniA895;
lastChange = "2017-09-13 15:47:50 +0000";
layers = (
{
layerId = UUID0;
paths = (
{
closed = 1;
nodes = (
"471 -11 OFFCURVE",
"579 88 OFFCURVE",
"622 292 CURVE",
"667 263 OFFCURVE",
"689 225 OFFCURVE",
"689 179 CURVE SMOOTH",
"689 140 OFFCURVE",
"656 96 OFFCURVE",
"611 61 CURVE",
"671 2 LINE",
"732 51 OFFCURVE",
"763 107 OFFCURVE",
"763 170 CURVE SMOOTH",
"763 250 OFFCURVE",
"722 301 OFFCURVE",
"643 366 CURVE",
"659 431 OFFCURVE",
"667 480 OFFCURVE",
"667 515 CURVE SMOOTH",
"667 616 OFFCURVE",
"615 674 OFFCURVE",
"522 674 CURVE SMOOTH",
"445 674 OFFCURVE",
"386 620 OFFCURVE",
"386 540 CURVE SMOOTH",
"386 440 OFFCURVE",
"472 391 OFFCURVE",
"562 338 CURVE",
"521 153 OFFCURVE",
"436 69 OFFCURVE",
"293 69 CURVE SMOOTH",
"178 69 OFFCURVE",
"115 119 OFFCURVE",
"115 202 CURVE SMOOTH",
"115 241 OFFCURVE",
"130 287 OFFCURVE",
"161 304 CURVE SMOOTH",
"192 321 OFFCURVE",
"221 332 OFFCURVE",
"320 333 CURVE",
"320 401 LINE",
"195 401 OFFCURVE",
"132 448 OFFCURVE",
"132 529 CURVE SMOOTH",
"132 572 OFFCURVE",
"156 597 OFFCURVE",
"203 597 CURVE SMOOTH",
"244 597 OFFCURVE",
"264 581 OFFCURVE",
"264 533 CURVE",
"337 533 LINE",
"337 539 OFFCURVE",
"338 544 OFFCURVE",
"338 550 CURVE SMOOTH",
"338 625 OFFCURVE",
"288 672 OFFCURVE",
"204 672 CURVE SMOOTH",
"120 672 OFFCURVE",
"57 617 OFFCURVE",
"57 530 CURVE SMOOTH",
"57 439 OFFCURVE",
"103 385 OFFCURVE",
"194 369 CURVE",
"92 360 OFFCURVE",
"41 305 OFFCURVE",
"41 203 CURVE SMOOTH",
"41 70 OFFCURVE",
"136 -11 OFFCURVE",
"288 -11 CURVE SMOOTH"
);
},
{
closed = 1;
nodes = (
"543 428 OFFCURVE",
"524 440 OFFCURVE",
"510 451 CURVE SMOOTH",
"484 471 OFFCURVE",
"464 496 OFFCURVE",
"464 536 CURVE SMOOTH",
"464 571 OFFCURVE",
"492 596 OFFCURVE",
"525 596 CURVE SMOOTH",
"570 596 OFFCURVE",
"592 569 OFFCURVE",
"592 515 CURVE SMOOTH",
"592 478 OFFCURVE",
"587 442 OFFCURVE",
"578 408 CURVE"
);
}
);
width = 795;
}
);
unicode = A895;
},
{
glyphname = uniA896;
lastChange = "2017-09-13 15:47:50 +0000";
layers = (
{
layerId = UUID0;
paths = (
{
closed = 1;
nodes = (
"300 71 LINE",
"177 71 OFFCURVE",
"119 125 OFFCURVE",
"119 224 CURVE SMOOTH",
"119 249 OFFCURVE",
"125 273 OFFCURVE",
"138 296 CURVE",
"183 268 OFFCURVE",
"226 254 OFFCURVE",
"266 254 CURVE SMOOTH",
"335 254 OFFCURVE",
"377 291 OFFCURVE",
"377 356 CURVE SMOOTH",
"377 427 OFFCURVE",
"339 466 OFFCURVE",
"268 466 CURVE SMOOTH",
"217 466 OFFCURVE",
"177 449 OFFCURVE",
"136 417 CURVE",
"128 434 OFFCURVE",
"124 451 OFFCURVE",
"124 469 CURVE SMOOTH",
"124 548 OFFCURVE",
"201 595 OFFCURVE",
"320 595 CURVE SMOOTH",
"481 595 OFFCURVE",
"549 510 OFFCURVE",
"549 321 CURVE SMOOTH",
"549 173 OFFCURVE",
"497 83 OFFCURVE",
"398 71 CURVE",
"403 -9 LINE",
"543 -4 OFFCURVE",
"624 116 OFFCURVE",
"624 319 CURVE SMOOTH",
"624 551 OFFCURVE",
"521 672 OFFCURVE",
"321 672 CURVE SMOOTH",
"162 672 OFFCURVE",
"50 599 OFFCURVE",
"50 478 CURVE SMOOTH",
"50 432 OFFCURVE",
"63 393 OFFCURVE",
"89 352 CURVE",
"61 309 OFFCURVE",
"47 264 OFFCURVE",
"47 217 CURVE SMOOTH",
"47 125 OFFCURVE",
"85 58 OFFCURVE",
"165 19 CURVE SMOOTH",
"205 0 OFFCURVE",
"249 -9 OFFCURVE",
"296 -9 CURVE"
);
},
{
closed = 1;
nodes = (
"230 324 OFFCURVE",
"201 334 OFFCURVE",
"174 355 CURVE",
"203 382 OFFCURVE",
"232 396 OFFCURVE",
"263 396 CURVE SMOOTH",
"292 396 OFFCURVE",
"307 383 OFFCURVE",
"307 360 CURVE SMOOTH",
"307 333 OFFCURVE",
"285 324 OFFCURVE",
"261 324 CURVE SMOOTH"
);
}
);
width = 680;
}
);
unicode = A896;
},
{
glyphname = uniA897;
lastChange = "2017-09-13 15:47:50 +0000";
layers = (
{
layerId = UUID0;
paths = (
{
closed = 1;
nodes = (
"513 -20 OFFCURVE",
"639 113 OFFCURVE",
"639 336 CURVE SMOOTH",
"639 548 OFFCURVE",
"561 673 OFFCURVE",
"428 673 CURVE",
"428 595 LINE",
"528 584 OFFCURVE",
"567 498 OFFCURVE",
"567 338 CURVE SMOOTH",
"567 254 OFFCURVE",
"545 186 OFFCURVE",
"500 135 CURVE SMOOTH",
"455 84 OFFCURVE",
"396 58 OFFCURVE",
"323 58 CURVE SMOOTH",
"179 58 OFFCURVE",
"114 105 OFFCURVE",
"114 197 CURVE SMOOTH",
"114 242 OFFCURVE",
"141 281 OFFCURVE",
"196 326 CURVE SMOOTH",
"239 361 LINE",
"420 361 LINE",
"439 426 LINE",
"319 426 LINE",
"362 462 OFFCURVE",
"378 498 OFFCURVE",
"378 543 CURVE SMOOTH",
"378 622 OFFCURVE",
"316 676 OFFCURVE",
"241 676 CURVE SMOOTH",
"146 676 OFFCURVE",
"87 629 OFFCURVE",
"87 549 CURVE SMOOTH",
"87 520 OFFCURVE",
"104 482 OFFCURVE",
"128 458 CURVE",
"185 508 LINE",
"173 522 OFFCURVE",
"167 536 OFFCURVE",
"167 551 CURVE SMOOTH",
"167 580 OFFCURVE",
"195 603 OFFCURVE",
"232 603 CURVE SMOOTH",
"277 603 OFFCURVE",
"301 582 OFFCURVE",
"301 543 CURVE SMOOTH",
"301 507 OFFCURVE",
"278 470 OFFCURVE",
"219 426 CURVE",
"46 426 LINE",
"27 361 LINE",
"132 361 LINE",
"65 306 OFFCURVE",
"40 258 OFFCURVE",
"40 197 CURVE SMOOTH",
"40 109 OFFCURVE",
"84 46 OFFCURVE",
"172 8 CURVE SMOOTH",
"216 -11 OFFCURVE",
"264 -20 OFFCURVE",
"315 -20 CURVE SMOOTH"
);
}
);
width = 682;
}
);
unicode = A897;
},
{
glyphname = uniA898;
lastChange = "2017-09-13 15:47:50 +0000";
layers = (
{
layerId = UUID0;
paths = (
{
closed = 1;
nodes = (
"554 -11 OFFCURVE",
"674 159 OFFCURVE",
"674 368 CURVE SMOOTH",
"674 556 OFFCURVE",
"604 673 OFFCURVE",
"500 673 CURVE SMOOTH",
"413 673 OFFCURVE",
"366 626 OFFCURVE",
"366 543 CURVE SMOOTH",
"366 468 OFFCURVE",
"418 424 OFFCURVE",
"503 424 CURVE",
"503 500 LINE",
"462 500 OFFCURVE",
"441 516 OFFCURVE",
"441 548 CURVE SMOOTH",
"441 579 OFFCURVE",
"461 596 OFFCURVE",
"498 596 CURVE SMOOTH",
"562 596 OFFCURVE",
"599 521 OFFCURVE",
"599 370 CURVE SMOOTH",
"599 190 OFFCURVE",
"500 70 OFFCURVE",
"339 70 CURVE SMOOTH",
"198 70 OFFCURVE",
"127 119 OFFCURVE",
"127 211 CURVE SMOOTH",
"127 295 OFFCURVE",
"177 332 OFFCURVE",
"328 333 CURVE",
"328 415 LINE",
"204 415 OFFCURVE",
"142 449 OFFCURVE",
"142 518 CURVE SMOOTH",
"142 571 OFFCURVE",
"178 596 OFFCURVE",
"259 596 CURVE SMOOTH",
"269 596 OFFCURVE",
"280 595 OFFCURVE",
"290 595 CURVE",
"290 673 LINE",
"279 673 OFFCURVE",
"268 674 OFFCURVE",
"257 674 CURVE SMOOTH",
"132 674 OFFCURVE",
"66 621 OFFCURVE",
"66 521 CURVE SMOOTH",
"66 441 OFFCURVE",
"113 390 OFFCURVE",
"201 375 CURVE",
"105 366 OFFCURVE",
"51 308 OFFCURVE",
"51 213 CURVE SMOOTH",
"51 72 OFFCURVE",
"165 -11 OFFCURVE",
"336 -11 CURVE SMOOTH"
);
}
);
width = 716;
}
);
unicode = A898;
},
{
glyphname = uniA899;
lastChange = "2017-09-13 15:47:50 +0000";
layers = (
{
layerId = UUID0;
paths = (
{
closed = 1;
nodes = (
"356 -10 OFFCURVE",
"412 59 OFFCURVE",
"412 162 CURVE SMOOTH",
"412 258 OFFCURVE",
"364 311 OFFCURVE",
"269 311 CURVE SMOOTH",
"219 311 OFFCURVE",
"174 294 OFFCURVE",
"133 261 CURVE",
"130 286 OFFCURVE",
"128 323 OFFCURVE",
"128 371 CURVE SMOOTH",
"128 522 OFFCURVE",
"171 595 OFFCURVE",
"266 595 CURVE SMOOTH",
"350 595 OFFCURVE",
"393 510 OFFCURVE",
"395 341 CURVE",
"479 341 LINE",
"480 508 OFFCURVE",
"520 595 OFFCURVE",
"611 595 CURVE SMOOTH",
"691 595 OFFCURVE",
"726 521 OFFCURVE",
"726 373 CURVE SMOOTH",
"726 197 OFFCURVE",
"652 88 OFFCURVE",
"524 83 CURVE",
"524 -4 LINE",
"709 2 OFFCURVE",
"797 162 OFFCURVE",
"797 373 CURVE SMOOTH",
"797 565 OFFCURVE",
"731 674 OFFCURVE",
"614 674 CURVE SMOOTH",
"525 674 OFFCURVE",
"466 629 OFFCURVE",
"438 538 CURVE",
"435 537 LINE",
"416 625 OFFCURVE",
"357 674 OFFCURVE",
"260 674 CURVE SMOOTH",
"124 674 OFFCURVE",
"55 570 OFFCURVE",
"55 375 CURVE SMOOTH",
"55 128 OFFCURVE",
"130 -10 OFFCURVE",
"263 -10 CURVE SMOOTH"
);
},
{
closed = 1;
nodes = (
"208 68 OFFCURVE",
"161 116 OFFCURVE",
"152 181 CURVE",
"181 216 OFFCURVE",
"226 239 OFFCURVE",
"269 239 CURVE SMOOTH",
"316 239 OFFCURVE",
"339 212 OFFCURVE",
"339 159 CURVE SMOOTH",
"339 102 OFFCURVE",
"311 68 OFFCURVE",
"260 68 CURVE SMOOTH"
);
}
);
width = 855;
}
);
unicode = A899;
},
{
glyphname = uniA89A;
lastChange = "2017-09-13 15:47:50 +0000";
layers = (
{
layerId = UUID0;
paths = (
{
closed = 1;
nodes = (
"530 -12 OFFCURVE",
"576 33 OFFCURVE",
"576 108 CURVE SMOOTH",
"576 158 OFFCURVE",
"547 188 OFFCURVE",
"501 226 CURVE",
"531 253 OFFCURVE",
"552 275 OFFCURVE",
"565 292 CURVE SMOOTH",
"590 325 OFFCURVE",
"605 368 OFFCURVE",
"605 409 CURVE SMOOTH",
"605 479 OFFCURVE",
"578 537 OFFCURVE",
"525 583 CURVE",
"540 590 OFFCURVE",
"560 594 OFFCURVE",
"585 594 CURVE SMOOTH",
"713 594 OFFCURVE",
"776 502 OFFCURVE",
"776 329 CURVE SMOOTH",
"776 185 OFFCURVE",
"742 88 OFFCURVE",
"634 75 CURVE",
"634 -10 LINE",
"697 -8 OFFCURVE",
"753 21 OFFCURVE",
"793 81 CURVE SMOOTH",
"832 139 OFFCURVE",
"853 221 OFFCURVE",
"853 337 CURVE SMOOTH",
"853 540 OFFCURVE",
"749 674 OFFCURVE",
"587 674 CURVE SMOOTH",
"550 674 OFFCURVE",
"495 661 OFFCURVE",
"452 640 CURVE",
"412 662 OFFCURVE",
"369 673 OFFCURVE",
"322 673 CURVE SMOOTH",
"138 673 OFFCURVE",
"46 543 OFFCURVE",
"46 328 CURVE SMOOTH",
"46 136 OFFCURVE",
"120 -2 OFFCURVE",
"268 -10 CURVE",
"268 75 LINE",
"159 88 OFFCURVE",
"122 183 OFFCURVE",
"122 330 CURVE SMOOTH",
"122 494 OFFCURVE",
"193 593 OFFCURVE",
"323 593 CURVE SMOOTH",
"343 593 OFFCURVE",
"360 589 OFFCURVE",
"375 582 CURVE",
"319 544 OFFCURVE",
"291 486 OFFCURVE",
"291 409 CURVE SMOOTH",
"291 364 OFFCURVE",
"304 327 OFFCURVE",
"328 294 CURVE SMOOTH",
"340 278 OFFCURVE",
"361 255 OFFCURVE",
"392 225 CURVE",
"333 178 OFFCURVE",
"322 147 OFFCURVE",
"322 106 CURVE SMOOTH",
"322 33 OFFCURVE",
"368 -12 OFFCURVE",
"449 -12 CURVE SMOOTH"
);
},
{
closed = 1;
nodes = (
"418 57 OFFCURVE",
"404 76 OFFCURVE",
"404 107 CURVE SMOOTH",
"404 134 OFFCURVE",
"418 159 OFFCURVE",
"447 181 CURVE",
"475 161 OFFCURVE",
"493 131 OFFCURVE",
"493 107 CURVE SMOOTH",
"493 74 OFFCURVE",
"478 57 OFFCURVE",
"449 57 CURVE SMOOTH"
);
},
{
closed = 1;
nodes = (
"422 291 OFFCURVE",
"406 308 OFFCURVE",
"397 320 CURVE SMOOTH",
"380 342 OFFCURVE",
"370 374 OFFCURVE",
"370 410 CURVE SMOOTH",
"370 471 OFFCURVE",
"396 520 OFFCURVE",
"448 557 CURVE",
"499 519 OFFCURVE",
"525 471 OFFCURVE",
"525 412 CURVE SMOOTH",
"525 343 OFFCURVE",
"495 311 OFFCURVE",
"446 269 CURVE"
);
}
);
width = 902;
}
);
unicode = A89A;
},
{
glyphname = uniA89B;
lastChange = "2017-09-13 15:47:50 +0000";
layers = (
{
layerId = UUID0;
paths = (
{
closed = 1;
nodes = (
"594 -9 OFFCURVE",
"691 93 OFFCURVE",
"711 265 CURVE",
"792 265 LINE",
"802 338 LINE",
"716 338 LINE",
"715 571 OFFCURVE",
"563 684 OFFCURVE",
"390 684 CURVE SMOOTH",
"182 684 OFFCURVE",
"54 538 OFFCURVE",
"54 296 CURVE SMOOTH",
"54 188 OFFCURVE",
"78 88 OFFCURVE",
"126 -3 CURVE",
"199 31 LINE",
"154 117 OFFCURVE",
"132 203 OFFCURVE",
"132 289 CURVE SMOOTH",
"132 488 OFFCURVE",
"221 609 OFFCURVE",
"389 609 CURVE SMOOTH",
"538 609 OFFCURVE",
"642 510 OFFCURVE",
"642 338 CURVE",
"489 338 LINE",
"499 357 OFFCURVE",
"504 376 OFFCURVE",
"504 396 CURVE SMOOTH",
"504 479 OFFCURVE",
"455 532 OFFCURVE",
"368 532 CURVE SMOOTH",
"292 532 OFFCURVE",
"233 482 OFFCURVE",
"233 401 CURVE SMOOTH",
"233 322 OFFCURVE",
"278 272 OFFCURVE",
"349 265 CURVE",
"318 221 OFFCURVE",
"294 185 OFFCURVE",
"294 140 CURVE SMOOTH",
"294 47 OFFCURVE",
"363 -9 OFFCURVE",
"455 -9 CURVE SMOOTH"
);
},
{
closed = 1;
nodes = (
"406 70 OFFCURVE",
"374 97 OFFCURVE",
"374 145 CURVE SMOOTH",
"374 178 OFFCURVE",
"387 208 OFFCURVE",
"440 265 CURVE",
"639 265 LINE",
"622 145 OFFCURVE",
"551 70 OFFCURVE",
"455 70 CURVE SMOOTH"
);
},
{
closed = 1;
nodes = (
"329 338 OFFCURVE",
"308 361 OFFCURVE",
"308 400 CURVE SMOOTH",
"308 436 OFFCURVE",
"334 459 OFFCURVE",
"371 459 CURVE SMOOTH",
"412 459 OFFCURVE",
"431 433 OFFCURVE",
"431 397 CURVE SMOOTH",
"431 377 OFFCURVE",
"424 357 OFFCURVE",
"409 338 CURVE",
"368 338 LINE SMOOTH"
);
}
);
width = 819;
}
);
unicode = A89B;
},
{
glyphname = uniA89C;
lastChange = "2017-09-13 15:47:50 +0000";
layers = (
{
layerId = UUID0;
paths = (
{
closed = 1;
nodes = (
"452 -11 OFFCURVE",
"555 91 OFFCURVE",
"555 252 CURVE SMOOTH",
"555 412 OFFCURVE",
"469 523 OFFCURVE",
"292 592 CURVE",
"533 592 LINE",
"552 666 LINE",
"88 666 LINE",
"72 599 LINE",
"348 546 OFFCURVE",
"480 433 OFFCURVE",
"480 254 CURVE SMOOTH",
"480 141 OFFCURVE",
"410 69 OFFCURVE",
"299 69 CURVE SMOOTH",
"192 69 OFFCURVE",
"125 132 OFFCURVE",
"125 240 CURVE SMOOTH",
"125 335 OFFCURVE",
"161 380 OFFCURVE",
"238 380 CURVE SMOOTH",
"287 380 OFFCURVE",
"311 357 OFFCURVE",
"311 310 CURVE",
"399 310 LINE",
"398 399 OFFCURVE",
"333 456 OFFCURVE",
"236 456 CURVE SMOOTH",
"113 456 OFFCURVE",
"45 379 OFFCURVE",
"45 240 CURVE SMOOTH",
"45 88 OFFCURVE",
"153 -11 OFFCURVE",
"299 -11 CURVE SMOOTH"
);
}
);
width = 607;
}
);
unicode = A89C;
},
{
glyphname = uniA89D;
lastChange = "2017-09-13 15:47:50 +0000";
layers = (
{
layerId = UUID0;
paths = (
{
closed = 1;
nodes = (
"519 -9 OFFCURVE",
"616 107 OFFCURVE",
"616 327 CURVE SMOOTH",
"616 551 OFFCURVE",
"517 672 OFFCURVE",
"330 672 CURVE SMOOTH",
"145 672 OFFCURVE",
"45 552 OFFCURVE",
"45 327 CURVE SMOOTH",
"45 106 OFFCURVE",
"142 -9 OFFCURVE",
"330 -9 CURVE SMOOTH"
);
},
{
closed = 1;
nodes = (
"190 74 OFFCURVE",
"120 158 OFFCURVE",
"120 327 CURVE SMOOTH",
"120 505 OFFCURVE",
"190 594 OFFCURVE",
"330 594 CURVE SMOOTH",
"471 594 OFFCURVE",
"541 505 OFFCURVE",
"541 327 CURVE SMOOTH",
"541 158 OFFCURVE",
"471 74 OFFCURVE",
"330 74 CURVE SMOOTH"
);
}
);
width = 664;
}
);
unicode = A89D;
},
{
glyphname = uniA89E;
lastChange = "2017-09-13 15:47:50 +0000";
layers = (
{
layerId = UUID0;
paths = (
{
closed = 1;
nodes = (
"491 -11 OFFCURVE",
"615 87 OFFCURVE",
"615 251 CURVE SMOOTH",
"615 376 OFFCURVE",
"563 448 OFFCURVE",
"470 448 CURVE SMOOTH",
"449 448 OFFCURVE",
"426 443 OFFCURVE",
"402 434 CURVE",
"457 510 OFFCURVE",
"528 564 OFFCURVE",
"617 613 CURVE",
"600 666 LINE",
"72 666 LINE",
"59 593 LINE",
"473 593 LINE",
"392 533 OFFCURVE",
"316 448 OFFCURVE",
"245 339 CURVE",
"310 294 LINE",
"340 351 OFFCURVE",
"386 379 OFFCURVE",
"448 379 CURVE SMOOTH",
"511 379 OFFCURVE",
"540 337 OFFCURVE",
"540 252 CURVE SMOOTH",
"540 142 OFFCURVE",
"449 69 OFFCURVE",
"331 69 CURVE SMOOTH",
"190 69 OFFCURVE",
"109 147 OFFCURVE",
"109 280 CURVE SMOOTH",
"109 379 OFFCURVE",
"152 435 OFFCURVE",
"239 435 CURVE",
"239 513 LINE",
"110 513 OFFCURVE",
"34 428 OFFCURVE",
"34 272 CURVE SMOOTH",
"34 103 OFFCURVE",
"153 -11 OFFCURVE",
"333 -11 CURVE SMOOTH"
);
}
);
width = 659;
}
);
unicode = A89E;
},
{
glyphname = uniA89F;
lastChange = "2017-09-13 15:47:50 +0000";
layers = (
{
layerId = UUID0;
paths = (
{
closed = 1;
nodes = (
"520 -9 OFFCURVE",
"631 116 OFFCURVE",
"631 347 CURVE SMOOTH",
"631 594 OFFCURVE",
"528 677 OFFCURVE",
"443 677 CURVE SMOOTH",
"367 677 OFFCURVE",
"314 627 OFFCURVE",
"314 554 CURVE SMOOTH",
"314 458 OFFCURVE",
"393 401 OFFCURVE",
"525 401 CURVE SMOOTH",
"559 401 LINE",
"560 386 OFFCURVE",
"561 368 OFFCURVE",
"561 347 CURVE SMOOTH",
"561 166 OFFCURVE",
"472 70 OFFCURVE",
"339 70 CURVE SMOOTH",
"215 70 OFFCURVE",
"138 129 OFFCURVE",
"138 236 CURVE SMOOTH",
"138 303 OFFCURVE",
"174 346 OFFCURVE",
"230 346 CURVE SMOOTH",
"235 346 OFFCURVE",
"239 345 OFFCURVE",
"244 344 CURVE",
"355 267 LINE",
"372 347 LINE",
"102 534 LINE",
"85 455 LINE",
"165 399 LINE",
"98 374 OFFCURVE",
"65 320 OFFCURVE",
"65 232 CURVE SMOOTH",
"65 89 OFFCURVE",
"173 -9 OFFCURVE",
"339 -9 CURVE SMOOTH"
);
},
{
closed = 1;
nodes = (
"437 471 OFFCURVE",
"387 500 OFFCURVE",
"387 552 CURVE SMOOTH",
"387 580 OFFCURVE",
"408 602 OFFCURVE",
"441 602 CURVE SMOOTH",
"492 602 OFFCURVE",
"534 552 OFFCURVE",
"549 471 CURVE",
"516 471 LINE"
);
}
);
width = 689;
}
);
unicode = A89F;
},
{
glyphname = uniA8A0;
lastChange = "2017-09-13 15:47:50 +0000";
layers = (
{
layerId = UUID0;
paths = (
{
closed = 1;
nodes = (
"487 -9 OFFCURVE",
"583 98 OFFCURVE",
"583 282 CURVE SMOOTH",
"583 443 OFFCURVE",
"525 527 OFFCURVE",
"414 527 CURVE SMOOTH",
"329 527 OFFCURVE",
"272 476 OFFCURVE",
"272 399 CURVE SMOOTH",
"272 375 OFFCURVE",
"278 353 OFFCURVE",
"290 333 CURVE",
"193 333 LINE",
"182 261 LINE",
"432 261 LINE",
"444 333 LINE",
"380 333 LINE",
"359 340 OFFCURVE",
"345 365 OFFCURVE",
"345 394 CURVE SMOOTH",
"345 435 OFFCURVE",
"372 456 OFFCURVE",
"416 456 CURVE SMOOTH",
"478 456 OFFCURVE",
"509 398 OFFCURVE",
"509 282 CURVE SMOOTH",
"509 147 OFFCURVE",
"442 70 OFFCURVE",
"322 70 CURVE SMOOTH",
"205 70 OFFCURVE",
"125 166 OFFCURVE",
"125 343 CURVE SMOOTH",
"125 505 OFFCURVE",
"229 609 OFFCURVE",
"383 609 CURVE SMOOTH",
"553 609 OFFCURVE",
"658 486 OFFCURVE",
"658 278 CURVE SMOOTH",
"658 186 OFFCURVE",
"640 98 OFFCURVE",
"602 25 CURVE",
"675 -5 LINE",
"711 72 OFFCURVE",
"734 183 OFFCURVE",
"734 272 CURVE SMOOTH",
"734 439 OFFCURVE",
"681 565 OFFCURVE",
"569 632 CURVE SMOOTH",
"514 665 OFFCURVE",
"452 684 OFFCURVE",
"382 684 CURVE SMOOTH",
"253 684 OFFCURVE",
"142 621 OFFCURVE",
"90 517 CURVE SMOOTH",
"64 466 OFFCURVE",
"51 406 OFFCURVE",
"51 337 CURVE SMOOTH",
"51 120 OFFCURVE",
"160 -9 OFFCURVE",
"324 -9 CURVE SMOOTH"
);
}
);
width = 784;
}
);
unicode = A8A0;
},
{
glyphname = uniA8A1;
lastChange = "2017-09-13 15:47:50 +0000";
layers = (
{
layerId = UUID0;
paths = (
{
closed = 1;
nodes = (
"343 -2 LINE",
"337 82 LINE",
"208 82 OFFCURVE",
"139 169 OFFCURVE",
"139 340 CURVE SMOOTH",
"139 508 OFFCURVE",
"197 595 OFFCURVE",
"312 595 CURVE SMOOTH",
"397 595 OFFCURVE",
"439 544 OFFCURVE",
"439 443 CURVE SMOOTH",
"439 0 LINE",
"517 0 LINE",
"517 449 LINE SMOOTH",
"517 594 OFFCURVE",
"443 674 OFFCURVE",
"311 674 CURVE SMOOTH",
"150 674 OFFCURVE",
"63 556 OFFCURVE",
"63 339 CURVE SMOOTH",
"63 128 OFFCURVE",
"160 -2 OFFCURVE",
"330 -2 CURVE SMOOTH"
);
}
);
width = 582;
}
);
unicode = A8A1;
},
{
glyphname = uniA8A2;
lastChange = "2017-09-13 15:47:50 +0000";
layers = (
{
layerId = UUID0;
paths = (
{
closed = 1;
nodes = (
"391 -5 OFFCURVE",
"447 45 OFFCURVE",
"447 120 CURVE SMOOTH",
"447 180 OFFCURVE",
"417 219 OFFCURVE",
"338 244 CURVE",
"555 477 LINE SMOOTH",
"588 513 OFFCURVE",
"601 541 OFFCURVE",
"601 578 CURVE SMOOTH",
"601 641 OFFCURVE",
"562 674 OFFCURVE",
"495 674 CURVE SMOOTH",
"366 674 LINE",
"366 600 LINE",
"475 600 LINE SMOOTH",
"512 600 OFFCURVE",
"525 588 OFFCURVE",
"525 567 CURVE SMOOTH",
"525 551 OFFCURVE",
"516 534 OFFCURVE",
"498 515 CURVE SMOOTH",
"261 268 LINE",
"142 306 LINE SMOOTH",
"129 310 OFFCURVE",
"123 318 OFFCURVE",
"123 329 CURVE SMOOTH",
"123 337 OFFCURVE",
"128 346 OFFCURVE",
"137 355 CURVE SMOOTH",
"239 454 LINE SMOOTH",
"281 495 OFFCURVE",
"299 523 OFFCURVE",
"299 567 CURVE SMOOTH",
"299 639 OFFCURVE",
"254 681 OFFCURVE",
"175 681 CURVE SMOOTH",
"106 681 OFFCURVE",
"54 634 OFFCURVE",
"54 567 CURVE SMOOTH",
"54 540 OFFCURVE",
"60 517 OFFCURVE",
"72 496 CURVE",
"141 531 LINE",
"135 542 OFFCURVE",
"132 552 OFFCURVE",
"132 563 CURVE SMOOTH",
"132 591 OFFCURVE",
"151 608 OFFCURVE",
"183 608 CURVE SMOOTH",
"214 608 OFFCURVE",
"229 593 OFFCURVE",
"229 564 CURVE SMOOTH",
"229 539 OFFCURVE",
"208 521 OFFCURVE",
"181 496 CURVE SMOOTH",
"72 396 LINE SMOOTH",
"49 375 OFFCURVE",
"33 358 OFFCURVE",
"33 330 CURVE SMOOTH",
"33 289 OFFCURVE",
"59 265 OFFCURVE",
"107 250 CURVE SMOOTH",
"213 217 LINE",
"190 189 OFFCURVE",
"174 160 OFFCURVE",
"174 121 CURVE SMOOTH",
"174 46 OFFCURVE",
"235 -5 OFFCURVE",
"316 -5 CURVE SMOOTH"
);
},
{
closed = 1;
nodes = (
"279 70 OFFCURVE",
"252 91 OFFCURVE",
"252 123 CURVE SMOOTH",
"252 150 OFFCURVE",
"267 168 OFFCURVE",
"290 193 CURVE",
"361 172 OFFCURVE",
"373 156 OFFCURVE",
"373 124 CURVE SMOOTH",
"373 95 OFFCURVE",
"348 70 OFFCURVE",
"312 70 CURVE SMOOTH"
);
}
);
width = 619;
}
);
unicode = A8A2;
},
{
glyphname = uniA8A3;
lastChange = "2017-09-13 15:47:50 +0000";
layers = (
{
layerId = UUID0;
paths = (
{
closed = 1;
nodes = (
"347 -9 OFFCURVE",
"410 26 OFFCURVE",
"447 83 CURVE",
"472 28 OFFCURVE",
"518 0 OFFCURVE",
"584 0 CURVE SMOOTH",
"589 0 OFFCURVE",
"594 0 OFFCURVE",
"599 1 CURVE",
"589 80 LINE",
"522 80 OFFCURVE",
"488 111 OFFCURVE",
"488 173 CURVE SMOOTH",
"488 190 OFFCURVE",
"490 210 OFFCURVE",
"493 233 CURVE",
"428 246 LINE",
"416 129 OFFCURVE",
"363 70 OFFCURVE",
"250 70 CURVE SMOOTH",
"173 70 OFFCURVE",
"126 108 OFFCURVE",
"126 172 CURVE SMOOTH",
"126 207 OFFCURVE",
"140 230 OFFCURVE",
"171 253 CURVE SMOOTH",
"187 265 OFFCURVE",
"222 283 OFFCURVE",
"275 309 CURVE SMOOTH",
"324 333 OFFCURVE",
"359 353 OFFCURVE",
"381 370 CURVE SMOOTH",
"424 403 OFFCURVE",
"443 445 OFFCURVE",
"443 500 CURVE SMOOTH",
"443 608 OFFCURVE",
"375 671 OFFCURVE",
"261 671 CURVE SMOOTH",
"168 671 OFFCURVE",
"70 618 OFFCURVE",
"70 521 CURVE SMOOTH",
"70 448 OFFCURVE",
"107 399 OFFCURVE",
"184 380 CURVE",
"205 448 LINE",
"166 459 OFFCURVE",
"147 478 OFFCURVE",
"147 519 CURVE SMOOTH",
"147 564 OFFCURVE",
"196 599 OFFCURVE",
"260 599 CURVE SMOOTH",
"328 599 OFFCURVE",
"371 564 OFFCURVE",
"371 505 CURVE SMOOTH",
"371 445 OFFCURVE",
"343 411 OFFCURVE",
"262 374 CURVE SMOOTH",
"193 342 OFFCURVE",
"146 317 OFFCURVE",
"122 300 CURVE SMOOTH",
"75 267 OFFCURVE",
"52 226 OFFCURVE",
"52 167 CURVE SMOOTH",
"52 58 OFFCURVE",
"132 -9 OFFCURVE",
"255 -9 CURVE SMOOTH"
);
}
);
width = 598;
}
);
unicode = A8A3;
},
{
glyphname = uniA8A4;
lastChange = "2017-09-13 15:47:50 +0000";
layers = (
{
layerId = UUID0;
paths = (
{
closed = 1;
nodes = (
"536 -10 OFFCURVE",
"662 132 OFFCURVE",
"662 367 CURVE SMOOTH",
"662 549 OFFCURVE",
"576 671 OFFCURVE",
"438 671 CURVE SMOOTH",
"431 671 LINE",
"431 593 LINE",
"434 593 LINE SMOOTH",
"531 593 OFFCURVE",
"587 507 OFFCURVE",
"587 371 CURVE SMOOTH",
"587 179 OFFCURVE",
"494 70 OFFCURVE",
"333 70 CURVE SMOOTH",
"194 70 OFFCURVE",
"115 123 OFFCURVE",
"115 219 CURVE SMOOTH",
"115 275 OFFCURVE",
"141 306 OFFCURVE",
"196 321 CURVE SMOOTH",
"223 328 OFFCURVE",
"265 332 OFFCURVE",
"322 332 CURVE",
"322 403 LINE",
"198 403 OFFCURVE",
"137 448 OFFCURVE",
"137 528 CURVE SMOOTH",
"137 568 OFFCURVE",
"168 595 OFFCURVE",
"213 595 CURVE SMOOTH",
"253 595 OFFCURVE",
"273 576 OFFCURVE",
"273 537 CURVE SMOOTH",
"273 533 LINE",
"347 533 LINE",
"347 537 OFFCURVE",
"348 542 OFFCURVE",
"348 546 CURVE SMOOTH",
"348 622 OFFCURVE",
"304 673 OFFCURVE",
"209 673 CURVE SMOOTH",
"121 673 OFFCURVE",
"60 614 OFFCURVE",
"60 530 CURVE SMOOTH",
"60 447 OFFCURVE",
"108 388 OFFCURVE",
"197 371 CURVE",
"92 364 OFFCURVE",
"40 315 OFFCURVE",
"40 215 CURVE SMOOTH",
"40 76 OFFCURVE",
"163 -10 OFFCURVE",
"336 -10 CURVE SMOOTH"
);
}
);
width = 710;
}
);
unicode = A8A4;
},
{
glyphname = uniA8A5;
lastChange = "2017-09-13 15:47:50 +0000";
layers = (
{
layerId = UUID0;
paths = (
{
closed = 1;
nodes = (
"290 -7 OFFCURVE",
"346 49 OFFCURVE",
"346 137 CURVE SMOOTH",
"346 234 OFFCURVE",
"293 292 OFFCURVE",
"205 292 CURVE SMOOTH",
"178 292 OFFCURVE",
"148 286 OFFCURVE",
"115 275 CURVE",
"115 498 OFFCURVE",
"161 593 OFFCURVE",
"256 593 CURVE SMOOTH",
"291 593 OFFCURVE",
"330 573 OFFCURVE",
"378 530 CURVE SMOOTH",
"429 484 LINE",
"429 0 LINE",
"502 0 LINE",
"502 429 LINE",
"521 418 OFFCURVE",
"542 413 OFFCURVE",
"563 413 CURVE SMOOTH",
"639 413 OFFCURVE",
"682 457 OFFCURVE",
"682 544 CURVE SMOOTH",
"682 627 OFFCURVE",
"638 674 OFFCURVE",
"562 674 CURVE SMOOTH",
"489 674 OFFCURVE",
"446 638 OFFCURVE",
"433 567 CURVE",
"358 638 OFFCURVE",
"301 669 OFFCURVE",
"253 669 CURVE SMOOTH",
"110 669 OFFCURVE",
"42 538 OFFCURVE",
"42 275 CURVE SMOOTH",
"42 96 OFFCURVE",
"99 -7 OFFCURVE",
"206 -7 CURVE SMOOTH"
);
},
{
closed = 1;
nodes = (
"163 65 OFFCURVE",
"130 107 OFFCURVE",
"119 199 CURVE",
"146 211 OFFCURVE",
"183 219 OFFCURVE",
"204 219 CURVE SMOOTH",
"251 219 OFFCURVE",
"272 196 OFFCURVE",
"272 137 CURVE SMOOTH",
"272 93 OFFCURVE",
"245 65 OFFCURVE",
"206 65 CURVE SMOOTH"
);
},
{
closed = 1;
nodes = (
"541 484 OFFCURVE",
"523 491 OFFCURVE",
"502 506 CURVE",
"502 515 LINE SMOOTH",
"502 580 OFFCURVE",
"519 601 OFFCURVE",
"562 601 CURVE SMOOTH",
"595 601 OFFCURVE",
"611 582 OFFCURVE",
"611 544 CURVE SMOOTH",
"611 508 OFFCURVE",
"592 484 OFFCURVE",
"557 484 CURVE SMOOTH"
);
}
);
width = 694;
}
);
unicode = A8A5;
},
{
glyphname = uniA8A6;
lastChange = "2017-09-13 15:47:50 +0000";
layers = (
{
layerId = UUID0;
paths = (
{
closed = 1;
nodes = (
"257 -7 OFFCURVE",
"312 17 OFFCURVE",
"365 66 CURVE SMOOTH",
"475 167 OFFCURVE",
"540 347 OFFCURVE",
"540 500 CURVE SMOOTH",
"540 613 OFFCURVE",
"491 674 OFFCURVE",
"383 674 CURVE SMOOTH",
"277 674 LINE",
"277 597 LINE",
"383 597 LINE SMOOTH",
"443 597 OFFCURVE",
"467 565 OFFCURVE",
"467 496 CURVE SMOOTH",
"467 370 OFFCURVE",
"411 219 OFFCURVE",
"327 135 CURVE SMOOTH",
"286 94 OFFCURVE",
"244 74 OFFCURVE",
"201 74 CURVE SMOOTH",
"152 74 OFFCURVE",
"122 94 OFFCURVE",
"122 127 CURVE SMOOTH",
"122 139 OFFCURVE",
"126 158 OFFCURVE",
"133 185 CURVE SMOOTH",
"177 354 LINE SMOOTH",
"202 451 OFFCURVE",
"218 515 OFFCURVE",
"218 548 CURVE SMOOTH",
"218 623 OFFCURVE",
"173 672 OFFCURVE",
"105 672 CURVE SMOOTH",
"78 672 OFFCURVE",
"52 667 OFFCURVE",
"28 657 CURVE",
"54 585 LINE",
"69 591 OFFCURVE",
"83 594 OFFCURVE",
"96 594 CURVE SMOOTH",
"123 594 OFFCURVE",
"144 581 OFFCURVE",
"144 548 CURVE SMOOTH",
"144 521 OFFCURVE",
"129 461 OFFCURVE",
"104 369 CURVE SMOOTH",
"69 241 LINE SMOOTH",
"51 176 OFFCURVE",
"42 133 OFFCURVE",
"42 112 CURVE SMOOTH",
"42 77 OFFCURVE",
"57 48 OFFCURVE",
"87 26 CURVE SMOOTH",
"118 4 OFFCURVE",
"155 -7 OFFCURVE",
"200 -7 CURVE SMOOTH"
);
}
);
width = 588;
}
);
unicode = A8A6;
},
{
glyphname = uniA8A7;
lastChange = "2017-09-13 15:47:50 +0000";
layers = (
{
layerId = UUID0;
paths = (
{
closed = 1;
nodes = (
"406 -9 OFFCURVE",
"466 20 OFFCURVE",
"511 67 CURVE SMOOTH",
"552 109 OFFCURVE",
"574 166 OFFCURVE",
"574 227 CURVE SMOOTH",
"574 312 OFFCURVE",
"541 367 OFFCURVE",
"475 393 CURVE",
"441 324 LINE",
"482 309 OFFCURVE",
"503 276 OFFCURVE",
"503 227 CURVE SMOOTH",
"503 133 OFFCURVE",
"425 72 OFFCURVE",
"317 72 CURVE SMOOTH",
"178 72 OFFCURVE",
"96 173 OFFCURVE",
"96 329 CURVE SMOOTH",
"96 497 OFFCURVE",
"158 597 OFFCURVE",
"259 597 CURVE SMOOTH",
"314 597 OFFCURVE",
"354 565 OFFCURVE",
"400 517 CURVE",
"377 482 OFFCURVE",
"359 459 OFFCURVE",
"348 448 CURVE SMOOTH",
"337 437 OFFCURVE",
"325 433 OFFCURVE",
"313 433 CURVE SMOOTH",
"296 433 OFFCURVE",
"286 440 OFFCURVE",
"273 463 CURVE",
"215 424 LINE",
"242 376 OFFCURVE",
"271 358 OFFCURVE",
"312 358 CURVE SMOOTH",
"355 358 OFFCURVE",
"387 380 OFFCURVE",
"421 429 CURVE SMOOTH",
"450 471 LINE",
"489 438 OFFCURVE",
"527 422 OFFCURVE",
"563 422 CURVE SMOOTH",
"633 422 OFFCURVE",
"682 476 OFFCURVE",
"682 539 CURVE SMOOTH",
"682 611 OFFCURVE",
"638 658 OFFCURVE",
"565 658 CURVE SMOOTH",
"520 658 OFFCURVE",
"481 633 OFFCURVE",
"438 573 CURVE",
"387 619 LINE SMOOTH",
"339 662 OFFCURVE",
"305 678 OFFCURVE",
"256 678 CURVE SMOOTH",
"114 678 OFFCURVE",
"27 540 OFFCURVE",
"27 330 CURVE SMOOTH",
"27 130 OFFCURVE",
"135 -9 OFFCURVE",
"310 -9 CURVE SMOOTH"
);
},
{
closed = 1;
nodes = (
"538 494 OFFCURVE",
"519 505 OFFCURVE",
"490 529 CURVE",
"517 569 OFFCURVE",
"536 584 OFFCURVE",
"563 584 CURVE SMOOTH",
"591 584 OFFCURVE",
"608 568 OFFCURVE",
"608 539 CURVE SMOOTH",
"608 515 OFFCURVE",
"588 494 OFFCURVE",
"561 494 CURVE SMOOTH"
);
}
);
width = 713;
}
);
unicode = A8A7;
},
{
glyphname = uniA8A8;
lastChange = "2017-09-13 15:47:50 +0000";
layers = (
{
layerId = UUID0;
paths = (
{
closed = 1;
nodes = (
"490 -9 OFFCURVE",
"576 49 OFFCURVE",
"576 165 CURVE SMOOTH",
"576 192 OFFCURVE",
"571 219 OFFCURVE",
"561 246 CURVE",
"486 222 LINE",
"493 209 OFFCURVE",
"497 192 OFFCURVE",
"497 171 CURVE SMOOTH",
"497 104 OFFCURVE",
"438 71 OFFCURVE",
"320 71 CURVE SMOOTH",
"219 71 OFFCURVE",
"174 85 OFFCURVE",
"145 116 CURVE SMOOTH",
"131 131 OFFCURVE",
"124 152 OFFCURVE",
"124 179 CURVE SMOOTH",
"124 236 OFFCURVE",
"144 262 OFFCURVE",
"195 274 CURVE SMOOTH",
"220 280 OFFCURVE",
"261 283 OFFCURVE",
"316 283 CURVE SMOOTH",
"378 283 LINE SMOOTH",
"527 283 OFFCURVE",
"592 345 OFFCURVE",
"592 486 CURVE SMOOTH",
"592 614 OFFCURVE",
"549 674 OFFCURVE",
"464 674 CURVE SMOOTH",
"439 674 OFFCURVE",
"405 662 OFFCURVE",
"336 619 CURVE",
"325 655 OFFCURVE",
"305 672 OFFCURVE",
"264 672 CURVE SMOOTH",
"219 672 OFFCURVE",
"189 646 OFFCURVE",
"189 599 CURVE SMOOTH",
"189 551 OFFCURVE",
"219 528 OFFCURVE",
"264 525 CURVE",
"256 493 OFFCURVE",
"232 477 OFFCURVE",
"192 477 CURVE SMOOTH",
"142 477 OFFCURVE",
"117 503 OFFCURVE",
"117 554 CURVE SMOOTH",
"117 577 OFFCURVE",
"127 600 OFFCURVE",
"146 622 CURVE",
"91 670 LINE",
"59 640 OFFCURVE",
"43 601 OFFCURVE",
"43 554 CURVE SMOOTH",
"43 462 OFFCURVE",
"101 404 OFFCURVE",
"196 404 CURVE SMOOTH",
"285 404 OFFCURVE",
"334 454 OFFCURVE",
"342 539 CURVE",
"423 586 OFFCURVE",
"436 595 OFFCURVE",
"463 595 CURVE SMOOTH",
"506 595 OFFCURVE",
"527 559 OFFCURVE",
"527 488 CURVE SMOOTH",
"527 387 OFFCURVE",
"477 346 OFFCURVE",
"362 346 CURVE SMOOTH",
"321 346 LINE SMOOTH",
"205 346 OFFCURVE",
"117 342 OFFCURVE",
"72 281 CURVE SMOOTH",
"55 258 OFFCURVE",
"47 225 OFFCURVE",
"47 184 CURVE SMOOTH",
"47 55 OFFCURVE",
"124 -9 OFFCURVE",
"319 -9 CURVE SMOOTH"
);
}
);
width = 639;
}
);
unicode = A8A8;
},
{
glyphname = uniA8A9;
lastChange = "2017-09-13 15:47:50 +0000";
layers = (
{
layerId = UUID0;
paths = (
{
closed = 1;
nodes = (
"313 -9 OFFCURVE",
"359 64 OFFCURVE",
"359 221 CURVE SMOOTH",
"359 379 LINE SMOOTH",
"359 492 OFFCURVE",
"364 593 OFFCURVE",
"439 593 CURVE SMOOTH",
"488 593 OFFCURVE",
"511 540 OFFCURVE",
"511 424 CURVE SMOOTH",
"511 341 LINE",
"583 341 LINE",
"583 424 LINE SMOOTH",
"583 551 OFFCURVE",
"602 593 OFFCURVE",
"653 593 CURVE SMOOTH",
"715 593 OFFCURVE",
"739 527 OFFCURVE",
"739 373 CURVE SMOOTH",
"739 252 OFFCURVE",
"729 191 OFFCURVE",
"710 150 CURVE SMOOTH",
"691 110 OFFCURVE",
"663 85 OFFCURVE",
"623 80 CURVE",
"623 -6 LINE",
"751 2 OFFCURVE",
"811 113 OFFCURVE",
"811 373 CURVE SMOOTH",
"811 573 OFFCURVE",
"762 673 OFFCURVE",
"664 673 CURVE SMOOTH",
"593 673 OFFCURVE",
"560 639 OFFCURVE",
"548 574 CURVE",
"545 573 LINE",
"533 640 OFFCURVE",
"494 674 OFFCURVE",
"427 674 CURVE SMOOTH",
"330 674 OFFCURVE",
"285 588 OFFCURVE",
"285 412 CURVE SMOOTH",
"285 222 LINE SMOOTH",
"285 121 OFFCURVE",
"260 70 OFFCURVE",
"210 70 CURVE SMOOTH",
"147 70 OFFCURVE",
"120 136 OFFCURVE",
"120 295 CURVE SMOOTH",
"120 436 OFFCURVE",
"150 535 OFFCURVE",
"234 631 CURVE",
"168 678 LINE",
"85 586 OFFCURVE",
"44 452 OFFCURVE",
"44 296 CURVE SMOOTH",
"44 91 OFFCURVE",
"97 -9 OFFCURVE",
"210 -9 CURVE SMOOTH"
);
}
);
width = 853;
}
);
unicode = A8A9;
},
{
glyphname = uniA8AA;
lastChange = "2017-09-13 15:47:50 +0000";
layers = (
{
layerId = UUID0;
paths = (
{
closed = 1;
nodes = (
"678 -9 OFFCURVE",
"736 53 OFFCURVE",
"736 177 CURVE SMOOTH",
"736 666 LINE",
"663 666 LINE",
"663 183 LINE SMOOTH",
"663 109 OFFCURVE",
"628 72 OFFCURVE",
"558 72 CURVE SMOOTH",
"511 72 OFFCURVE",
"471 84 OFFCURVE",
"411 114 CURVE SMOOTH",
"349 145 OFFCURVE",
"296 157 OFFCURVE",
"263 157 CURVE SMOOTH",
"216 157 OFFCURVE",
"175 135 OFFCURVE",
"148 102 CURVE",
"148 130 LINE SMOOTH",
"148 229 OFFCURVE",
"198 276 OFFCURVE",
"318 276 CURVE SMOOTH",
"389 276 LINE SMOOTH",
"534 276 OFFCURVE",
"599 341 OFFCURVE",
"599 486 CURVE SMOOTH",
"599 614 OFFCURVE",
"548 674 OFFCURVE",
"452 674 CURVE SMOOTH",
"391 674 OFFCURVE",
"340 642 OFFCURVE",
"323 594 CURVE",
"302 647 OFFCURVE",
"260 674 OFFCURVE",
"195 674 CURVE SMOOTH",
"104 674 OFFCURVE",
"48 615 OFFCURVE",
"48 520 CURVE SMOOTH",
"48 465 OFFCURVE",
"70 403 OFFCURVE",
"102 360 CURVE",
"165 399 LINE",
"144 427 OFFCURVE",
"124 480 OFFCURVE",
"124 516 CURVE SMOOTH",
"124 567 OFFCURVE",
"154 598 OFFCURVE",
"206 598 CURVE SMOOTH",
"265 598 OFFCURVE",
"290 566 OFFCURVE",
"290 502 CURVE SMOOTH",
"290 421 LINE",
"359 421 LINE",
"359 502 LINE SMOOTH",
"359 565 OFFCURVE",
"390 596 OFFCURVE",
"451 596 CURVE SMOOTH",
"505 596 OFFCURVE",
"532 560 OFFCURVE",
"532 488 CURVE SMOOTH",
"532 381 OFFCURVE",
"482 338 OFFCURVE",
"373 338 CURVE SMOOTH",
"313 338 LINE SMOOTH",
"217 338 OFFCURVE",
"162 320 OFFCURVE",
"126 287 CURVE SMOOTH",
"90 254 OFFCURVE",
"71 202 OFFCURVE",
"71 131 CURVE SMOOTH",
"71 0 LINE",
"153 0 LINE",
"157 49 OFFCURVE",
"198 81 OFFCURVE",
"257 81 CURVE SMOOTH",
"304 81 OFFCURVE",
"348 67 OFFCURVE",
"405 36 CURVE SMOOTH",
"464 4 OFFCURVE",
"510 -9 OFFCURVE",
"561 -9 CURVE SMOOTH"
);
}
);
width = 793;
}
);
unicode = A8AA;
},
{
glyphname = uniA8AB;
lastChange = "2017-09-13 15:47:50 +0000";
layers = (
{
layerId = UUID0;
paths = (
{
closed = 1;
nodes = (
"345 -7 OFFCURVE",
"397 17 OFFCURVE",
"448 66 CURVE SMOOTH",
"554 168 OFFCURVE",
"620 347 OFFCURVE",
"620 500 CURVE SMOOTH",
"620 613 OFFCURVE",
"571 674 OFFCURVE",
"463 674 CURVE SMOOTH",
"367 674 LINE",
"367 597 LINE",
"463 597 LINE SMOOTH",
"523 597 OFFCURVE",
"547 565 OFFCURVE",
"547 496 CURVE SMOOTH",
"547 374 OFFCURVE",
"494 225 OFFCURVE",
"414 139 CURVE SMOOTH",
"374 96 OFFCURVE",
"333 74 OFFCURVE",
"291 74 CURVE SMOOTH",
"240 74 OFFCURVE",
"212 94 OFFCURVE",
"212 127 CURVE SMOOTH",
"212 139 OFFCURVE",
"216 158 OFFCURVE",
"223 185 CURVE SMOOTH",
"267 354 LINE SMOOTH",
"292 451 OFFCURVE",
"308 512 OFFCURVE",
"308 548 CURVE SMOOTH",
"308 625 OFFCURVE",
"262 674 OFFCURVE",
"189 674 CURVE SMOOTH",
"108 674 OFFCURVE",
"56 628 OFFCURVE",
"56 549 CURVE SMOOTH",
"56 478 OFFCURVE",
"94 429 OFFCURVE",
"166 421 CURVE",
"182 494 LINE",
"146 502 OFFCURVE",
"130 520 OFFCURVE",
"130 549 CURVE SMOOTH",
"130 580 OFFCURVE",
"153 597 OFFCURVE",
"181 597 CURVE SMOOTH",
"217 597 OFFCURVE",
"236 577 OFFCURVE",
"236 545 CURVE SMOOTH",
"236 513 OFFCURVE",
"215 439 OFFCURVE",
"195 369 CURVE SMOOTH",
"159 241 LINE SMOOTH",
"141 176 OFFCURVE",
"132 133 OFFCURVE",
"132 112 CURVE SMOOTH",
"132 77 OFFCURVE",
"147 48 OFFCURVE",
"177 26 CURVE SMOOTH",
"208 4 OFFCURVE",
"245 -7 OFFCURVE",
"290 -7 CURVE SMOOTH"
);
}
);
width = 673;
}
);
unicode = A8AB;
},
{
glyphname = uniA8AC;
lastChange = "2017-09-13 15:47:50 +0000";
layers = (
{
layerId = UUID0;
paths = (
{
closed = 1;
nodes = (
"191 -10 OFFCURVE",
"229 20 OFFCURVE",
"249 87 CURVE",
"299 55 LINE SMOOTH",
"367 11 OFFCURVE",
"411 -7 OFFCURVE",
"450 -7 CURVE SMOOTH",
"565 -7 OFFCURVE",
"624 57 OFFCURVE",
"624 173 CURVE SMOOTH",
"624 224 OFFCURVE",
"603 287 OFFCURVE",
"555 372 CURVE SMOOTH",
"519 436 OFFCURVE",
"486 499 OFFCURVE",
"486 544 CURVE SMOOTH",
"486 576 OFFCURVE",
"502 590 OFFCURVE",
"543 590 CURVE SMOOTH",
"644 590 LINE",
"644 666 LINE",
"533 666 LINE SMOOTH",
"454 666 OFFCURVE",
"414 628 OFFCURVE",
"414 553 CURVE SMOOTH",
"414 512 OFFCURVE",
"431 464 OFFCURVE",
"482 369 CURVE SMOOTH",
"531 278 OFFCURVE",
"550 221 OFFCURVE",
"550 173 CURVE SMOOTH",
"550 113 OFFCURVE",
"505 70 OFFCURVE",
"438 70 CURVE SMOOTH",
"404 70 OFFCURVE",
"365 87 OFFCURVE",
"310 122 CURVE SMOOTH",
"265 151 LINE",
"281 220 OFFCURVE",
"297 302 OFFCURVE",
"314 396 CURVE SMOOTH",
"331 490 OFFCURVE",
"340 547 OFFCURVE",
"340 566 CURVE SMOOTH",
"340 630 OFFCURVE",
"303 666 OFFCURVE",
"236 666 CURVE SMOOTH",
"77 666 LINE",
"57 590 LINE",
"226 590 LINE SMOOTH",
"253 590 OFFCURVE",
"266 575 OFFCURVE",
"266 546 CURVE SMOOTH",
"266 533 OFFCURVE",
"258 486 OFFCURVE",
"243 405 CURVE SMOOTH",
"228 324 OFFCURVE",
"213 251 OFFCURVE",
"199 188 CURVE",
"174 199 OFFCURVE",
"152 205 OFFCURVE",
"133 205 CURVE SMOOTH",
"64 205 OFFCURVE",
"22 162 OFFCURVE",
"22 97 CURVE SMOOTH",
"22 36 OFFCURVE",
"65 -10 OFFCURVE",
"128 -10 CURVE SMOOTH"
);
},
{
closed = 1;
nodes = (
"105 60 OFFCURVE",
"91 76 OFFCURVE",
"91 97 CURVE SMOOTH",
"91 117 OFFCURVE",
"104 134 OFFCURVE",
"131 134 CURVE SMOOTH",
"146 134 OFFCURVE",
"163 130 OFFCURVE",
"184 122 CURVE",
"172 77 OFFCURVE",
"155 60 OFFCURVE",
"128 60 CURVE SMOOTH"
);
}
);
width = 671;
}
);
unicode = A8AC;
},
{
glyphname = uniA8AD;
lastChange = "2017-09-13 15:47:50 +0000";
layers = (
{
layerId = UUID0;
paths = (
{
closed = 1;
nodes = (
"318 81 LINE",
"191 84 OFFCURVE",
"121 188 OFFCURVE",
"121 372 CURVE SMOOTH",
"121 519 OFFCURVE",
"157 593 OFFCURVE",
"242 593 CURVE SMOOTH",
"321 593 OFFCURVE",
"353 516 OFFCURVE",
"356 341 CURVE",
"435 341 LINE",
"437 519 OFFCURVE",
"473 593 OFFCURVE",
"559 593 CURVE SMOOTH",
"640 593 OFFCURVE",
"672 522 OFFCURVE",
"672 373 CURVE SMOOTH",
"672 189 OFFCURVE",
"606 86 OFFCURVE",
"485 81 CURVE",
"485 0 LINE",
"652 5 OFFCURVE",
"744 140 OFFCURVE",
"744 373 CURVE SMOOTH",
"744 565 OFFCURVE",
"682 673 OFFCURVE",
"562 673 CURVE SMOOTH",
"475 673 OFFCURVE",
"424 631 OFFCURVE",
"396 538 CURVE",
"393 537 LINE",
"372 625 OFFCURVE",
"317 673 OFFCURVE",
"234 673 CURVE SMOOTH",
"111 673 OFFCURVE",
"49 573 OFFCURVE",
"49 372 CURVE SMOOTH",
"49 144 OFFCURVE",
"152 2 OFFCURVE",
"318 0 CURVE"
);
}
);
width = 800;
}
);
unicode = A8AD;
},
{
glyphname = uniA8AE;
lastChange = "2017-09-13 15:47:50 +0000";
layers = (
{
layerId = UUID0;
paths = (
{
closed = 1;
nodes = (
"411 -9 OFFCURVE",
"468 46 OFFCURVE",
"468 129 CURVE SMOOTH",
"468 182 OFFCURVE",
"430 222 OFFCURVE",
"373 279 CURVE",
"540 437 LINE SMOOTH",
"587 481 OFFCURVE",
"601 508 OFFCURVE",
"601 551 CURVE SMOOTH",
"601 627 OFFCURVE",
"553 676 OFFCURVE",
"472 676 CURVE SMOOTH",
"432 676 OFFCURVE",
"395 663 OFFCURVE",
"361 636 CURVE",
"404 575 LINE",
"426 592 OFFCURVE",
"449 600 OFFCURVE",
"474 600 CURVE SMOOTH",
"509 600 OFFCURVE",
"527 580 OFFCURVE",
"527 548 CURVE SMOOTH",
"527 530 OFFCURVE",
"513 510 OFFCURVE",
"490 488 CURVE SMOOTH",
"322 329 LINE",
"130 518 LINE SMOOTH",
"115 533 OFFCURVE",
"107 548 OFFCURVE",
"107 563 CURVE SMOOTH",
"107 578 OFFCURVE",
"119 590 OFFCURVE",
"142 590 CURVE SMOOTH",
"267 590 LINE",
"267 666 LINE",
"136 666 LINE SMOOTH",
"71 666 OFFCURVE",
"30 627 OFFCURVE",
"30 570 CURVE SMOOTH",
"30 537 OFFCURVE",
"47 503 OFFCURVE",
"81 469 CURVE SMOOTH",
"272 282 LINE",
"198 214 OFFCURVE",
"176 173 OFFCURVE",
"176 128 CURVE SMOOTH",
"176 45 OFFCURVE",
"235 -9 OFFCURVE",
"323 -9 CURVE SMOOTH"
);
},
{
closed = 1;
nodes = (
"280 69 OFFCURVE",
"251 94 OFFCURVE",
"251 133 CURVE SMOOTH",
"251 164 OFFCURVE",
"272 188 OFFCURVE",
"323 232 CURVE",
"354 203 LINE SMOOTH",
"383 175 OFFCURVE",
"394 157 OFFCURVE",
"394 134 CURVE SMOOTH",
"394 95 OFFCURVE",
"366 69 OFFCURVE",
"323 69 CURVE SMOOTH"
);
}
);
width = 637;
}
);
unicode = A8AE;
},
{
glyphname = uniA8AF;
lastChange = "2017-09-13 15:47:50 +0000";
layers = (
{
layerId = UUID0;
paths = (
{
closed = 1;
nodes = (
"220 31 LINE",
"159 114 OFFCURVE",
"109 253 OFFCURVE",
"109 353 CURVE SMOOTH",
"109 508 OFFCURVE",
"176 595 OFFCURVE",
"293 595 CURVE SMOOTH",
"372 595 OFFCURVE",
"418 548 OFFCURVE",
"418 471 CURVE SMOOTH",
"418 447 OFFCURVE",
"413 425 OFFCURVE",
"404 404 CURVE",
"380 447 OFFCURVE",
"341 474 OFFCURVE",
"293 474 CURVE SMOOTH",
"229 474 OFFCURVE",
"186 432 OFFCURVE",
"186 372 CURVE SMOOTH",
"186 303 OFFCURVE",
"230 260 OFFCURVE",
"305 260 CURVE SMOOTH",
"329 260 OFFCURVE",
"350 263 OFFCURVE",
"367 270 CURVE",
"366 253 OFFCURVE",
"365 237 OFFCURVE",
"365 220 CURVE SMOOTH",
"365 67 OFFCURVE",
"422 -8 OFFCURVE",
"538 -8 CURVE SMOOTH",
"654 -8 OFFCURVE",
"722 113 OFFCURVE",
"722 324 CURVE SMOOTH",
"722 463 OFFCURVE",
"680 578 OFFCURVE",
"587 678 CURVE",
"530 629 LINE",
"566 585 OFFCURVE",
"647 498 OFFCURVE",
"647 324 CURVE SMOOTH",
"647 159 OFFCURVE",
"605 71 OFFCURVE",
"533 71 CURVE SMOOTH",
"442 71 OFFCURVE",
"433 156 OFFCURVE",
"433 275 CURVE SMOOTH",
"433 290 OFFCURVE",
"434 304 OFFCURVE",
"434 319 CURVE",
"471 358 OFFCURVE",
"489 407 OFFCURVE",
"489 467 CURVE SMOOTH",
"489 598 OFFCURVE",
"407 674 OFFCURVE",
"287 674 CURVE SMOOTH",
"123 674 OFFCURVE",
"35 537 OFFCURVE",
"35 353 CURVE SMOOTH",
"35 235 OFFCURVE",
"85 81 OFFCURVE",
"153 -15 CURVE"
);
},
{
closed = 1;
nodes = (
"274 334 OFFCURVE",
"260 346 OFFCURVE",
"260 370 CURVE SMOOTH",
"260 385 OFFCURVE",
"271 401 OFFCURVE",
"294 401 CURVE SMOOTH",
"324 401 OFFCURVE",
"344 384 OFFCURVE",
"354 349 CURVE",
"336 339 OFFCURVE",
"319 334 OFFCURVE",
"302 334 CURVE SMOOTH"
);
}
);
width = 769;
}
);
unicode = A8AF;
},
{
glyphname = uniA8B0;
lastChange = "2017-09-13 15:47:50 +0000";
layers = (
{
layerId = UUID0;
paths = (
{
closed = 1;
nodes = (
"487 -11 OFFCURVE",
"588 91 OFFCURVE",
"631 290 CURVE",
"672 263 OFFCURVE",
"693 230 OFFCURVE",
"693 179 CURVE SMOOTH",
"693 140 OFFCURVE",
"669 100 OFFCURVE",
"620 57 CURVE",
"681 -1 LINE",
"738 52 OFFCURVE",
"767 109 OFFCURVE",
"767 170 CURVE SMOOTH",
"767 255 OFFCURVE",
"726 305 OFFCURVE",
"650 364 CURVE",
"664 421 OFFCURVE",
"671 472 OFFCURVE",
"671 515 CURVE SMOOTH",
"671 616 OFFCURVE",
"619 674 OFFCURVE",
"531 674 CURVE SMOOTH",
"456 674 OFFCURVE",
"405 621 OFFCURVE",
"405 540 CURVE SMOOTH",
"405 451 OFFCURVE",
"476 395 OFFCURVE",
"571 336 CURVE",
"536 163 OFFCURVE",
"457 69 OFFCURVE",
"334 69 CURVE SMOOTH",
"191 69 OFFCURVE",
"105 173 OFFCURVE",
"105 362 CURVE SMOOTH",
"105 392 LINE",
"132 374 OFFCURVE",
"165 365 OFFCURVE",
"206 365 CURVE SMOOTH",
"287 365 OFFCURVE",
"339 426 OFFCURVE",
"339 518 CURVE SMOOTH",
"339 614 OFFCURVE",
"289 675 OFFCURVE",
"204 675 CURVE SMOOTH",
"93 675 OFFCURVE",
"38 566 OFFCURVE",
"38 362 CURVE SMOOTH",
"38 122 OFFCURVE",
"150 -11 OFFCURVE",
"334 -11 CURVE SMOOTH"
);
},
{
closed = 1;
nodes = (
"168 443 OFFCURVE",
"140 452 OFFCURVE",
"116 471 CURVE",
"124 556 OFFCURVE",
"152 597 OFFCURVE",
"205 597 CURVE SMOOTH",
"245 597 OFFCURVE",
"270 570 OFFCURVE",
"270 518 CURVE SMOOTH",
"270 473 OFFCURVE",
"245 443 OFFCURVE",
"201 443 CURVE SMOOTH"
);
},
{
closed = 1;
nodes = (
"514 446 OFFCURVE",
"479 487 OFFCURVE",
"479 536 CURVE SMOOTH",
"479 572 OFFCURVE",
"505 596 OFFCURVE",
"536 596 CURVE SMOOTH",
"579 596 OFFCURVE",
"597 572 OFFCURVE",
"597 515 CURVE SMOOTH",
"597 473 OFFCURVE",
"593 437 OFFCURVE",
"585 406 CURVE"
);
}
);
width = 798;
}
);
unicode = A8B0;
},
{
glyphname = uniA8B1;
lastChange = "2017-09-13 15:47:50 +0000";
layers = (
{
layerId = UUID0;
paths = (
{
closed = 1;
nodes = (
"584 -8 OFFCURVE",
"675 91 OFFCURVE",
"675 248 CURVE SMOOTH",
"675 339 OFFCURVE",
"625 425 OFFCURVE",
"625 524 CURVE SMOOTH",
"625 568 OFFCURVE",
"643 588 OFFCURVE",
"684 588 CURVE SMOOTH",
"692 588 LINE",
"692 666 LINE",
"609 666 OFFCURVE",
"558 614 OFFCURVE",
"558 526 CURVE SMOOTH",
"558 454 OFFCURVE",
"606 323 OFFCURVE",
"606 251 CURVE SMOOTH",
"606 140 OFFCURVE",
"537 72 OFFCURVE",
"453 72 CURVE SMOOTH",
"342 72 OFFCURVE",
"279 164 OFFCURVE",
"279 320 CURVE SMOOTH",
"279 383 OFFCURVE",
"289 438 OFFCURVE",
"308 485 CURVE",
"341 454 OFFCURVE",
"374 439 OFFCURVE",
"408 439 CURVE SMOOTH",
"476 439 OFFCURVE",
"516 480 OFFCURVE",
"516 552 CURVE SMOOTH",
"516 610 OFFCURVE",
"477 657 OFFCURVE",
"409 657 CURVE SMOOTH",
"369 657 OFFCURVE",
"326 632 OFFCURVE",
"291 588 CURVE",
"262 619 LINE SMOOTH",
"227 656 OFFCURVE",
"195 674 OFFCURVE",
"168 674 CURVE SMOOTH",
"84 674 OFFCURVE",
"47 626 OFFCURVE",
"47 517 CURVE SMOOTH",
"47 0 LINE",
"118 0 LINE",
"118 517 LINE SMOOTH",
"118 569 OFFCURVE",
"137 595 OFFCURVE",
"174 595 CURVE SMOOTH",
"195 595 OFFCURVE",
"218 580 OFFCURVE",
"258 536 CURVE",
"225 472 OFFCURVE",
"209 400 OFFCURVE",
"209 320 CURVE SMOOTH",
"209 116 OFFCURVE",
"306 -8 OFFCURVE",
"453 -8 CURVE SMOOTH"
);
},
{
closed = 1;
nodes = (
"384 514 OFFCURVE",
"362 523 OFFCURVE",
"339 541 CURVE",
"360 569 OFFCURVE",
"383 583 OFFCURVE",
"408 583 CURVE SMOOTH",
"432 583 OFFCURVE",
"448 570 OFFCURVE",
"448 550 CURVE SMOOTH",
"448 533 OFFCURVE",
"436 514 OFFCURVE",
"405 514 CURVE SMOOTH"
);
}
);
width = 727;
}
);
unicode = A8B1;
},
{
glyphname = uniA8B2;
lastChange = "2017-09-13 15:47:50 +0000";
layers = (
{
layerId = UUID0;
paths = (
{
closed = 1;
nodes = (
"473 -11 OFFCURVE",
"584 97 OFFCURVE",
"584 233 CURVE SMOOTH",
"584 287 OFFCURVE",
"574 325 OFFCURVE",
"555 360 CURVE",
"493 335 LINE",
"505 311 OFFCURVE",
"516 272 OFFCURVE",
"516 245 CURVE SMOOTH",
"516 139 OFFCURVE",
"432 68 OFFCURVE",
"331 68 CURVE SMOOTH",
"211 68 OFFCURVE",
"125 136 OFFCURVE",
"125 252 CURVE SMOOTH",
"125 315 OFFCURVE",
"150 366 OFFCURVE",
"199 406 CURVE",
"222 337 OFFCURVE",
"275 297 OFFCURVE",
"343 297 CURVE SMOOTH",
"413 297 OFFCURVE",
"459 348 OFFCURVE",
"459 407 CURVE SMOOTH",
"459 474 OFFCURVE",
"405 516 OFFCURVE",
"324 516 CURVE SMOOTH",
"301 516 OFFCURVE",
"279 513 OFFCURVE",
"257 506 CURVE",
"269 557 OFFCURVE",
"309 593 OFFCURVE",
"359 593 CURVE SMOOTH",
"554 593 LINE",
"571 666 LINE",
"57 666 LINE",
"41 593 LINE",
"226 593 LINE",
"201 562 OFFCURVE",
"188 526 OFFCURVE",
"188 485 CURVE SMOOTH",
"188 476 LINE",
"100 424 OFFCURVE",
"55 344 OFFCURVE",
"55 252 CURVE SMOOTH",
"55 93 OFFCURVE",
"176 -11 OFFCURVE",
"328 -11 CURVE SMOOTH"
);
},
{
closed = 1;
nodes = (
"304 373 OFFCURVE",
"271 399 OFFCURVE",
"259 439 CURVE",
"281 447 OFFCURVE",
"302 451 OFFCURVE",
"322 451 CURVE SMOOTH",
"361 451 OFFCURVE",
"385 435 OFFCURVE",
"385 410 CURVE SMOOTH",
"385 389 OFFCURVE",
"368 373 OFFCURVE",
"341 373 CURVE SMOOTH"
);
}
);
width = 626;
}
);
unicode = A8B2;
},
{
glyphname = uniA8B3;
lastChange = "2017-09-13 15:47:50 +0000";
layers = (
{
layerId = UUID0;
paths = (
{
closed = 1;
nodes = (
"238 80 LINE",
"137 93 OFFCURVE",
"122 221 OFFCURVE",
"122 373 CURVE SMOOTH",
"122 522 OFFCURVE",
"147 593 OFFCURVE",
"208 593 CURVE SMOOTH",
"271 593 OFFCURVE",
"278 519 OFFCURVE",
"278 423 CURVE SMOOTH",
"278 341 LINE",
"350 341 LINE",
"350 442 LINE SMOOTH",
"350 539 OFFCURVE",
"372 588 OFFCURVE",
"424 588 CURVE SMOOTH",
"479 588 OFFCURVE",
"502 537 OFFCURVE",
"502 442 CURVE SMOOTH",
"502 341 LINE",
"574 341 LINE",
"574 424 LINE SMOOTH",
"574 516 OFFCURVE",
"580 593 OFFCURVE",
"644 593 CURVE SMOOTH",
"705 593 OFFCURVE",
"730 522 OFFCURVE",
"730 373 CURVE SMOOTH",
"730 238 OFFCURVE",
"719 95 OFFCURVE",
"614 80 CURVE",
"614 -6 LINE",
"742 2 OFFCURVE",
"802 113 OFFCURVE",
"802 373 CURVE SMOOTH",
"802 574 OFFCURVE",
"753 673 OFFCURVE",
"650 673 CURVE SMOOTH",
"587 673 OFFCURVE",
"550 639 OFFCURVE",
"539 579 CURVE",
"536 578 LINE",
"525 642 OFFCURVE",
"489 674 OFFCURVE",
"428 674 CURVE SMOOTH",
"364 674 OFFCURVE",
"330 641 OFFCURVE",
"318 578 CURVE",
"315 577 LINE",
"306 638 OFFCURVE",
"266 673 OFFCURVE",
"197 673 CURVE SMOOTH",
"99 673 OFFCURVE",
"50 573 OFFCURVE",
"50 373 CURVE SMOOTH",
"50 113 OFFCURVE",
"110 2 OFFCURVE",
"238 -6 CURVE"
);
}
);
width = 847;
}
);
unicode = A8B3;
},
{
glyphname = uniA8B4;
lastChange = "2017-09-13 15:47:50 +0000";
layers = (
{
layerId = UUID0;
paths = (
{
closed = 1;
nodes = (
"330 0 LINE",
"330 666 LINE",
"257 656 LINE",
"257 337 LINE SMOOTH",
"257 300 OFFCURVE",
"224 277 OFFCURVE",
"191 277 CURVE SMOOTH",
"141 277 OFFCURVE",
"116 307 OFFCURVE",
"116 368 CURVE SMOOTH",
"116 666 LINE",
"42 656 LINE",
"42 365 LINE SMOOTH",
"42 266 OFFCURVE",
"94 207 OFFCURVE",
"185 207 CURVE SMOOTH",
"212 207 OFFCURVE",
"236 212 OFFCURVE",
"257 223 CURVE",
"257 0 LINE"
);
}
);
width = 373;
}
);
unicode = A8B4;
},
{
glyphname = uniA8B5;
lastChange = "2017-09-13 15:47:30 +0000";
layers = (
{
layerId = UUID0;
paths = (
{
closed = 1;
nodes = (
"301 -12 OFFCURVE",
"322 -8 OFFCURVE",
"345 1 CURVE",
"318 78 LINE",
"307 71 OFFCURVE",
"295 68 OFFCURVE",
"282 68 CURVE SMOOTH",
"258 68 OFFCURVE",
"240 80 OFFCURVE",
"240 108 CURVE SMOOTH",
"240 141 OFFCURVE",
"265 201 OFFCURVE",
"322 302 CURVE SMOOTH",
"351 353 OFFCURVE",
"408 450 OFFCURVE",
"493 592 CURVE",
"468 666 LINE",
"275 666 LINE SMOOTH",
"206 666 OFFCURVE",
"163 644 OFFCURVE",
"146 599 CURVE",
"130 642 OFFCURVE",
"87 666 OFFCURVE",
"27 666 CURVE",
"27 588 LINE",
"86 588 OFFCURVE",
"113 555 OFFCURVE",
"113 480 CURVE SMOOTH",
"113 398 LINE",
"187 398 LINE",
"187 508 LINE SMOOTH",
"187 565 OFFCURVE",
"216 593 OFFCURVE",
"275 593 CURVE SMOOTH",
"412 593 LINE",
"334 460 OFFCURVE",
"280 367 OFFCURVE",
"251 312 CURVE SMOOTH",
"213 241 OFFCURVE",
"165 150 OFFCURVE",
"165 104 CURVE SMOOTH",
"165 35 OFFCURVE",
"211 -12 OFFCURVE",
"282 -12 CURVE SMOOTH"
);
}
);
width = 517;
}
);
unicode = A8B5;
},
{
glyphname = uniA8B6;
lastChange = "2017-09-13 15:47:41 +0000";
layers = (
{
layerId = UUID0;
paths = (
{
closed = 1;
nodes = (
"-258 727 LINE",
"-263 736 OFFCURVE",
"-265 746 OFFCURVE",
"-265 756 CURVE SMOOTH",
"-265 784 OFFCURVE",
"-242 804 OFFCURVE",
"-193 804 CURVE SMOOTH",
"-144 804 OFFCURVE",
"-121 784 OFFCURVE",
"-121 756 CURVE SMOOTH",
"-121 745 OFFCURVE",
"-123 736 OFFCURVE",
"-128 727 CURVE",
"-62 704 LINE",
"-54 724 OFFCURVE",
"-50 743 OFFCURVE",
"-50 760 CURVE SMOOTH",
"-50 831 OFFCURVE",
"-104 877 OFFCURVE",
"-193 877 CURVE SMOOTH",
"-280 877 OFFCURVE",
"-336 832 OFFCURVE",
"-336 760 CURVE SMOOTH",
"-336 741 OFFCURVE",
"-332 723 OFFCURVE",
"-324 704 CURVE"
);
}
);
width = 0;
}
);
unicode = A8B6;
},
{
glyphname = uniA8B7;
lastChange = "2017-09-13 15:47:45 +0000";
layers = (
{
layerId = UUID0;
paths = (
{
closed = 1;
nodes = (
"317 -9 OFFCURVE",
"367 43 OFFCURVE",
"367 116 CURVE",
"293 116 LINE",
"293 89 OFFCURVE",
"277 70 OFFCURVE",
"244 70 CURVE SMOOTH",
"209 70 OFFCURVE",
"192 89 OFFCURVE",
"192 148 CURVE SMOOTH",
"192 672 LINE SMOOTH",
"192 811 OFFCURVE",
"143 883 OFFCURVE",
"31 883 CURVE SMOOTH",
"-57 883 OFFCURVE",
"-128 829 OFFCURVE",
"-128 749 CURVE SMOOTH",
"-128 732 OFFCURVE",
"-125 716 OFFCURVE",
"-119 702 CURVE",
"-49 726 LINE",
"-52 733 OFFCURVE",
"-53 742 OFFCURVE",
"-53 751 CURVE SMOOTH",
"-53 784 OFFCURVE",
"-15 809 OFFCURVE",
"32 809 CURVE SMOOTH",
"96 809 OFFCURVE",
"118 777 OFFCURVE",
"118 692 CURVE SMOOTH",
"118 148 LINE SMOOTH",
"118 37 OFFCURVE",
"163 -9 OFFCURVE",
"244 -9 CURVE SMOOTH"
);
}
);
width = 402;
}
);
unicode = A8B7;
},
{
glyphname = uniA8B8;
lastChange = "2017-09-13 15:47:30 +0000";
layers = (
{
layerId = UUID0;
paths = (
{
closed = 1;
nodes = (
"291 -9 OFFCURVE",
"341 55 OFFCURVE",
"341 166 CURVE SMOOTH",
"341 289 OFFCURVE",
"308 407 OFFCURVE",
"245 500 CURVE",
"264 525 OFFCURVE",
"283 546 OFFCURVE",
"302 561 CURVE",
"302 478 OFFCURVE",
"342 433 OFFCURVE",
"414 433 CURVE SMOOTH",
"482 433 OFFCURVE",
"524 481 OFFCURVE",
"524 553 CURVE SMOOTH",
"524 628 OFFCURVE",
"482 672 OFFCURVE",
"407 672 CURVE SMOOTH",
"338 672 OFFCURVE",
"270 631 OFFCURVE",
"205 550 CURVE",
"151 609 OFFCURVE",
"87 650 OFFCURVE",
"12 672 CURVE",
"-6 602 LINE",
"63 585 OFFCURVE",
"120 548 OFFCURVE",
"165 493 CURVE",
"110 406 OFFCURVE",
"57 266 OFFCURVE",
"57 167 CURVE SMOOTH",
"57 55 OFFCURVE",
"107 -9 OFFCURVE",
"200 -9 CURVE SMOOTH"
);
},
{
closed = 1;
nodes = (
"155 70 OFFCURVE",
"128 107 OFFCURVE",
"128 172 CURVE SMOOTH",
"128 254 OFFCURVE",
"162 360 OFFCURVE",
"205 437 CURVE",
"248 360 OFFCURVE",
"270 271 OFFCURVE",
"270 171 CURVE SMOOTH",
"270 107 OFFCURVE",
"238 70 OFFCURVE",
"200 70 CURVE SMOOTH"
);
},
{
closed = 1;
nodes = (
"380 507 OFFCURVE",
"365 526 OFFCURVE",
"365 565 CURVE SMOOTH",
"365 576 OFFCURVE",
"366 587 OFFCURVE",
"368 599 CURVE",
"384 604 OFFCURVE",
"398 606 OFFCURVE",
"411 606 CURVE SMOOTH",
"439 606 OFFCURVE",
"456 587 OFFCURVE",
"456 554 CURVE SMOOTH",
"456 527 OFFCURVE",
"439 507 OFFCURVE",
"410 507 CURVE SMOOTH"
);
}
);
width = 558;
}
);
unicode = A8B8;
},
{
glyphname = uniA8B9;
lastChange = "2017-09-13 15:47:30 +0000";
layers = (
{
layerId = UUID0;
paths = (
{
closed = 1;
nodes = (
"301 -9 OFFCURVE",
"352 55 OFFCURVE",
"352 166 CURVE SMOOTH",
"352 285 OFFCURVE",
"318 403 OFFCURVE",
"253 500 CURVE",
"272 526 OFFCURVE",
"291 546 OFFCURVE",
"308 561 CURVE",
"308 482 OFFCURVE",
"351 436 OFFCURVE",
"424 436 CURVE SMOOTH",
"489 436 OFFCURVE",
"532 482 OFFCURVE",
"532 553 CURVE SMOOTH",
"532 628 OFFCURVE",
"494 669 OFFCURVE",
"419 669 CURVE SMOOTH",
"410 669 OFFCURVE",
"402 668 OFFCURVE",
"393 667 CURVE",
"404 692 OFFCURVE",
"419 717 OFFCURVE",
"440 743 CURVE",
"390 776 LINE",
"355 731 OFFCURVE",
"332 686 OFFCURVE",
"320 643 CURVE",
"286 626 OFFCURVE",
"250 595 OFFCURVE",
"213 550 CURVE",
"159 610 OFFCURVE",
"95 651 OFFCURVE",
"22 672 CURVE",
"4 598 LINE",
"71 580 OFFCURVE",
"128 545 OFFCURVE",
"173 493 CURVE",
"116 400 OFFCURVE",
"66 267 OFFCURVE",
"66 167 CURVE SMOOTH",
"66 55 OFFCURVE",
"117 -9 OFFCURVE",
"210 -9 CURVE SMOOTH"
);
},
{
closed = 1;
nodes = (
"163 70 OFFCURVE",
"138 108 OFFCURVE",
"138 172 CURVE SMOOTH",
"138 248 OFFCURVE",
"166 350 OFFCURVE",
"213 437 CURVE",
"258 361 OFFCURVE",
"280 272 OFFCURVE",
"280 171 CURVE SMOOTH",
"280 107 OFFCURVE",
"248 70 OFFCURVE",
"210 70 CURVE SMOOTH"
);
},
{
closed = 1;
nodes = (
"387 507 OFFCURVE",
"371 528 OFFCURVE",
"371 569 CURVE SMOOTH",
"371 582 OFFCURVE",
"372 591 OFFCURVE",
"373 598 CURVE",
"388 603 OFFCURVE",
"403 606 OFFCURVE",
"417 606 CURVE SMOOTH",
"453 606 OFFCURVE",
"466 582 OFFCURVE",
"466 554 CURVE SMOOTH",
"466 525 OFFCURVE",
"447 507 OFFCURVE",
"420 507 CURVE SMOOTH"
);
}
);
width = 548;
}
);
unicode = A8B9;
},
{
glyphname = uniA8BA;
lastChange = "2017-09-13 15:47:30 +0000";
layers = (
{
layerId = UUID0;
paths = (
{
closed = 1;
nodes = (
"460 -9 OFFCURVE",
"551 57 OFFCURVE",
"551 184 CURVE SMOOTH",
"551 267 OFFCURVE",
"522 310 OFFCURVE",
"467 330 CURVE SMOOTH",
"440 340 OFFCURVE",
"396 346 OFFCURVE",
"335 346 CURVE SMOOTH",
"281 346 LINE SMOOTH",
"186 346 OFFCURVE",
"136 392 OFFCURVE",
"136 473 CURVE SMOOTH",
"136 552 OFFCURVE",
"196 596 OFFCURVE",
"297 596 CURVE SMOOTH",
"311 596 LINE",
"294 573 OFFCURVE",
"285 546 OFFCURVE",
"285 514 CURVE SMOOTH",
"285 442 OFFCURVE",
"334 396 OFFCURVE",
"403 396 CURVE SMOOTH",
"472 396 OFFCURVE",
"514 443 OFFCURVE",
"514 519 CURVE SMOOTH",
"514 610 OFFCURVE",
"433 672 OFFCURVE",
"295 672 CURVE SMOOTH",
"154 672 OFFCURVE",
"64 595 OFFCURVE",
"64 474 CURVE SMOOTH",
"64 349 OFFCURVE",
"141 279 OFFCURVE",
"281 279 CURVE SMOOTH",
"335 279 LINE SMOOTH",
"420 279 OFFCURVE",
"449 269 OFFCURVE",
"463 241 CURVE SMOOTH",
"470 227 OFFCURVE",
"474 206 OFFCURVE",
"474 179 CURVE SMOOTH",
"474 110 OFFCURVE",
"404 71 OFFCURVE",
"288 71 CURVE SMOOTH",
"172 71 OFFCURVE",
"113 110 OFFCURVE",
"113 181 CURVE SMOOTH",
"113 200 OFFCURVE",
"121 222 OFFCURVE",
"126 233 CURVE",
"53 257 LINE",
"41 226 OFFCURVE",
"35 199 OFFCURVE",
"35 176 CURVE SMOOTH",
"35 55 OFFCURVE",
"121 -9 OFFCURVE",
"289 -9 CURVE SMOOTH"
);
},
{
closed = 1;
nodes = (
"373 474 OFFCURVE",
"357 491 OFFCURVE",
"357 518 CURVE SMOOTH",
"357 541 OFFCURVE",
"367 563 OFFCURVE",
"388 584 CURVE",
"425 571 OFFCURVE",
"443 550 OFFCURVE",
"443 521 CURVE SMOOTH",
"443 490 OFFCURVE",
"429 474 OFFCURVE",
"401 474 CURVE SMOOTH"
);
}
);
width = 593;
}
);
unicode = A8BA;
},
{
glyphname = uniA8BB;
lastChange = "2017-09-13 15:47:30 +0000";
layers = (
{
layerId = UUID0;
paths = (
{
closed = 1;
nodes = (
"323 -170 OFFCURVE",
"359 -115 OFFCURVE",
"418 -115 CURVE SMOOTH",
"451 -115 OFFCURVE",
"473 -130 OFFCURVE",
"490 -157 CURVE",
"552 -120 LINE",
"512 -61 OFFCURVE",
"473 -39 OFFCURVE",
"429 -39 CURVE SMOOTH",
"353 -39 OFFCURVE",
"329 -95 OFFCURVE",
"235 -95 CURVE SMOOTH",
"188 -95 OFFCURVE",
"151 -77 OFFCURVE",
"112 -38 CURVE",
"65 -88 LINE",
"114 -143 OFFCURVE",
"173 -170 OFFCURVE",
"240 -170 CURVE SMOOTH"
);
},
{
closed = 1;
nodes = (
"373 474 OFFCURVE",
"357 491 OFFCURVE",
"357 518 CURVE SMOOTH",
"357 541 OFFCURVE",
"367 563 OFFCURVE",
"388 584 CURVE",
"425 571 OFFCURVE",
"443 550 OFFCURVE",
"443 521 CURVE SMOOTH",
"443 490 OFFCURVE",
"429 474 OFFCURVE",
"401 474 CURVE SMOOTH"
);
},
{
closed = 1;
nodes = (
"460 -9 OFFCURVE",
"551 57 OFFCURVE",
"551 184 CURVE SMOOTH",
"551 267 OFFCURVE",
"522 310 OFFCURVE",
"467 330 CURVE SMOOTH",
"440 340 OFFCURVE",
"396 346 OFFCURVE",
"335 346 CURVE SMOOTH",
"281 346 LINE SMOOTH",
"186 346 OFFCURVE",
"136 392 OFFCURVE",
"136 473 CURVE SMOOTH",
"136 552 OFFCURVE",
"196 596 OFFCURVE",
"297 596 CURVE SMOOTH",
"311 596 LINE",
"294 573 OFFCURVE",
"285 546 OFFCURVE",
"285 514 CURVE SMOOTH",
"285 442 OFFCURVE",
"334 396 OFFCURVE",
"403 396 CURVE SMOOTH",
"472 396 OFFCURVE",
"514 443 OFFCURVE",
"514 519 CURVE SMOOTH",
"514 610 OFFCURVE",
"433 672 OFFCURVE",
"295 672 CURVE SMOOTH",
"154 672 OFFCURVE",
"64 595 OFFCURVE",
"64 474 CURVE SMOOTH",
"64 349 OFFCURVE",
"141 279 OFFCURVE",
"281 279 CURVE SMOOTH",
"335 279 LINE SMOOTH",
"420 279 OFFCURVE",
"449 269 OFFCURVE",
"463 241 CURVE SMOOTH",
"470 227 OFFCURVE",
"474 206 OFFCURVE",
"474 179 CURVE SMOOTH",
"474 110 OFFCURVE",
"404 71 OFFCURVE",
"288 71 CURVE SMOOTH",
"172 71 OFFCURVE",
"113 110 OFFCURVE",
"113 181 CURVE SMOOTH",
"113 200 OFFCURVE",
"121 222 OFFCURVE",
"126 233 CURVE",
"53 257 LINE",
"41 226 OFFCURVE",
"35 199 OFFCURVE",
"35 176 CURVE SMOOTH",
"35 55 OFFCURVE",
"121 -9 OFFCURVE",
"289 -9 CURVE SMOOTH"
);
},
{
closed = 1;
nodes = (
"373 474 OFFCURVE",
"357 491 OFFCURVE",
"357 518 CURVE SMOOTH",
"357 541 OFFCURVE",
"367 563 OFFCURVE",
"388 584 CURVE",
"425 571 OFFCURVE",
"443 550 OFFCURVE",
"443 521 CURVE SMOOTH",
"443 490 OFFCURVE",
"429 474 OFFCURVE",
"401 474 CURVE SMOOTH"
);
}
);
width = 590;
}
);
unicode = A8BB;
},
{
glyphname = uniA8BC;
lastChange = "2017-09-13 15:47:30 +0000";
layers = (
{
layerId = UUID0;
paths = (
{
closed = 1;
nodes = (
"792 -8 OFFCURVE",
"842 90 OFFCURVE",
"842 315 CURVE SMOOTH",
"842 548 OFFCURVE",
"761 674 OFFCURVE",
"613 674 CURVE SMOOTH",
"536 674 OFFCURVE",
"478 641 OFFCURVE",
"439 575 CURVE",
"406 638 OFFCURVE",
"342 674 OFFCURVE",
"263 674 CURVE SMOOTH",
"124 674 OFFCURVE",
"43 554 OFFCURVE",
"43 339 CURVE SMOOTH",
"43 114 OFFCURVE",
"123 -2 OFFCURVE",
"280 -2 CURVE SMOOTH",
"283 -2 LINE",
"277 82 LINE",
"169 82 OFFCURVE",
"119 165 OFFCURVE",
"119 340 CURVE SMOOTH",
"119 508 OFFCURVE",
"172 595 OFFCURVE",
"273 595 CURVE SMOOTH",
"349 595 OFFCURVE",
"398 538 OFFCURVE",
"398 445 CURVE SMOOTH",
"398 0 LINE",
"473 0 LINE",
"473 439 LINE SMOOTH",
"473 538 OFFCURVE",
"526 596 OFFCURVE",
"611 596 CURVE SMOOTH",
"715 596 OFFCURVE",
"767 507 OFFCURVE",
"767 328 CURVE SMOOTH",
"767 313 OFFCURVE",
"766 299 OFFCURVE",
"765 284 CURVE",
"720 304 OFFCURVE",
"703 308 OFFCURVE",
"670 308 CURVE SMOOTH",
"587 308 OFFCURVE",
"537 252 OFFCURVE",
"537 157 CURVE SMOOTH",
"537 57 OFFCURVE",
"589 -8 OFFCURVE",
"679 -8 CURVE SMOOTH"
);
},
{
closed = 1;
nodes = (
"632 70 OFFCURVE",
"610 99 OFFCURVE",
"610 156 CURVE SMOOTH",
"610 208 OFFCURVE",
"637 238 OFFCURVE",
"677 238 CURVE SMOOTH",
"702 238 OFFCURVE",
"729 231 OFFCURVE",
"760 216 CURVE",
"756 121 OFFCURVE",
"732 70 OFFCURVE",
"675 70 CURVE SMOOTH"
);
}
);
width = 891;
}
);
unicode = A8BC;
},
{
glyphname = uniA8BD;
lastChange = "2017-09-13 15:47:30 +0000";
layers = (
{
layerId = UUID0;
paths = (
{
closed = 1;
nodes = (
"793 -8 OFFCURVE",
"843 90 OFFCURVE",
"843 315 CURVE SMOOTH",
"843 548 OFFCURVE",
"762 674 OFFCURVE",
"614 674 CURVE SMOOTH",
"537 674 OFFCURVE",
"479 641 OFFCURVE",
"440 575 CURVE",
"408 636 OFFCURVE",
"344 674 OFFCURVE",
"264 674 CURVE SMOOTH",
"125 674 OFFCURVE",
"44 554 OFFCURVE",
"44 339 CURVE SMOOTH",
"44 114 OFFCURVE",
"124 -2 OFFCURVE",
"281 -2 CURVE SMOOTH",
"284 -2 LINE",
"278 82 LINE",
"170 82 OFFCURVE",
"120 165 OFFCURVE",
"120 340 CURVE SMOOTH",
"120 508 OFFCURVE",
"173 595 OFFCURVE",
"274 595 CURVE SMOOTH",
"350 595 OFFCURVE",
"399 538 OFFCURVE",
"399 445 CURVE SMOOTH",
"399 0 LINE",
"474 0 LINE",
"474 439 LINE SMOOTH",
"474 538 OFFCURVE",
"527 596 OFFCURVE",
"612 596 CURVE SMOOTH",
"716 596 OFFCURVE",
"768 507 OFFCURVE",
"768 328 CURVE SMOOTH",
"768 313 OFFCURVE",
"767 299 OFFCURVE",
"766 284 CURVE",
"721 304 OFFCURVE",
"704 308 OFFCURVE",
"671 308 CURVE SMOOTH",
"588 308 OFFCURVE",
"538 252 OFFCURVE",
"538 157 CURVE SMOOTH",
"538 57 OFFCURVE",
"590 -8 OFFCURVE",
"680 -8 CURVE SMOOTH"
);
},
{
closed = 1;
nodes = (
"468 -175 OFFCURVE",
"538 -114 OFFCURVE",
"598 -114 CURVE SMOOTH",
"631 -114 OFFCURVE",
"648 -129 OFFCURVE",
"667 -156 CURVE",
"732 -119 LINE",
"693 -63 OFFCURVE",
"657 -44 OFFCURVE",
"612 -44 CURVE SMOOTH",
"523 -44 OFFCURVE",
"475 -103 OFFCURVE",
"370 -103 CURVE SMOOTH",
"322 -103 OFFCURVE",
"283 -87 OFFCURVE",
"231 -35 CURVE",
"182 -81 LINE",
"239 -144 OFFCURVE",
"302 -175 OFFCURVE",
"372 -175 CURVE SMOOTH"
);
},
{
closed = 1;
nodes = (
"633 70 OFFCURVE",
"611 99 OFFCURVE",
"611 156 CURVE SMOOTH",
"611 208 OFFCURVE",
"638 238 OFFCURVE",
"678 238 CURVE SMOOTH",
"703 238 OFFCURVE",
"730 231 OFFCURVE",
"761 216 CURVE",
"758 121 OFFCURVE",
"733 70 OFFCURVE",
"676 70 CURVE SMOOTH"
);
}
);
width = 896;
}
);
unicode = A8BD;
},
{
glyphname = uniA8BE;
lastChange = "2017-09-13 15:47:30 +0000";
layers = (
{
layerId = UUID0;
paths = (
{
closed = 1;
nodes = (
"310 41 OFFCURVE",
"420 206 OFFCURVE",
"420 409 CURVE SMOOTH",
"420 581 OFFCURVE",
"347 675 OFFCURVE",
"211 675 CURVE SMOOTH",
"95 675 OFFCURVE",
"25 592 OFFCURVE",
"25 481 CURVE SMOOTH",
"25 370 OFFCURVE",
"99 288 OFFCURVE",
"218 288 CURVE SMOOTH",
"263 288 OFFCURVE",
"303 297 OFFCURVE",
"340 316 CURVE",
"317 197 OFFCURVE",
"245 114 OFFCURVE",
"125 66 CURVE",
"158 -10 LINE"
);
},
{
closed = 1;
nodes = (
"143 362 OFFCURVE",
"100 406 OFFCURVE",
"100 481 CURVE SMOOTH",
"100 557 OFFCURVE",
"142 601 OFFCURVE",
"215 601 CURVE SMOOTH",
"309 601 OFFCURVE",
"349 541 OFFCURVE",
"349 401 CURVE",
"297 369 OFFCURVE",
"266 362 OFFCURVE",
"218 362 CURVE SMOOTH"
);
}
);
width = 448;
}
);
unicode = A8BE;
},
{
glyphname = uniA8BF;
lastChange = "2017-09-13 15:47:30 +0000";
layers = (
{
layerId = UUID0;
paths = (
{
closed = 1;
nodes = (
"417 -11 OFFCURVE",
"512 74 OFFCURVE",
"512 184 CURVE SMOOTH",
"512 312 OFFCURVE",
"442 377 OFFCURVE",
"322 377 CURVE SMOOTH",
"316 377 LINE",
"316 303 LINE",
"320 303 OFFCURVE",
"324 304 OFFCURVE",
"328 304 CURVE SMOOTH",
"400 304 OFFCURVE",
"438 263 OFFCURVE",
"438 195 CURVE SMOOTH",
"438 113 OFFCURVE",
"375 71 OFFCURVE",
"296 71 CURVE SMOOTH",
"216 71 OFFCURVE",
"155 119 OFFCURVE",
"155 202 CURVE SMOOTH",
"155 345 OFFCURVE",
"275 429 OFFCURVE",
"433 530 CURVE SMOOTH",
"530 592 LINE",
"505 666 LINE",
"129 666 LINE SMOOTH",
"69 666 OFFCURVE",
"30 638 OFFCURVE",
"30 590 CURVE SMOOTH",
"30 565 OFFCURVE",
"40 539 OFFCURVE",
"59 511 CURVE SMOOTH",
"104 447 LINE",
"161 488 LINE",
"124 541 LINE SMOOTH",
"116 553 OFFCURVE",
"112 563 OFFCURVE",
"112 570 CURVE SMOOTH",
"112 585 OFFCURVE",
"123 592 OFFCURVE",
"139 592 CURVE SMOOTH",
"400 592 LINE",
"325 544 OFFCURVE",
"269 505 OFFCURVE",
"233 476 CURVE SMOOTH",
"141 402 OFFCURVE",
"82 313 OFFCURVE",
"82 199 CURVE SMOOTH",
"82 77 OFFCURVE",
"179 -11 OFFCURVE",
"297 -11 CURVE SMOOTH"
);
}
);
width = 567;
}
);
unicode = A8BF;
},
{
glyphname = uniA8C0;
lastChange = "2017-09-13 15:47:30 +0000";
layers = (
{
layerId = UUID0;
paths = (
{
closed = 1;
nodes = (
"324 -5 OFFCURVE",
"417 158 OFFCURVE",
"417 355 CURVE SMOOTH",
"417 581 OFFCURVE",
"343 675 OFFCURVE",
"211 675 CURVE SMOOTH",
"95 675 OFFCURVE",
"25 592 OFFCURVE",
"25 481 CURVE SMOOTH",
"25 370 OFFCURVE",
"99 288 OFFCURVE",
"218 288 CURVE SMOOTH",
"263 288 OFFCURVE",
"307 299 OFFCURVE",
"349 321 CURVE",
"346 267 OFFCURVE",
"334 217 OFFCURVE",
"313 172 CURVE",
"268 217 OFFCURVE",
"235 234 OFFCURVE",
"186 234 CURVE SMOOTH",
"117 234 OFFCURVE",
"72 186 OFFCURVE",
"72 114 CURVE SMOOTH",
"72 45 OFFCURVE",
"122 -5 OFFCURVE",
"200 -5 CURVE SMOOTH"
);
},
{
closed = 1;
nodes = (
"164 68 OFFCURVE",
"144 85 OFFCURVE",
"144 114 CURVE SMOOTH",
"144 139 OFFCURVE",
"159 159 OFFCURVE",
"192 159 CURVE SMOOTH",
"217 159 OFFCURVE",
"244 143 OFFCURVE",
"275 112 CURVE",
"251 83 OFFCURVE",
"226 68 OFFCURVE",
"199 68 CURVE SMOOTH"
);
},
{
closed = 1;
nodes = (
"142 362 OFFCURVE",
"99 408 OFFCURVE",
"99 481 CURVE SMOOTH",
"99 557 OFFCURVE",
"142 601 OFFCURVE",
"215 601 CURVE SMOOTH",
"302 601 OFFCURVE",
"343 542 OFFCURVE",
"350 402 CURVE",
"305 373 OFFCURVE",
"271 362 OFFCURVE",
"218 362 CURVE SMOOTH"
);
}
);
width = 449;
}
);
unicode = A8C0;
},
{
glyphname = uniA8C1;
lastChange = "2017-09-13 15:47:30 +0000";
layers = (
{
layerId = UUID0;
paths = (
{
closed = 1;
nodes = (
"417 -11 OFFCURVE",
"426 -10 OFFCURVE",
"434 -9 CURVE",
"427 65 LINE",
"420 64 OFFCURVE",
"413 63 OFFCURVE",
"406 63 CURVE SMOOTH",
"361 63 OFFCURVE",
"322 95 OFFCURVE",
"285 160 CURVE SMOOTH",
"240 238 OFFCURVE",
"213 269 OFFCURVE",
"180 278 CURVE",
"279 293 OFFCURVE",
"372 350 OFFCURVE",
"430 430 CURVE SMOOTH",
"459 470 OFFCURVE",
"474 508 OFFCURVE",
"474 545 CURVE SMOOTH",
"474 621 OFFCURVE",
"424 666 OFFCURVE",
"358 666 CURVE SMOOTH",
"152 666 LINE SMOOTH",
"69 666 OFFCURVE",
"29 631 OFFCURVE",
"29 567 CURVE SMOOTH",
"29 482 OFFCURVE",
"118 416 OFFCURVE",
"221 386 CURVE",
"242 452 LINE",
"141 485 OFFCURVE",
"103 516 OFFCURVE",
"103 560 CURVE SMOOTH",
"103 581 OFFCURVE",
"120 592 OFFCURVE",
"154 592 CURVE SMOOTH",
"358 592 LINE SMOOTH",
"386 592 OFFCURVE",
"405 574 OFFCURVE",
"405 544 CURVE SMOOTH",
"405 496 OFFCURVE",
"375 458 OFFCURVE",
"332 419 CURVE SMOOTH",
"275 368 OFFCURVE",
"183 331 OFFCURVE",
"66 330 CURVE",
"66 258 LINE",
"111 258 OFFCURVE",
"145 241 OFFCURVE",
"173 210 CURVE SMOOTH",
"187 194 OFFCURVE",
"208 166 OFFCURVE",
"234 124 CURVE SMOOTH",
"260 82 OFFCURVE",
"278 53 OFFCURVE",
"294 37 CURVE SMOOTH",
"328 3 OFFCURVE",
"362 -11 OFFCURVE",
"409 -11 CURVE SMOOTH"
);
}
);
width = 507;
}
);
unicode = A8C1;
},
{
glyphname = uniA8C2;
lastChange = "2017-09-13 15:47:30 +0000";
layers = (
{
layerId = UUID0;
paths = (
{
closed = 1;
nodes = (
"503 -9 OFFCURVE",
"555 13 OFFCURVE",
"620 62 CURVE",
"620 666 LINE",
"547 666 LINE",
"547 107 LINE",
"513 81 OFFCURVE",
"472 68 OFFCURVE",
"425 68 CURVE SMOOTH",
"375 68 OFFCURVE",
"329 99 OFFCURVE",
"287 162 CURVE SMOOTH",
"236 239 OFFCURVE",
"212 267 OFFCURVE",
"180 278 CURVE",
"279 293 OFFCURVE",
"372 350 OFFCURVE",
"430 430 CURVE SMOOTH",
"459 470 OFFCURVE",
"474 508 OFFCURVE",
"474 545 CURVE SMOOTH",
"474 621 OFFCURVE",
"424 666 OFFCURVE",
"358 666 CURVE SMOOTH",
"152 666 LINE SMOOTH",
"69 666 OFFCURVE",
"29 631 OFFCURVE",
"29 567 CURVE SMOOTH",
"29 491 OFFCURVE",
"103 423 OFFCURVE",
"219 388 CURVE",
"242 452 LINE",
"143 484 OFFCURVE",
"103 517 OFFCURVE",
"103 560 CURVE SMOOTH",
"103 581 OFFCURVE",
"120 592 OFFCURVE",
"154 592 CURVE SMOOTH",
"358 592 LINE SMOOTH",
"386 592 OFFCURVE",
"405 574 OFFCURVE",
"405 545 CURVE SMOOTH",
"405 512 OFFCURVE",
"391 474 OFFCURVE",
"341 427 CURVE SMOOTH",
"294 383 OFFCURVE",
"210 333 OFFCURVE",
"66 330 CURVE",
"66 258 LINE",
"221 253 OFFCURVE",
"242 -9 OFFCURVE",
"428 -9 CURVE SMOOTH"
);
}
);
width = 672;
}
);
unicode = A8C2;
},
{
glyphname = uniA8C3;
lastChange = "2017-09-13 15:47:30 +0000";
layers = (
{
layerId = UUID0;
paths = (
{
closed = 1;
nodes = (
"348 -9 OFFCURVE",
"376 21 OFFCURVE",
"376 114 CURVE SMOOTH",
"376 314 LINE",
"510 366 LINE",
"510 132 LINE SMOOTH",
"510 47 OFFCURVE",
"564 -9 OFFCURVE",
"645 -9 CURVE SMOOTH",
"698 -9 OFFCURVE",
"732 9 OFFCURVE",
"765 46 CURVE",
"712 105 LINE",
"685 78 OFFCURVE",
"668 70 OFFCURVE",
"645 70 CURVE SMOOTH",
"608 70 OFFCURVE",
"581 98 OFFCURVE",
"581 137 CURVE SMOOTH",
"581 393 LINE",
"650 420 LINE SMOOTH",
"729 451 OFFCURVE",
"759 488 OFFCURVE",
"759 551 CURVE SMOOTH",
"759 619 OFFCURVE",
"709 672 OFFCURVE",
"640 672 CURVE SMOOTH",
"555 672 OFFCURVE",
"510 629 OFFCURVE",
"510 525 CURVE SMOOTH",
"510 437 LINE",
"376 384 LINE",
"376 518 LINE SMOOTH",
"376 617 OFFCURVE",
"335 666 OFFCURVE",
"252 666 CURVE SMOOTH",
"152 666 LINE SMOOTH",
"81 666 OFFCURVE",
"42 631 OFFCURVE",
"42 572 CURVE SMOOTH",
"42 500 OFFCURVE",
"131 422 OFFCURVE",
"203 392 CURVE",
"233 460 LINE",
"166 487 OFFCURVE",
"116 530 OFFCURVE",
"116 566 CURVE SMOOTH",
"116 585 OFFCURVE",
"129 595 OFFCURVE",
"152 595 CURVE SMOOTH",
"252 595 LINE SMOOTH",
"287 595 OFFCURVE",
"305 571 OFFCURVE",
"305 523 CURVE SMOOTH",
"305 356 LINE",
"174 305 LINE SMOOTH",
"106 278 OFFCURVE",
"86 256 OFFCURVE",
"86 215 CURVE SMOOTH",
"86 190 OFFCURVE",
"98 160 OFFCURVE",
"121 125 CURVE SMOOTH",
"144 90 OFFCURVE",
"173 58 OFFCURVE",
"206 31 CURVE SMOOTH",
"239 4 OFFCURVE",
"267 -9 OFFCURVE",
"288 -9 CURVE SMOOTH"
);
},
{
closed = 1;
nodes = (
"273 70 OFFCURVE",
"258 78 OFFCURVE",
"237 95 CURVE SMOOTH",
"216 112 OFFCURVE",
"199 131 OFFCURVE",
"184 150 CURVE SMOOTH",
"169 170 OFFCURVE",
"162 186 OFFCURVE",
"162 199 CURVE SMOOTH",
"162 224 OFFCURVE",
"173 235 OFFCURVE",
"206 248 CURVE SMOOTH",
"305 286 LINE",
"305 107 LINE SMOOTH",
"305 80 OFFCURVE",
"298 70 OFFCURVE",
"282 70 CURVE SMOOTH"
);
},
{
closed = 1;
nodes = (
"581 530 LINE SMOOTH",
"581 574 OFFCURVE",
"600 596 OFFCURVE",
"638 596 CURVE SMOOTH",
"667 596 OFFCURVE",
"685 575 OFFCURVE",
"685 548 CURVE SMOOTH",
"685 519 OFFCURVE",
"663 497 OFFCURVE",
"620 480 CURVE SMOOTH",
"581 465 LINE"
);
}
);
width = 785;
}
);
unicode = A8C3;
},
{
glyphname = uniA8C4;
lastChange = "2017-09-13 15:47:41 +0000";
layers = (
{
layerId = UUID0;
paths = (
{
closed = 1;
nodes = (
"-195 -188 LINE",
"-381 -56 LINE",
"-422 -108 LINE",
"-248 -256 LINE"
);
}
);
width = 0;
}
);
unicode = A8C4;
},
{
glyphname = uniA8C5;
lastChange = "2017-09-13 15:47:30 +0000";
layers = (
{
layerId = UUID0;
paths = (
{
closed = 1;
nodes = (
"-59 708 OFFCURVE",
"22 748 OFFCURVE",
"49 842 CURVE",
"-19 862 LINE",
"-34 805 OFFCURVE",
"-90 779 OFFCURVE",
"-155 779 CURVE SMOOTH",
"-232 779 OFFCURVE",
"-276 814 OFFCURVE",
"-288 862 CURVE",
"-355 842 LINE",
"-333 749 OFFCURVE",
"-245 708 OFFCURVE",
"-152 708 CURVE SMOOTH"
);
},
{
closed = 1;
nodes = (
"-102 835 OFFCURVE",
"-64 871 OFFCURVE",
"-64 928 CURVE SMOOTH",
"-64 982 OFFCURVE",
"-98 1021 OFFCURVE",
"-156 1021 CURVE SMOOTH",
"-213 1021 OFFCURVE",
"-247 985 OFFCURVE",
"-247 928 CURVE SMOOTH",
"-247 870 OFFCURVE",
"-211 835 OFFCURVE",
"-156 835 CURVE SMOOTH"
);
},
{
closed = 1;
nodes = (
"-180 889 OFFCURVE",
"-191 902 OFFCURVE",
"-191 929 CURVE SMOOTH",
"-191 957 OFFCURVE",
"-180 968 OFFCURVE",
"-155 968 CURVE SMOOTH",
"-129 968 OFFCURVE",
"-119 957 OFFCURVE",
"-119 929 CURVE SMOOTH",
"-119 902 OFFCURVE",
"-131 889 OFFCURVE",
"-155 889 CURVE SMOOTH"
);
}
);
width = 0;
}
);
unicode = A8C5;
},
{
glyphname = uniA8CE;
lastChange = "2017-09-13 15:47:30 +0000";
layers = (
{
layerId = UUID0;
paths = (
{
closed = 1;
nodes = (
"150 -20 LINE",
"150 686 LINE",
"77 686 LINE",
"77 -20 LINE"
);
}
);
width = 241;
}
);
unicode = A8CE;
},
{
glyphname = uniA8CF;
lastChange = "2017-09-13 15:47:30 +0000";
layers = (
{
layerId = UUID0;
paths = (
{
closed = 1;
nodes = (
"340 -20 LINE",
"340 686 LINE",
"267 686 LINE",
"267 -20 LINE"
);
},
{
closed = 1;
nodes = (
"150 -20 LINE",
"150 686 LINE",
"77 686 LINE",
"77 -20 LINE"
);
}
);
width = 447;
}
);
unicode = A8CF;
},
{
glyphname = uniA8D0;
lastChange = "2017-09-13 15:47:30 +0000";
layers = (
{
layerId = UUID0;
paths = (
{
closed = 1;
nodes = (
"433 -9 OFFCURVE",
"517 110 OFFCURVE",
"517 327 CURVE SMOOTH",
"517 546 OFFCURVE",
"432 672 OFFCURVE",
"281 672 CURVE SMOOTH",
"132 672 OFFCURVE",
"46 547 OFFCURVE",
"46 327 CURVE SMOOTH",
"46 116 OFFCURVE",
"132 -9 OFFCURVE",
"281 -9 CURVE SMOOTH"
);
},
{
closed = 1;
nodes = (
"174 74 OFFCURVE",
"121 152 OFFCURVE",
"121 327 CURVE SMOOTH",
"121 505 OFFCURVE",
"174 594 OFFCURVE",
"281 594 CURVE SMOOTH",
"388 594 OFFCURVE",
"442 505 OFFCURVE",
"442 327 CURVE SMOOTH",
"442 152 OFFCURVE",
"389 74 OFFCURVE",
"281 74 CURVE SMOOTH"
);
}
);
width = 567;
}
);
unicode = A8D0;
},
{
glyphname = uniA8D1;
lastChange = "2017-09-13 15:47:30 +0000";
layers = (
{
layerId = UUID0;
paths = (
{
closed = 1;
nodes = (
"261 59 LINE",
"234 64 OFFCURVE",
"211 85 OFFCURVE",
"211 110 CURVE SMOOTH",
"211 142 OFFCURVE",
"253 207 OFFCURVE",
"302 286 CURVE SMOOTH",
"348 360 OFFCURVE",
"370 427 OFFCURVE",
"370 480 CURVE SMOOTH",
"370 606 OFFCURVE",
"303 675 OFFCURVE",
"203 675 CURVE SMOOTH",
"99 675 OFFCURVE",
"29 602 OFFCURVE",
"29 494 CURVE SMOOTH",
"29 385 OFFCURVE",
"96 317 OFFCURVE",
"201 317 CURVE SMOOTH",
"214 317 OFFCURVE",
"228 318 OFFCURVE",
"241 320 CURVE",
"227 295 OFFCURVE",
"214 276 OFFCURVE",
"202 258 CURVE SMOOTH",
"160 195 OFFCURVE",
"132 138 OFFCURVE",
"132 100 CURVE SMOOTH",
"132 43 OFFCURVE",
"166 5 OFFCURVE",
"233 -13 CURVE"
);
},
{
closed = 1;
nodes = (
"137 388 OFFCURVE",
"103 423 OFFCURVE",
"103 494 CURVE SMOOTH",
"103 561 OFFCURVE",
"137 596 OFFCURVE",
"200 596 CURVE SMOOTH",
"265 596 OFFCURVE",
"299 558 OFFCURVE",
"299 485 CURVE SMOOTH",
"299 460 OFFCURVE",
"293 431 OFFCURVE",
"281 400 CURVE",
"262 392 OFFCURVE",
"234 388 OFFCURVE",
"198 388 CURVE SMOOTH"
);
}
);
width = 420;
}
);
unicode = A8D1;
},
{
glyphname = uniA8D2;
lastChange = "2017-09-13 15:47:30 +0000";
layers = (
{
layerId = UUID0;
paths = (
{
closed = 1;
nodes = (
"380 9 OFFCURVE",
"391 10 OFFCURVE",
"402 11 CURVE",
"395 89 LINE",
"385 88 OFFCURVE",
"376 87 OFFCURVE",
"366 87 CURVE SMOOTH",
"299 87 OFFCURVE",
"271 125 OFFCURVE",
"228 196 CURVE SMOOTH",
"207 231 OFFCURVE",
"188 256 OFFCURVE",
"171 271 CURVE",
"182 270 OFFCURVE",
"194 269 OFFCURVE",
"205 269 CURVE SMOOTH",
"331 269 OFFCURVE",
"408 353 OFFCURVE",
"408 477 CURVE SMOOTH",
"408 585 OFFCURVE",
"330 675 OFFCURVE",
"217 675 CURVE SMOOTH",
"145 675 OFFCURVE",
"84 653 OFFCURVE",
"28 600 CURVE",
"80 537 LINE",
"129 578 OFFCURVE",
"161 594 OFFCURVE",
"220 594 CURVE SMOOTH",
"291 594 OFFCURVE",
"334 548 OFFCURVE",
"334 475 CURVE SMOOTH",
"334 391 OFFCURVE",
"276 338 OFFCURVE",
"176 338 CURVE SMOOTH",
"150 338 OFFCURVE",
"122 342 OFFCURVE",
"92 350 CURVE",
"68 280 LINE",
"191 209 OFFCURVE",
"181 9 OFFCURVE",
"369 9 CURVE SMOOTH"
);
}
);
width = 448;
}
);
unicode = A8D2;
},
{
glyphname = uniA8D3;
lastChange = "2017-09-13 15:47:30 +0000";
layers = (
{
layerId = UUID0;
paths = (
{
closed = 1;
nodes = (
"363 -8 OFFCURVE",
"455 71 OFFCURVE",
"455 195 CURVE SMOOTH",
"455 295 OFFCURVE",
"411 357 OFFCURVE",
"328 376 CURVE",
"384 397 OFFCURVE",
"418 448 OFFCURVE",
"418 509 CURVE SMOOTH",
"418 616 OFFCURVE",
"357 677 OFFCURVE",
"254 677 CURVE SMOOTH",
"199 677 OFFCURVE",
"148 659 OFFCURVE",
"102 623 CURVE",
"148 557 LINE",
"182 584 OFFCURVE",
"218 597 OFFCURVE",
"257 597 CURVE SMOOTH",
"317 597 OFFCURVE",
"345 565 OFFCURVE",
"345 509 CURVE SMOOTH",
"345 448 OFFCURVE",
"295 407 OFFCURVE",
"212 407 CURVE",
"212 339 LINE",
"229 339 LINE SMOOTH",
"330 339 OFFCURVE",
"383 289 OFFCURVE",
"383 198 CURVE SMOOTH",
"383 119 OFFCURVE",
"321 70 OFFCURVE",
"242 70 CURVE SMOOTH",
"153 70 OFFCURVE",
"107 106 OFFCURVE",
"107 169 CURVE SMOOTH",
"107 201 OFFCURVE",
"129 228 OFFCURVE",
"164 229 CURVE",
"164 304 LINE",
"86 302 OFFCURVE",
"37 245 OFFCURVE",
"37 167 CURVE SMOOTH",
"37 60 OFFCURVE",
"122 -8 OFFCURVE",
"245 -8 CURVE SMOOTH"
);
}
);
width = 493;
}
);
unicode = A8D3;
},
{
glyphname = uniA8D4;
lastChange = "2017-09-13 15:47:30 +0000";
layers = (
{
layerId = UUID0;
paths = (
{
closed = 1;
nodes = (
"356 -9 OFFCURVE",
"460 59 OFFCURVE",
"460 186 CURVE SMOOTH",
"460 274 OFFCURVE",
"412 340 OFFCURVE",
"321 380 CURVE",
"428 429 OFFCURVE",
"460 475 OFFCURVE",
"460 545 CURVE SMOOTH",
"460 592 OFFCURVE",
"431 642 OFFCURVE",
"376 674 CURVE",
"328 621 LINE",
"365 598 OFFCURVE",
"386 576 OFFCURVE",
"386 535 CURVE SMOOTH",
"386 502 OFFCURVE",
"367 475 OFFCURVE",
"332 452 CURVE SMOOTH",
"315 441 OFFCURVE",
"287 428 OFFCURVE",
"248 411 CURVE",
"149 448 OFFCURVE",
"111 488 OFFCURVE",
"111 535 CURVE SMOOTH",
"111 576 OFFCURVE",
"132 598 OFFCURVE",
"169 621 CURVE",
"121 674 LINE",
"66 642 OFFCURVE",
"37 595 OFFCURVE",
"37 539 CURVE SMOOTH",
"37 475 OFFCURVE",
"71 429 OFFCURVE",
"175 380 CURVE",
"86 341 OFFCURVE",
"37 272 OFFCURVE",
"37 189 CURVE SMOOTH",
"37 64 OFFCURVE",
"132 -9 OFFCURVE",
"249 -9 CURVE SMOOTH"
);
},
{
closed = 1;
nodes = (
"166 69 OFFCURVE",
"104 113 OFFCURVE",
"104 191 CURVE SMOOTH",
"104 257 OFFCURVE",
"145 304 OFFCURVE",
"248 350 CURVE",
"352 307 OFFCURVE",
"392 260 OFFCURVE",
"392 200 CURVE SMOOTH",
"392 120 OFFCURVE",
"336 69 OFFCURVE",
"250 69 CURVE SMOOTH"
);
}
);
width = 511;
}
);
unicode = A8D4;
},
{
glyphname = uniA8D5;
lastChange = "2017-09-13 15:47:30 +0000";
layers = (
{
layerId = UUID0;
paths = (
{
closed = 1;
nodes = (
"378 -9 LINE SMOOTH",
"483 -9 OFFCURVE",
"543 61 OFFCURVE",
"543 188 CURVE SMOOTH",
"543 317 OFFCURVE",
"487 386 OFFCURVE",
"388 386 CURVE SMOOTH",
"376 386 OFFCURVE",
"360 383 OFFCURVE",
"340 377 CURVE",
"465 641 LINE",
"405 674 LINE",
"249 344 LINE",
"228 337 OFFCURVE",
"209 334 OFFCURVE",
"194 334 CURVE SMOOTH",
"145 334 OFFCURVE",
"116 384 OFFCURVE",
"116 464 CURVE SMOOTH",
"116 549 OFFCURVE",
"153 592 OFFCURVE",
"226 592 CURVE",
"226 672 LINE",
"223 672 LINE SMOOTH",
"110 672 OFFCURVE",
"46 596 OFFCURVE",
"46 464 CURVE SMOOTH",
"46 339 OFFCURVE",
"102 265 OFFCURVE",
"194 265 CURVE SMOOTH",
"200 265 OFFCURVE",
"206 265 OFFCURVE",
"212 266 CURVE",
"105 41 LINE",
"164 7 LINE",
"301 295 LINE",
"332 306 OFFCURVE",
"361 317 OFFCURVE",
"388 317 CURVE SMOOTH",
"439 317 OFFCURVE",
"471 271 OFFCURVE",
"471 191 CURVE SMOOTH",
"471 151 OFFCURVE",
"463 115 OFFCURVE",
"442 95 CURVE SMOOTH",
"426 79 OFFCURVE",
"403 73 OFFCURVE",
"367 71 CURVE",
"367 -9 LINE"
);
}
);
width = 591;
}
);
unicode = A8D5;
},
{
glyphname = uniA8D6;
lastChange = "2017-09-13 15:47:30 +0000";
layers = (
{
layerId = UUID0;
paths = (
{
closed = 1;
nodes = (
"319 -9 OFFCURVE",
"383 28 OFFCURVE",
"423 93 CURVE",
"367 142 LINE",
"334 93 OFFCURVE",
"291 68 OFFCURVE",
"239 68 CURVE SMOOTH",
"152 68 OFFCURVE",
"108 115 OFFCURVE",
"108 210 CURVE SMOOTH",
"108 302 OFFCURVE",
"158 352 OFFCURVE",
"258 352 CURVE SMOOTH",
"262 352 LINE",
"262 416 LINE",
"157 416 OFFCURVE",
"105 449 OFFCURVE",
"105 514 CURVE SMOOTH",
"105 567 OFFCURVE",
"148 597 OFFCURVE",
"236 597 CURVE SMOOTH",
"308 597 OFFCURVE",
"344 577 OFFCURVE",
"344 537 CURVE SMOOTH",
"344 517 OFFCURVE",
"338 505 OFFCURVE",
"315 486 CURVE",
"367 433 LINE",
"399 458 OFFCURVE",
"418 498 OFFCURVE",
"418 533 CURVE SMOOTH",
"418 625 OFFCURVE",
"352 670 OFFCURVE",
"231 670 CURVE SMOOTH",
"110 670 OFFCURVE",
"33 612 OFFCURVE",
"33 515 CURVE SMOOTH",
"33 442 OFFCURVE",
"78 394 OFFCURVE",
"157 381 CURVE",
"76 362 OFFCURVE",
"36 304 OFFCURVE",
"36 208 CURVE SMOOTH",
"36 68 OFFCURVE",
"116 -9 OFFCURVE",
"240 -9 CURVE SMOOTH"
);
}
);
width = 472;
}
);
unicode = A8D6;
},
{
glyphname = uniA8D7;
lastChange = "2017-09-13 15:47:30 +0000";
layers = (
{
layerId = UUID0;
paths = (
{
closed = 1;
nodes = (
"327 -10 OFFCURVE",
"365 17 OFFCURVE",
"405 72 CURVE SMOOTH",
"483 179 OFFCURVE",
"549 370 OFFCURVE",
"549 499 CURVE SMOOTH",
"549 607 OFFCURVE",
"499 672 OFFCURVE",
"420 672 CURVE SMOOTH",
"335 672 OFFCURVE",
"281 608 OFFCURVE",
"281 507 CURVE SMOOTH",
"281 420 OFFCURVE",
"333 353 OFFCURVE",
"417 353 CURVE SMOOTH",
"430 353 OFFCURVE",
"444 355 OFFCURVE",
"457 358 CURVE",
"429 253 OFFCURVE",
"385 157 OFFCURVE",
"345 109 CURVE SMOOTH",
"325 85 OFFCURVE",
"307 73 OFFCURVE",
"291 73 CURVE SMOOTH",
"268 73 OFFCURVE",
"242 95 OFFCURVE",
"213 138 CURVE SMOOTH",
"156 223 OFFCURVE",
"110 377 OFFCURVE",
"110 481 CURVE SMOOTH",
"110 545 OFFCURVE",
"121 614 OFFCURVE",
"140 651 CURVE",
"65 675 LINE",
"45 626 OFFCURVE",
"35 561 OFFCURVE",
"35 481 CURVE SMOOTH",
"35 351 OFFCURVE",
"97 173 OFFCURVE",
"176 68 CURVE SMOOTH",
"215 16 OFFCURVE",
"254 -10 OFFCURVE",
"291 -10 CURVE SMOOTH"
);
},
{
closed = 1;
nodes = (
"374 424 OFFCURVE",
"351 452 OFFCURVE",
"351 509 CURVE SMOOTH",
"351 568 OFFCURVE",
"371 596 OFFCURVE",
"418 596 CURVE SMOOTH",
"458 596 OFFCURVE",
"479 565 OFFCURVE",
"479 505 CURVE SMOOTH",
"479 484 OFFCURVE",
"477 463 OFFCURVE",
"474 440 CURVE",
"456 429 OFFCURVE",
"438 424 OFFCURVE",
"420 424 CURVE SMOOTH"
);
}
);
width = 587;
}
);
unicode = A8D7;
},
{
glyphname = uniA8D8;
lastChange = "2017-09-13 15:47:30 +0000";
layers = (
{
layerId = UUID0;
paths = (
{
closed = 1;
nodes = (
"539 40 OFFCURVE",
"549 105 OFFCURVE",
"549 184 CURVE SMOOTH",
"549 313 OFFCURVE",
"486 496 OFFCURVE",
"407 597 CURVE SMOOTH",
"367 648 OFFCURVE",
"330 675 OFFCURVE",
"293 675 CURVE SMOOTH",
"257 675 OFFCURVE",
"219 648 OFFCURVE",
"179 593 CURVE SMOOTH",
"101 486 OFFCURVE",
"35 295 OFFCURVE",
"35 166 CURVE SMOOTH",
"35 58 OFFCURVE",
"84 -7 OFFCURVE",
"164 -7 CURVE SMOOTH",
"249 -7 OFFCURVE",
"303 58 OFFCURVE",
"303 158 CURVE SMOOTH",
"303 245 OFFCURVE",
"250 312 OFFCURVE",
"167 312 CURVE SMOOTH",
"153 312 OFFCURVE",
"140 310 OFFCURVE",
"127 306 CURVE",
"146 380 OFFCURVE",
"171 446 OFFCURVE",
"204 504 CURVE SMOOTH",
"237 563 OFFCURVE",
"266 592 OFFCURVE",
"293 592 CURVE SMOOTH",
"316 592 OFFCURVE",
"342 570 OFFCURVE",
"371 527 CURVE SMOOTH",
"429 442 OFFCURVE",
"474 288 OFFCURVE",
"474 184 CURVE SMOOTH",
"474 121 OFFCURVE",
"463 51 OFFCURVE",
"444 14 CURVE",
"519 -10 LINE"
);
},
{
closed = 1;
nodes = (
"125 69 OFFCURVE",
"105 99 OFFCURVE",
"105 160 CURVE SMOOTH",
"105 185 OFFCURVE",
"107 206 OFFCURVE",
"110 225 CURVE",
"130 236 OFFCURVE",
"148 241 OFFCURVE",
"164 241 CURVE SMOOTH",
"210 241 OFFCURVE",
"233 213 OFFCURVE",
"233 156 CURVE SMOOTH",
"233 97 OFFCURVE",
"213 69 OFFCURVE",
"166 69 CURVE SMOOTH"
);
}
);
width = 589;
}
);
unicode = A8D8;
},
{
glyphname = uniA8D9;
lastChange = "2017-09-13 15:47:30 +0000";
layers = (
{
layerId = UUID0;
paths = (
{
closed = 1;
nodes = (
"356 -9 OFFCURVE",
"451 74 OFFCURVE",
"451 184 CURVE SMOOTH",
"451 251 OFFCURVE",
"426 299 OFFCURVE",
"378 326 CURVE",
"461 364 LINE",
"461 440 LINE",
"195 320 LINE",
"195 244 LINE",
"299 291 LINE",
"343 288 OFFCURVE",
"380 246 OFFCURVE",
"380 191 CURVE SMOOTH",
"380 117 OFFCURVE",
"320 71 OFFCURVE",
"250 71 CURVE SMOOTH",
"166 71 OFFCURVE",
"108 120 OFFCURVE",
"108 199 CURVE SMOOTH",
"108 250 OFFCURVE",
"125 298 OFFCURVE",
"166 367 CURVE SMOOTH",
"206 434 OFFCURVE",
"224 483 OFFCURVE",
"224 534 CURVE SMOOTH",
"224 594 OFFCURVE",
"195 642 OFFCURVE",
"148 677 CURVE",
"98 623 LINE",
"136 596 OFFCURVE",
"155 567 OFFCURVE",
"155 534 CURVE SMOOTH",
"155 489 OFFCURVE",
"140 449 OFFCURVE",
"97 376 CURVE SMOOTH",
"56 306 OFFCURVE",
"38 252 OFFCURVE",
"38 195 CURVE SMOOTH",
"38 70 OFFCURVE",
"134 -9 OFFCURVE",
"250 -9 CURVE SMOOTH"
);
}
);
width = 507;
}
);
unicode = A8D9;
},
{
glyphname = uniA892A8B0;
lastChange = "2017-09-13 15:47:30 +0000";
layers = (
{
layerId = UUID0;
paths = (
{
closed = 1;
nodes = (
"646 -9 OFFCURVE",
"807 6 OFFCURVE",
"862 187 CURVE",
"797 217 LINE",
"757 87 OFFCURVE",
"660 70 OFFCURVE",
"430 70 CURVE SMOOTH",
"212 70 OFFCURVE",
"137 90 OFFCURVE",
"137 137 CURVE SMOOTH",
"137 190 OFFCURVE",
"196 203 OFFCURVE",
"312 203 CURVE SMOOTH",
"604 203 LINE SMOOTH",
"766 203 OFFCURVE",
"867 279 OFFCURVE",
"867 499 CURVE SMOOTH",
"867 592 OFFCURVE",
"826 672 OFFCURVE",
"727 672 CURVE SMOOTH",
"662 672 OFFCURVE",
"625 646 OFFCURVE",
"604 592 CURVE",
"587 640 OFFCURVE",
"546 672 OFFCURVE",
"486 672 CURVE SMOOTH",
"424 672 OFFCURVE",
"383 639 OFFCURVE",
"367 592 CURVE",
"346 646 OFFCURVE",
"292 672 OFFCURVE",
"233 672 CURVE SMOOTH",
"118 672 OFFCURVE",
"49 591 OFFCURVE",
"49 490 CURVE SMOOTH",
"49 385 OFFCURVE",
"89 310 OFFCURVE",
"167 310 CURVE SMOOTH",
"227 310 OFFCURVE",
"279 348 OFFCURVE",
"279 437 CURVE SMOOTH",
"279 495 OFFCURVE",
"246 545 OFFCURVE",
"176 545 CURVE SMOOTH",
"161 545 OFFCURVE",
"144 542 OFFCURVE",
"130 536 CURVE",
"138 569 OFFCURVE",
"172 596 OFFCURVE",
"231 596 CURVE SMOOTH",
"298 596 OFFCURVE",
"334 564 OFFCURVE",
"334 500 CURVE SMOOTH",
"334 322 LINE",
"403 322 LINE",
"403 500 LINE SMOOTH",
"403 563 OFFCURVE",
"423 596 OFFCURVE",
"485 596 CURVE SMOOTH",
"547 596 OFFCURVE",
"568 563 OFFCURVE",
"568 500 CURVE SMOOTH",
"568 322 LINE",
"637 322 LINE",
"637 500 LINE SMOOTH",
"637 564 OFFCURVE",
"657 596 OFFCURVE",
"716 596 CURVE SMOOTH",
"769 596 OFFCURVE",
"792 557 OFFCURVE",
"792 488 CURVE SMOOTH",
"792 314 OFFCURVE",
"714 267 OFFCURVE",
"607 267 CURVE SMOOTH",
"298 267 LINE SMOOTH",
"112 267 OFFCURVE",
"62 216 OFFCURVE",
"62 130 CURVE SMOOTH",
"62 20 OFFCURVE",
"189 -9 OFFCURVE",
"427 -9 CURVE SMOOTH"
);
},
{
closed = 1;
nodes = (
"142 386 OFFCURVE",
"125 412 OFFCURVE",
"123 465 CURVE",
"141 475 OFFCURVE",
"152 479 OFFCURVE",
"171 479 CURVE SMOOTH",
"195 479 OFFCURVE",
"208 461 OFFCURVE",
"208 437 CURVE SMOOTH",
"208 402 OFFCURVE",
"191 386 OFFCURVE",
"167 386 CURVE SMOOTH"
);
}
);
width = 916;
}
);
},
{
glyphname = uniA8AFA8AC;
lastChange = "2017-09-13 15:47:30 +0000";
layers = (
{
layerId = UUID0;
paths = (
{
closed = 1;
nodes = (
"442 41 LINE",
"365 111 OFFCURVE",
"307 223 OFFCURVE",
"307 353 CURVE SMOOTH",
"307 508 OFFCURVE",
"374 595 OFFCURVE",
"491 595 CURVE SMOOTH",
"570 595 OFFCURVE",
"616 548 OFFCURVE",
"616 471 CURVE SMOOTH",
"616 447 OFFCURVE",
"611 425 OFFCURVE",
"602 404 CURVE",
"578 446 OFFCURVE",
"540 474 OFFCURVE",
"491 474 CURVE SMOOTH",
"428 474 OFFCURVE",
"384 433 OFFCURVE",
"384 372 CURVE SMOOTH",
"384 302 OFFCURVE",
"429 260 OFFCURVE",
"503 260 CURVE SMOOTH",
"527 260 OFFCURVE",
"548 263 OFFCURVE",
"565 270 CURVE",
"565 253 OFFCURVE",
"563 237 OFFCURVE",
"563 220 CURVE SMOOTH",
"563 67 OFFCURVE",
"620 -8 OFFCURVE",
"736 -8 CURVE SMOOTH",
"852 -8 OFFCURVE",
"920 114 OFFCURVE",
"920 324 CURVE SMOOTH",
"920 462 OFFCURVE",
"878 578 OFFCURVE",
"785 678 CURVE",
"728 629 LINE",
"765 586 OFFCURVE",
"845 496 OFFCURVE",
"845 324 CURVE SMOOTH",
"845 159 OFFCURVE",
"803 71 OFFCURVE",
"731 71 CURVE SMOOTH",
"653 71 OFFCURVE",
"631 121 OFFCURVE",
"631 275 CURVE SMOOTH",
"631 289 OFFCURVE",
"632 306 OFFCURVE",
"633 319 CURVE",
"669 358 OFFCURVE",
"687 407 OFFCURVE",
"687 467 CURVE SMOOTH",
"687 599 OFFCURVE",
"606 674 OFFCURVE",
"485 674 CURVE SMOOTH",
"331 674 OFFCURVE",
"233 548 OFFCURVE",
"233 353 CURVE SMOOTH",
"233 199 OFFCURVE",
"310 55 OFFCURVE",
"390 -15 CURVE"
);
},
{
closed = 1;
nodes = (
"84 -89 OFFCURVE",
"69 -74 OFFCURVE",
"69 -52 CURVE SMOOTH",
"69 -32 OFFCURVE",
"83 -15 OFFCURVE",
"109 -15 CURVE SMOOTH",
"124 -15 OFFCURVE",
"142 -19 OFFCURVE",
"162 -27 CURVE",
"150 -72 OFFCURVE",
"133 -89 OFFCURVE",
"106 -89 CURVE SMOOTH"
);
},
{
closed = 1;
nodes = (
"168 -159 OFFCURVE",
"208 -128 OFFCURVE",
"227 -62 CURVE",
"277 -94 LINE SMOOTH",
"344 -137 OFFCURVE",
"389 -156 OFFCURVE",
"428 -156 CURVE SMOOTH",
"507 -156 OFFCURVE",
"571 -114 OFFCURVE",
"604 -20 CURVE",
"541 3 LINE",
"518 -52 OFFCURVE",
"485 -79 OFFCURVE",
"427 -79 CURVE SMOOTH",
"381 -79 OFFCURVE",
"341 -60 OFFCURVE",
"287 -26 CURVE SMOOTH",
"243 2 LINE",
"244 9 OFFCURVE",
"244 24 OFFCURVE",
"244 31 CURVE SMOOTH",
"244 188 OFFCURVE",
"157 295 OFFCURVE",
"121 313 CURVE",
"82 253 LINE",
"115 234 OFFCURVE",
"174 143 OFFCURVE",
"177 39 CURVE",
"152 50 OFFCURVE",
"130 56 OFFCURVE",
"111 56 CURVE SMOOTH",
"42 56 OFFCURVE",
"0 13 OFFCURVE",
"0 -52 CURVE SMOOTH",
"0 -114 OFFCURVE",
"44 -159 OFFCURVE",
"106 -159 CURVE SMOOTH"
);
},
{
closed = 1;
nodes = (
"472 334 OFFCURVE",
"458 346 OFFCURVE",
"458 370 CURVE SMOOTH",
"458 385 OFFCURVE",
"469 401 OFFCURVE",
"492 401 CURVE SMOOTH",
"522 401 OFFCURVE",
"542 384 OFFCURVE",
"552 349 CURVE",
"534 339 OFFCURVE",
"517 334 OFFCURVE",
"500 334 CURVE SMOOTH"
);
}
);
width = 967;
}
);
},
{
glyphname = uniA8B0A89D;
lastChange = "2017-09-13 15:47:30 +0000";
layers = (
{
layerId = UUID0;
paths = (
{
closed = 1;
nodes = (
"486 -11 OFFCURVE",
"587 88 OFFCURVE",
"631 290 CURVE",
"672 263 OFFCURVE",
"693 230 OFFCURVE",
"693 179 CURVE SMOOTH",
"693 140 OFFCURVE",
"668 100 OFFCURVE",
"620 57 CURVE",
"681 -1 LINE",
"738 52 OFFCURVE",
"767 109 OFFCURVE",
"767 170 CURVE SMOOTH",
"767 250 OFFCURVE",
"739 295 OFFCURVE",
"650 364 CURVE",
"664 421 OFFCURVE",
"671 472 OFFCURVE",
"671 515 CURVE SMOOTH",
"671 616 OFFCURVE",
"619 674 OFFCURVE",
"531 674 CURVE SMOOTH",
"457 674 OFFCURVE",
"405 622 OFFCURVE",
"405 540 CURVE SMOOTH",
"405 470 OFFCURVE",
"443 414 OFFCURVE",
"571 336 CURVE",
"536 163 OFFCURVE",
"457 69 OFFCURVE",
"334 69 CURVE SMOOTH",
"190 69 OFFCURVE",
"105 173 OFFCURVE",
"105 362 CURVE SMOOTH",
"105 392 LINE",
"132 374 OFFCURVE",
"166 365 OFFCURVE",
"206 365 CURVE SMOOTH",
"287 365 OFFCURVE",
"339 426 OFFCURVE",
"339 518 CURVE SMOOTH",
"339 614 OFFCURVE",
"288 675 OFFCURVE",
"204 675 CURVE SMOOTH",
"93 675 OFFCURVE",
"38 566 OFFCURVE",
"38 362 CURVE SMOOTH",
"38 125 OFFCURVE",
"148 -11 OFFCURVE",
"331 -11 CURVE SMOOTH"
);
},
{
closed = 1;
nodes = (
"168 443 OFFCURVE",
"140 452 OFFCURVE",
"116 471 CURVE",
"124 556 OFFCURVE",
"152 597 OFFCURVE",
"205 597 CURVE SMOOTH",
"245 597 OFFCURVE",
"270 570 OFFCURVE",
"270 518 CURVE SMOOTH",
"270 473 OFFCURVE",
"246 443 OFFCURVE",
"201 443 CURVE SMOOTH"
);
},
{
closed = 1;
nodes = (
"1039 -171 OFFCURVE",
"1111 -92 OFFCURVE",
"1111 4 CURVE SMOOTH",
"1111 101 OFFCURVE",
"1039 174 OFFCURVE",
"949 174 CURVE SMOOTH",
"859 174 OFFCURVE",
"786 97 OFFCURVE",
"786 1 CURVE SMOOTH",
"786 -95 OFFCURVE",
"859 -171 OFFCURVE",
"949 -171 CURVE SMOOTH"
);
},
{
closed = 1;
nodes = (
"894 -91 OFFCURVE",
"855 -57 OFFCURVE",
"855 6 CURVE SMOOTH",
"855 64 OFFCURVE",
"893 96 OFFCURVE",
"949 96 CURVE SMOOTH",
"1007 96 OFFCURVE",
"1042 59 OFFCURVE",
"1042 6 CURVE SMOOTH",
"1042 -56 OFFCURVE",
"1004 -91 OFFCURVE",
"949 -91 CURVE SMOOTH"
);
},
{
closed = 1;
nodes = (
"514 446 OFFCURVE",
"479 487 OFFCURVE",
"479 536 CURVE SMOOTH",
"479 572 OFFCURVE",
"505 596 OFFCURVE",
"536 596 CURVE SMOOTH",
"579 596 OFFCURVE",
"597 572 OFFCURVE",
"597 515 CURVE SMOOTH",
"597 473 OFFCURVE",
"593 437 OFFCURVE",
"585 406 CURVE"
);
}
);
width = 1141;
}
);
},
{
glyphname = uniA8B0A89CA8AC;
lastChange = "2017-09-13 15:47:30 +0000";
layers = (
{
layerId = UUID0;
paths = (
{
closed = 1;
nodes = (
"696 -11 OFFCURVE",
"797 88 OFFCURVE",
"841 290 CURVE",
"882 263 OFFCURVE",
"903 230 OFFCURVE",
"903 179 CURVE SMOOTH",
"903 140 OFFCURVE",
"878 100 OFFCURVE",
"830 57 CURVE",
"891 -1 LINE",
"948 52 OFFCURVE",
"977 109 OFFCURVE",
"977 170 CURVE SMOOTH",
"977 250 OFFCURVE",
"949 295 OFFCURVE",
"860 364 CURVE",
"874 421 OFFCURVE",
"881 472 OFFCURVE",
"881 515 CURVE SMOOTH",
"881 616 OFFCURVE",
"829 674 OFFCURVE",
"741 674 CURVE SMOOTH",
"667 674 OFFCURVE",
"615 622 OFFCURVE",
"615 540 CURVE SMOOTH",
"615 470 OFFCURVE",
"653 414 OFFCURVE",
"781 336 CURVE",
"746 163 OFFCURVE",
"667 69 OFFCURVE",
"544 69 CURVE SMOOTH",
"400 69 OFFCURVE",
"315 173 OFFCURVE",
"315 362 CURVE SMOOTH",
"315 392 LINE",
"342 374 OFFCURVE",
"375 365 OFFCURVE",
"416 365 CURVE SMOOTH",
"497 365 OFFCURVE",
"549 426 OFFCURVE",
"549 518 CURVE SMOOTH",
"549 614 OFFCURVE",
"498 675 OFFCURVE",
"414 675 CURVE SMOOTH",
"303 675 OFFCURVE",
"248 566 OFFCURVE",
"248 362 CURVE SMOOTH",
"248 125 OFFCURVE",
"358 -11 OFFCURVE",
"541 -11 CURVE SMOOTH"
);
},
{
closed = 1;
nodes = (
"84 -89 OFFCURVE",
"69 -74 OFFCURVE",
"69 -52 CURVE SMOOTH",
"69 -32 OFFCURVE",
"83 -15 OFFCURVE",
"109 -15 CURVE SMOOTH",
"124 -15 OFFCURVE",
"142 -19 OFFCURVE",
"162 -27 CURVE",
"150 -72 OFFCURVE",
"133 -89 OFFCURVE",
"106 -89 CURVE SMOOTH"
);
},
{
closed = 1;
nodes = (
"168 -159 OFFCURVE",
"208 -128 OFFCURVE",
"227 -62 CURVE",
"277 -94 LINE SMOOTH",
"344 -137 OFFCURVE",
"389 -156 OFFCURVE",
"428 -156 CURVE SMOOTH",
"490 -156 OFFCURVE",
"542 -130 OFFCURVE",
"579 -73 CURVE",
"517 -40 LINE",
"496 -66 OFFCURVE",
"468 -79 OFFCURVE",
"427 -79 CURVE SMOOTH",
"381 -79 OFFCURVE",
"341 -60 OFFCURVE",
"287 -26 CURVE SMOOTH",
"243 2 LINE",
"244 9 OFFCURVE",
"244 24 OFFCURVE",
"244 31 CURVE SMOOTH",
"244 188 OFFCURVE",
"157 295 OFFCURVE",
"121 313 CURVE",
"82 253 LINE",
"115 234 OFFCURVE",
"174 143 OFFCURVE",
"177 39 CURVE",
"152 50 OFFCURVE",
"130 56 OFFCURVE",
"111 56 CURVE SMOOTH",
"42 56 OFFCURVE",
"0 13 OFFCURVE",
"0 -52 CURVE SMOOTH",
"0 -114 OFFCURVE",
"44 -159 OFFCURVE",
"106 -159 CURVE SMOOTH"
);
},
{
closed = 1;
nodes = (
"378 443 OFFCURVE",
"350 452 OFFCURVE",
"326 471 CURVE",
"334 556 OFFCURVE",
"362 597 OFFCURVE",
"415 597 CURVE SMOOTH",
"455 597 OFFCURVE",
"480 570 OFFCURVE",
"480 518 CURVE SMOOTH",
"480 473 OFFCURVE",
"456 443 OFFCURVE",
"411 443 CURVE SMOOTH"
);
},
{
closed = 1;
nodes = (
"1129 -143 OFFCURVE",
"1110 -125 OFFCURVE",
"1110 -95 CURVE SMOOTH",
"1110 -63 OFFCURVE",
"1127 -30 OFFCURVE",
"1155 -8 CURVE",
"1182 -30 OFFCURVE",
"1199 -63 OFFCURVE",
"1199 -95 CURVE SMOOTH",
"1199 -125 OFFCURVE",
"1181 -143 OFFCURVE",
"1155 -143 CURVE SMOOTH"
);
},
{
closed = 1;
nodes = (
"724 446 OFFCURVE",
"689 487 OFFCURVE",
"689 536 CURVE SMOOTH",
"689 572 OFFCURVE",
"715 596 OFFCURVE",
"746 596 CURVE SMOOTH",
"789 596 OFFCURVE",
"807 572 OFFCURVE",
"807 515 CURVE SMOOTH",
"807 473 OFFCURVE",
"803 437 OFFCURVE",
"795 406 CURVE"
);
},
{
closed = 1;
nodes = (
"1229 -216 OFFCURVE",
"1276 -170 OFFCURVE",
"1276 -95 CURVE SMOOTH",
"1276 -69 OFFCURVE",
"1262 -23 OFFCURVE",
"1227 0 CURVE",
"1331 0 LINE",
"1350 65 LINE",
"1195 65 LINE",
"1206 113 OFFCURVE",
"1216 187 OFFCURVE",
"1216 243 CURVE SMOOTH",
"1216 429 OFFCURVE",
"1153 648 OFFCURVE",
"960 674 CURVE",
"960 601 LINE",
"1091 578 OFFCURVE",
"1142 417 OFFCURVE",
"1142 235 CURVE SMOOTH",
"1142 176 OFFCURVE",
"1133 109 OFFCURVE",
"1120 65 CURVE",
"1001 65 LINE",
"982 0 LINE",
"1083 0 LINE",
"1047 -23 OFFCURVE",
"1033 -69 OFFCURVE",
"1033 -95 CURVE SMOOTH",
"1033 -173 OFFCURVE",
"1084 -216 OFFCURVE",
"1158 -216 CURVE SMOOTH"
);
}
);
width = 1389;
}
);
},
{
glyphname = uniA8A1A8AB;
lastChange = "2017-09-13 15:47:30 +0000";
layers = (
{
layerId = UUID0;
paths = (
{
closed = 1;
nodes = (
"600 82 LINE",
"470 82 OFFCURVE",
"402 170 OFFCURVE",
"402 340 CURVE SMOOTH",
"402 508 OFFCURVE",
"460 595 OFFCURVE",
"575 595 CURVE SMOOTH",
"659 595 OFFCURVE",
"702 544 OFFCURVE",
"702 443 CURVE SMOOTH",
"702 0 LINE",
"780 0 LINE",
"780 449 LINE SMOOTH",
"780 594 OFFCURVE",
"705 674 OFFCURVE",
"574 674 CURVE SMOOTH",
"412 674 OFFCURVE",
"326 557 OFFCURVE",
"326 339 CURVE SMOOTH",
"326 128 OFFCURVE",
"413 -2 OFFCURVE",
"605 -2 CURVE"
);
},
{
closed = 1;
nodes = (
"163 -102 OFFCURVE",
"135 -61 OFFCURVE",
"127 24 CURVE",
"151 43 OFFCURVE",
"179 52 OFFCURVE",
"212 52 CURVE SMOOTH",
"256 52 OFFCURVE",
"281 22 OFFCURVE",
"281 -23 CURVE SMOOTH",
"281 -75 OFFCURVE",
"255 -102 OFFCURVE",
"216 -102 CURVE SMOOTH"
);
},
{
closed = 1;
nodes = (
"300 -180 OFFCURVE",
"350 -119 OFFCURVE",
"350 -23 CURVE SMOOTH",
"350 68 OFFCURVE",
"297 130 OFFCURVE",
"217 130 CURVE SMOOTH",
"176 130 OFFCURVE",
"143 121 OFFCURVE",
"116 103 CURVE",
"116 133 LINE SMOOTH",
"116 258 OFFCURVE",
"153 346 OFFCURVE",
"220 391 CURVE",
"165 448 LINE",
"90 387 OFFCURVE",
"49 279 OFFCURVE",
"49 133 CURVE SMOOTH",
"49 -71 OFFCURVE",
"104 -180 OFFCURVE",
"215 -180 CURVE SMOOTH"
);
}
);
width = 845;
}
);
},
{
glyphname = uni25CC;
lastChange = "2017-09-13 15:47:30 +0000";
layers = (
{
layerId = UUID0;
paths = (
{
closed = 1;
nodes = (
"520 349 OFFCURVE",
"529 358 OFFCURVE",
"529 376 CURVE SMOOTH",
"529 393 OFFCURVE",
"520 402 OFFCURVE",
"503 402 CURVE SMOOTH",
"485 402 OFFCURVE",
"476 393 OFFCURVE",
"476 376 CURVE SMOOTH",
"476 358 OFFCURVE",
"485 349 OFFCURVE",
"502 349 CURVE SMOOTH"
);
},
{
closed = 1;
nodes = (
"158 107 OFFCURVE",
"167 116 OFFCURVE",
"167 133 CURVE SMOOTH",
"167 151 OFFCURVE",
"158 160 OFFCURVE",
"140 160 CURVE SMOOTH",
"123 160 OFFCURVE",
"114 151 OFFCURVE",
"114 133 CURVE SMOOTH",
"114 116 OFFCURVE",
"123 107 OFFCURVE",
"140 107 CURVE SMOOTH"
);
},
{
closed = 1;
nodes = (
"109 180 OFFCURVE",
"118 189 OFFCURVE",
"118 206 CURVE SMOOTH",
"118 224 OFFCURVE",
"109 233 OFFCURVE",
"92 233 CURVE SMOOTH",
"74 233 OFFCURVE",
"65 224 OFFCURVE",
"65 206 CURVE SMOOTH",
"65 189 OFFCURVE",
"74 180 OFFCURVE",
"92 180 CURVE SMOOTH"
);
},
{
closed = 1;
nodes = (
"230 60 OFFCURVE",
"239 69 OFFCURVE",
"239 87 CURVE SMOOTH",
"239 104 OFFCURVE",
"230 112 OFFCURVE",
"212 112 CURVE SMOOTH",
"195 112 OFFCURVE",
"186 103 OFFCURVE",
"186 85 CURVE SMOOTH",
"186 68 OFFCURVE",
"195 60 OFFCURVE",
"212 60 CURVE SMOOTH"
);
},
{
closed = 1;
nodes = (
"92 265 OFFCURVE",
"101 274 OFFCURVE",
"101 291 CURVE SMOOTH",
"101 308 OFFCURVE",
"92 317 OFFCURVE",
"75 317 CURVE SMOOTH",
"57 317 OFFCURVE",
"48 308 OFFCURVE",
"48 291 CURVE SMOOTH",
"48 274 OFFCURVE",
"57 265 OFFCURVE",
"75 265 CURVE SMOOTH"
);
},
{
closed = 1;
nodes = (
"314 42 OFFCURVE",
"323 51 OFFCURVE",
"323 69 CURVE SMOOTH",
"323 86 OFFCURVE",
"314 95 OFFCURVE",
"297 95 CURVE SMOOTH",
"280 95 OFFCURVE",
"271 86 OFFCURVE",
"271 69 CURVE SMOOTH",
"271 51 OFFCURVE",
"280 42 OFFCURVE",
"297 42 CURVE SMOOTH"
);
},
{
closed = 1;
nodes = (
"110 349 OFFCURVE",
"118 358 OFFCURVE",
"118 376 CURVE SMOOTH",
"118 393 OFFCURVE",
"109 402 OFFCURVE",
"92 402 CURVE SMOOTH",
"74 402 OFFCURVE",
"65 393 OFFCURVE",
"65 376 CURVE SMOOTH",
"65 358 OFFCURVE",
"74 349 OFFCURVE",
"93 349 CURVE SMOOTH"
);
},
{
closed = 1;
nodes = (
"400 60 OFFCURVE",
"408 68 OFFCURVE",
"408 85 CURVE SMOOTH",
"408 103 OFFCURVE",
"400 112 OFFCURVE",
"383 112 CURVE SMOOTH",
"364 112 OFFCURVE",
"355 103 OFFCURVE",
"355 85 CURVE SMOOTH",
"355 68 OFFCURVE",
"364 60 OFFCURVE",
"383 60 CURVE SMOOTH"
);
},
{
closed = 1;
nodes = (
"472 107 OFFCURVE",
"480 116 OFFCURVE",
"480 133 CURVE SMOOTH",
"480 151 OFFCURVE",
"472 160 OFFCURVE",
"455 160 CURVE SMOOTH",
"437 160 OFFCURVE",
"428 151 OFFCURVE",
"428 133 CURVE SMOOTH",
"428 116 OFFCURVE",
"437 107 OFFCURVE",
"455 107 CURVE SMOOTH"
);
},
{
closed = 1;
nodes = (
"158 422 OFFCURVE",
"167 431 OFFCURVE",
"167 448 CURVE SMOOTH",
"167 466 OFFCURVE",
"158 475 OFFCURVE",
"140 475 CURVE SMOOTH",
"123 475 OFFCURVE",
"114 466 OFFCURVE",
"114 447 CURVE SMOOTH",
"114 430 OFFCURVE",
"123 422 OFFCURVE",
"140 422 CURVE SMOOTH"
);
},
{
closed = 1;
nodes = (
"230 470 OFFCURVE",
"239 479 OFFCURVE",
"239 496 CURVE SMOOTH",
"239 514 OFFCURVE",
"230 523 OFFCURVE",
"212 523 CURVE SMOOTH",
"195 523 OFFCURVE",
"186 514 OFFCURVE",
"186 496 CURVE SMOOTH",
"186 479 OFFCURVE",
"195 470 OFFCURVE",
"212 470 CURVE SMOOTH"
);
},
{
closed = 1;
nodes = (
"520 180 OFFCURVE",
"529 189 OFFCURVE",
"529 206 CURVE SMOOTH",
"529 224 OFFCURVE",
"520 233 OFFCURVE",
"502 233 CURVE SMOOTH",
"485 233 OFFCURVE",
"476 224 OFFCURVE",
"476 206 CURVE SMOOTH",
"476 189 OFFCURVE",
"485 180 OFFCURVE",
"502 180 CURVE SMOOTH"
);
},
{
closed = 1;
nodes = (
"314 487 OFFCURVE",
"323 496 OFFCURVE",
"323 514 CURVE SMOOTH",
"323 531 OFFCURVE",
"314 540 OFFCURVE",
"297 540 CURVE SMOOTH",
"280 540 OFFCURVE",
"271 531 OFFCURVE",
"271 514 CURVE SMOOTH",
"271 496 OFFCURVE",
"280 487 OFFCURVE",
"297 487 CURVE SMOOTH"
);
},
{
closed = 1;
nodes = (
"538 265 OFFCURVE",
"546 274 OFFCURVE",
"546 291 CURVE SMOOTH",
"546 308 OFFCURVE",
"538 317 OFFCURVE",
"521 317 CURVE SMOOTH",
"503 317 OFFCURVE",
"494 308 OFFCURVE",
"494 291 CURVE SMOOTH",
"494 274 OFFCURVE",
"503 265 OFFCURVE",
"521 265 CURVE SMOOTH"
);
},
{
closed = 1;
nodes = (
"400 470 OFFCURVE",
"408 479 OFFCURVE",
"408 496 CURVE SMOOTH",
"408 514 OFFCURVE",
"400 523 OFFCURVE",
"383 523 CURVE SMOOTH",
"364 523 OFFCURVE",
"355 514 OFFCURVE",
"355 496 CURVE SMOOTH",
"355 479 OFFCURVE",
"364 470 OFFCURVE",
"383 470 CURVE SMOOTH"
);
},
{
closed = 1;
nodes = (
"472 422 OFFCURVE",
"480 431 OFFCURVE",
"480 448 CURVE SMOOTH",
"480 466 OFFCURVE",
"472 475 OFFCURVE",
"455 475 CURVE SMOOTH",
"437 475 OFFCURVE",
"428 466 OFFCURVE",
"428 448 CURVE SMOOTH",
"428 431 OFFCURVE",
"437 422 OFFCURVE",
"455 422 CURVE SMOOTH"
);
}
